SplineFontDB: 3.0
FontName: MiriamCLM-Book
FullName: Miriam CLM Book
FamilyName: Miriam CLM
Weight: Book
Copyright: Copyright 2004-2010 by Maxim Iorsh (iorsh@users.sourceforge.net). Distributed under the terms of GNU General Public License version 2(http://www.gnu.org/licenses/gpl.html). \nAll rights reserved.
UComments: "distorted bitmap stretch 133.3333% 100%+AAoACgAA-stretch bitmap 114.3%" 
Version: 0.120
ItalicAngle: 0
UnderlinePosition: -100
UnderlineWidth: 50
Ascent: 872
Descent: 218
LayerCount: 2
Layer: 0 0 "Back"  1
Layer: 1 0 "Fore"  0
NeedsXUIDChange: 1
FSType: 0
OS2Version: 0
OS2_WeightWidthSlopeOnly: 0
OS2_UseTypoMetrics: 0
CreationTime: 1163025780
ModificationTime: 1289933782
PfmFamily: 33
TTFWeight: 400
TTFWidth: 4
LineGap: 90
VLineGap: 0
Panose: 2 0 6 3 0 0 0 0 0 0
OS2TypoAscent: 0
OS2TypoAOffset: 1
OS2TypoDescent: 0
OS2TypoDOffset: 1
OS2TypoLinegap: 0
OS2WinAscent: 0
OS2WinAOffset: 1
OS2WinDescent: 0
OS2WinDOffset: 1
HheadAscent: 0
HheadAOffset: 1
HheadDescent: 0
HheadDOffset: 1
OS2Vendor: 'PfEd'
Lookup: 6 1 0 "ccmpAltAyin"  {"ccmpAltAyin subtable"  } ['ccmp' ('hebr' <'dflt' > ) ]
Lookup: 1 1 0 "Single Substitution lookup 11"  {"Single Substitution lookup 11 subtable"  } []
Lookup: 6 1 0 "ccmpVavHolam"  {"ccmpVavHolam subtable"  } ['ccmp' ('hebr' <'dflt' > ) ]
Lookup: 1 1 0 "salt MiscSAlt"  {"MiscSAlt"  } ['salt' ('hebr' <'dflt' > ) ]
Lookup: 4 1 0 "ccmp AlephLamed2"  {"AlephLamed2"  } ['ccmp' ('hebr' <'JUD ' > ) ]
Lookup: 4 1 0 "dlig AlephLamed"  {"AlephLamed"  } ['dlig' ('hebr' <'dflt' > ) ]
Lookup: 4 1 0 "ccmp CustomPrecomp"  {"CustomPrecomp"  } ['ccmp' ('hebr' <'dflt' > ) ]
Lookup: 1 1 0 "jalt WideLetters"  {"WideLetters"  } ['jalt' ('hebr' <'dflt' > ) ]
Lookup: 1 1 0 "ccmp Yiddish2"  {"Yiddish2"  } ['ccmp' ('hebr' <'JII ' > ) ]
Lookup: 4 1 0 "ccmp Yiddish_dflt"  {"Yiddish_dflt"  } ['ccmp' ('hebr' <'dflt' > ) ]
Lookup: 4 1 0 "ccmp Yiddish"  {"Yiddish"  } ['ccmp' ('hebr' <'JII ' > ) ]

StartChar: exclam
Encoding: 33 33 1
Width: 270
VWidth: 1000
Flags: MW
LayerCount: 2
Back
SplineSet
115 -11.002 m 2
 115 9.75488 116.234 21.5176 121.208 31.4961 c 0
 129.348 47.8271 143.189 52.999 160.007 53 c 0
 175.951 53 190.527 48.1045 198.806 31.4961 c 0
 203.779 21.5176 205.014 10.1016 205.014 -11.002 c 2
115 53 m 2
 115 32.2432 116.234 20.4805 121.208 10.502 c 0
 129.348 -5.8291 143.189 -11.001 160.007 -11.002 c 0
 175.951 -11.002 190.527 -6.10645 198.806 10.502 c 0
 203.779 20.4805 205.014 31.8965 205.014 53 c 2
191 219 m 2
 191 208 189 203 185 199 c 0
 181 195 176 193 165 193 c 2
 147 193 l 2
 136 193 131 195 127 199 c 0
 123 203 121 208 121 219 c 2
 121 574 l 2
 121 585 123 590 127 594 c 0
 131 598 136 600 147 600 c 2
 165 600 l 2
 176 600 181 598 185 594 c 0
 189 590 191 585 191 574 c 2
 191 219 l 2
EndSplineSet
Fore
SplineSet
180.014 53 m 0
 180.014 32.667 178.779 20.4805 173.806 10.502 c 0
 165.527 -6.10645 150.951 -11.002 135.007 -11.002 c 0
 118.189 -11.001 104.348 -5.8291 96.208 10.502 c 0
 91.2344 20.4805 90 32.667 90 53 c 0
 90 73.7568 91.2344 85.5195 96.208 95.498 c 0
 104.348 111.829 118.189 117.001 135.007 117.002 c 0
 150.951 117.002 165.527 112.106 173.806 95.498 c 0
 178.779 85.5195 180.014 74.1035 180.014 53 c 0
170 246 m 2
 170 235 168 230 164 226 c 0
 160 222 155 220 144 220 c 2
 126 220 l 2
 115 220 110 222 106 226 c 0
 102 230 100 235 100 246 c 2
 100 624 l 2
 100 635 102 640 106 644 c 0
 110 648 115 650 126 650 c 2
 144 650 l 2
 155 650 160 648 164 644 c 0
 168 640 170 635 170 624 c 2
 170 246 l 2
EndSplineSet
EndChar

StartChar: quotedbl
Encoding: 34 34 2
Width: 404
VWidth: 1000
Flags: HMW
LayerCount: 2
Back
SplineSet
278.541 617 m 2
 287.578 637.833 298.041 646 319.541 646 c 2
 352.541 646 l 2
 374.541 646 380.949 635.499 368.541 613 c 2
 285.541 462.5 l 2
 275.896 445.011 268.541 440 254.041 440 c 2
 228.041 440 l 2
 210.541 440 206.299 450.455 213.041 466 c 2
 278.541 617 l 2
118.541 617 m 2
 127.578 637.833 138.041 646 159.541 646 c 2
 192.541 646 l 2
 214.541 646 220.949 635.499 208.541 613 c 2
 125.541 462.5 l 2
 115.896 445.011 108.541 440 94.041 440 c 2
 68.041 440 l 2
 50.541 440 46.2979 450.455 53.041 466 c 2
 118.541 617 l 2
EndSplineSet
Fore
SplineSet
278.541 617 m 2
 287.578 637.833 298.041 646 319.541 646 c 2
 352.541 646 l 2
 374.541 646 380.949 635.499 368.541 613 c 2
 285.541 462.5 l 2
 275.896 445.011 268.541 440 254.041 440 c 2
 228.041 440 l 2
 210.541 440 206.299 450.455 213.041 466 c 2
 278.541 617 l 2
118.541 617 m 2
 127.578 637.833 138.041 646 159.541 646 c 2
 192.541 646 l 2
 214.541 646 220.949 635.499 208.541 613 c 2
 125.541 462.5 l 2
 115.896 445.011 108.541 440 94.041 440 c 2
 68.041 440 l 2
 50.541 440 46.2979 450.455 53.041 466 c 2
 118.541 617 l 2
EndSplineSet
EndChar

StartChar: numbersign
Encoding: 35 35 3
Width: 614
VWidth: 1000
Flags: HMW
LayerCount: 2
Back
SplineSet
352 258 m 2
 368 348 l 2
 369 356 368 358 360 358 c 258
 261 358 l 258
 253 358 251 356 250 348 c 2
 234 258 l 2
 233 250 234 248 242 248 c 258
 340 248 l 258
 348 248 351 250 352 258 c 2
408 168 m 2
 383 26 l 2
 381 15 379 10 374 6 c 0
 369 2 364 0 353 0 c 2
 333 0 l 2
 322 0 317 2 314 6 c 0
 311 10 309 15 311 26 c 2
 336 168 l 2
 338 176 335 178 327 178 c 258
 229 178 l 258
 221 178 219 176 218 168 c 2
 193 26 l 2
 191 15 189 10 184 6 c 0
 179 2 174 0 163 0 c 2
 143 0 l 2
 132 0 127 2 124 6 c 0
 121 10 119 15 121 26 c 2
 146 168 l 2
 147 176 145 178 137 178 c 258
 57 178 l 2
 46 178 42 180 38 184 c 0
 35 188 34 193 36 204 c 2
 39 222 l 2
 41 233 44 238 49 242 c 0
 53 246 59 248 70 248 c 2
 150 248 l 258
 158 248 161 250 162 258 c 2
 178 348 l 2
 179 356 177 358 169 358 c 258
 89 358 l 2
 78 358 74 360 70 364 c 0
 67 368 66 374 68 384 c 2
 71 402 l 2
 73 414 76 418 81 422 c 0
 85 426 91 428 102 428 c 2
 182 428 l 258
 190 428 192 430 194 438 c 2
 218 574 l 2
 219 585 222 590 227 594 c 0
 232 598 237 600 248 600 c 2
 268 600 l 2
 279 600 284 598 287 594 c 0
 290 590 291 585 290 574 c 2
 266 438 l 2
 264 430 266 428 274 428 c 258
 372 428 l 258
 380 428 382 430 384 438 c 2
 408 574 l 2
 409 585 412 590 417 594 c 0
 422 598 427 600 438 600 c 2
 458 600 l 2
 469 600 474 598 477 594 c 0
 480 590 481 585 480 574 c 2
 456 438 l 2
 454 430 456 428 464 428 c 258
 537 428 l 2
 548 428 552 426 556 422 c 0
 559 418 560 414 558 402 c 2
 555 384 l 2
 553 374 550 368 545 364 c 0
 541 360 535 358 524 358 c 2
 452 358 l 258
 444 358 441 356 440 348 c 2
 424 258 l 2
 423 250 424 248 432 248 c 258
 505 248 l 2
 516 248 520 246 524 242 c 0
 527 238 528 233 526 222 c 2
 523 204 l 2
 521 193 518 188 513 184 c 0
 509 180 503 178 492 178 c 2
 419 178 l 258
 411 178 410 176 408 168 c 2
EndSplineSet
Fore
SplineSet
350 238 m 2
 374 368 l 2
 375.464 375.928 374 378 366 378 c 258
 263 378 l 258
 255 378 253.464 375.928 252 368 c 2
 228 238 l 2
 226.541 230.07 228 228 236 228 c 258
 338 228 l 258
 346 228 348.541 230.07 350 238 c 2
405 153 m 2
 383 26 l 2
 381.092 14.9834 379 10 374 6 c 0
 369 2 364 0 353 0 c 2
 335 0 l 2
 324 0 319 2 316 6 c 0
 313 10 311.092 14.9834 313 26 c 2
 335 153 l 2
 337 161 334 163 326 163 c 258
 224 163 l 258
 216 163 214 161 213 153 c 2
 191 26 l 2
 189.092 14.9834 187 10 182 6 c 0
 177 2 172 0 161 0 c 2
 143 0 l 2
 132 0 127 2 124 6 c 0
 121 10 119.092 14.9834 121 26 c 2
 143 153 l 2
 144 161 142 163 134 163 c 258
 54 163 l 2
 43 163 39 165 35 169 c 0
 32 173 31.2998 177.949 33 189 c 2
 35 202 l 2
 37 213 40 218 45 222 c 0
 49 226 55 228 66 228 c 2
 146 228 l 258
 154 228 156.541 230.07 158 238 c 2
 182 368 l 2
 183.464 375.928 181 378 173 378 c 258
 93 378 l 2
 82 378 78 380 74 384 c 0
 71 388 70 394 72 404 c 2
 74 417 l 2
 75.8496 429.024 79 433 84 437 c 0
 88 441 94 443 105 443 c 2
 185 443 l 258
 193 443 195 445 197 453 c 2
 218 574 l 2
 219.889 584.883 222 590 227 594 c 0
 232 598 237 600 248 600 c 2
 266 600 l 2
 277 600 282 598 285 594 c 0
 288 590 289.889 584.883 288 574 c 2
 267 453 l 2
 265 445 267 443 275 443 c 258
 377 443 l 258
 385 443 387 445 389 453 c 2
 410 574 l 2
 411.889 584.883 414 590 419 594 c 0
 424 598 429 600 440 600 c 2
 458 600 l 2
 469 600 474 598 477 594 c 0
 480 590 481.889 584.883 480 574 c 2
 459 453 l 2
 457 445 459 443 467 443 c 258
 540 443 l 2
 551 443 555 441 559 437 c 0
 562 433 562.85 429.024 561 417 c 2
 559 404 l 2
 557 394 554 388 549 384 c 0
 545 380 539 378 528 378 c 2
 456 378 l 258
 448 378 445.464 375.928 444 368 c 2
 420 238 l 2
 418.541 230.07 420 228 428 228 c 258
 501 228 l 2
 512 228 516 226 520 222 c 0
 523 218 524 213 522 202 c 2
 520 189 l 2
 518.3 177.949 515 173 510 169 c 0
 506 165 500 163 489 163 c 2
 416 163 l 258
 408 163 407 161 405 153 c 2
EndSplineSet
EndChar

StartChar: percent
Encoding: 37 37 4
Width: 611
VWidth: 1000
Flags: HMW
LayerCount: 2
Back
SplineSet
373 147 m 0
 373 122.2 375.7 97.7998 382.3 80.5996 c 0
 389.5 61.7998 399.7 52.2002 413.5 52.2002 c 0
 427.3 52.2002 437.5 61.7998 444.7 80.5996 c 0
 451.3 97.7998 454 122.2 454 147 c 0
 454 171.8 451.3 196.2 444.7 213.4 c 0
 437.5 232.2 427.3 241.8 413.5 241.8 c 0
 399.7 241.8 389.5 232.2 382.3 213.4 c 0
 375.7 196.2 373 171.8 373 147 c 0
516 147 m 0
 516 106.5 509 67.5 493 40.5 c 0
 474.5 9.5 445 -7 413.5 -7 c 0
 382 -7 352.5 9.5 334 40.5 c 0
 318 67.5 311 106.5 311 147 c 0
 311 187.5 318 226.5 334 253.5 c 0
 352.5 284.5 382 301 413.5 301 c 0
 445 301 474.5 284.5 493 253.5 c 0
 509 226.5 516 187.5 516 147 c 0
117 454 m 0
 117 429.2 119.7 404.8 126.3 387.6 c 0
 133.5 368.8 143.7 359.2 157.5 359.2 c 0
 171.3 359.2 181.5 368.8 188.7 387.6 c 0
 195.3 404.8 198 429.2 198 454 c 0
 198 478.8 195.3 503.2 188.7 520.4 c 0
 181.5 539.2 171.3 548.8 157.5 548.8 c 0
 143.7 548.8 133.5 539.2 126.3 520.4 c 0
 119.7 503.2 117 478.8 117 454 c 0
260 454 m 0
 260 413.5 253 374.5 237 347.5 c 0
 218.5 316.5 189 300 157.5 300 c 0
 126 300 96.5 316.5 78 347.5 c 0
 62 374.5 55 413.5 55 454 c 0
 55 494.5 62 533.5 78 560.5 c 0
 96.5 591.5 126 608 157.5 608 c 0
 189 608 218.5 591.5 237 560.5 c 0
 253 533.5 260 494.5 260 454 c 0
163.944 9.08398 m 2
 158.611 -0.537109 154.438 -3.94141 149 -5.5 c 0
 143.563 -7.05859 138.221 -6.38379 128.599 -1.05176 c 2
 112.855 7.67578 l 2
 103.236 13.0088 99.8311 17.1816 98.2725 22.6191 c 0
 96.7139 28.0566 97.3877 33.3994 102.721 43.0215 c 2
 407.557 592.416 l 2
 412.89 602.036 417.062 605.442 422.5 607 c 0
 427.938 608.558 433.281 607.885 442.902 602.551 c 2
 458.646 593.825 l 2
 468.265 588.491 471.67 584.318 473.229 578.881 c 0
 474.788 573.442 474.113 568.101 468.78 558.479 c 2
 163.944 9.08398 l 2
EndSplineSet
Fore
SplineSet
393.125 147 m 0
 393.125 122.2 396.5 97.7998 404.75 80.5996 c 0
 413.75 61.7998 426.5 52.2002 443.75 52.2002 c 0
 461 52.2002 473.75 61.7998 482.75 80.5996 c 0
 491 97.7998 494.375 122.2 494.375 147 c 0
 494.375 171.8 491 196.2 482.75 213.4 c 0
 473.75 232.2 461 241.8 443.75 241.8 c 0
 426.5 241.8 413.75 232.2 404.75 213.4 c 0
 396.5 196.2 393.125 171.8 393.125 147 c 0
556.5 147 m 0
 556.5 106.5 548.8 67.5 531.2 40.5 c 0
 510.85 9.5 478.4 -7 443.75 -7 c 0
 409.1 -7 376.65 9.5 356.3 40.5 c 0
 338.7 67.5 331 106.5 331 147 c 0
 331 187.5 338.7 226.5 356.3 253.5 c 0
 376.65 284.5 409.1 301 443.75 301 c 0
 478.4 301 510.85 284.5 531.2 253.5 c 0
 548.8 226.5 556.5 187.5 556.5 147 c 0
117.125 454 m 0
 117.125 429.2 120.5 404.8 128.75 387.6 c 0
 137.75 368.8 150.5 359.2 167.75 359.2 c 0
 185 359.2 197.75 368.8 206.75 387.6 c 0
 215 404.8 218.375 429.2 218.375 454 c 0
 218.375 478.8 215 503.2 206.75 520.4 c 0
 197.75 539.2 185 548.8 167.75 548.8 c 0
 150.5 548.8 137.75 539.2 128.75 520.4 c 0
 120.5 503.2 117.125 478.8 117.125 454 c 0
280.5 454 m 0
 280.5 413.5 272.8 374.5 255.2 347.5 c 0
 234.85 316.5 202.4 300 167.75 300 c 0
 133.1 300 100.65 316.5 80.2998 347.5 c 0
 62.7002 374.5 55 413.5 55 454 c 0
 55 494.5 62.7002 533.5 80.2998 560.5 c 0
 100.65 591.5 133.1 608 167.75 608 c 0
 202.4 608 234.85 591.5 255.2 560.5 c 0
 272.8 533.5 280.5 494.5 280.5 454 c 0
146.536 1.84473 m 2
 140.382 -7.27246 135.932 -10.3027 130.378 -11.3809 c 0
 124.826 -12.46 119.562 -11.3223 110.441 -5.17188 c 2
 95.5186 4.89453 l 2
 86.4014 11.0459 83.373 15.499 82.2939 21.0518 c 0
 81.2148 26.6045 82.3496 31.8711 88.5029 40.9893 c 2
 465.465 599.655 l 2
 471.617 608.772 476.069 611.804 481.622 612.881 c 0
 487.175 613.959 492.439 612.823 501.56 606.671 c 2
 516.483 596.606 l 2
 525.6 590.454 528.628 586 529.707 580.448 c 0
 530.787 574.895 529.65 569.631 523.498 560.511 c 2
 146.536 1.84473 l 2
EndSplineSet
EndChar

StartChar: quotesingle
Encoding: 39 39 5
Width: 244
VWidth: 1000
Flags: MW
LayerCount: 2
Fore
SplineSet
118.541 617 m 2
 127.578 637.833 138.041 646 159.541 646 c 2
 192.541 646 l 2
 214.541 646 220.949 635.499 208.541 613 c 2
 125.541 462.5 l 2
 115.896 445.011 108.541 440 94.041 440 c 2
 68.041 440 l 2
 50.541 440 46.2979 450.455 53.041 466 c 2
 118.541 617 l 2
EndSplineSet
EndChar

StartChar: parenleft
Encoding: 40 40 6
Width: 303
VWidth: 1000
Flags: MW
LayerCount: 2
Back
SplineSet
50 300 m 0
 50 416.5 91 554 190 659 c 8
 196.359 665.745 202.73 668 212 668 c 2
 243 668 l 6
 255 668 257.5 661 248 649 c 4
 171.273 552.081 125 435.5 125 300 c 4
 125 164.5 171.273 47.9189 248 -49 c 4
 257.5 -61 255 -68 243 -68 c 6
 212 -68 l 2
 202.73 -68 196.232 -65.8623 190 -59 c 16
 91 50 50 183.5 50 300 c 0
EndSplineSet
Fore
SplineSet
50 300 m 0
 50 416.5 91 554 190 659 c 8
 196.359 665.745 202.73 668 212 668 c 2
 248 668 l 2
 260 668 262.5 661 253 649 c 0
 176.273 552.081 130 435.5 130 300 c 0
 130 164.5 176.273 47.9189 253 -49 c 0
 262.5 -61 260 -68 248 -68 c 2
 212 -68 l 2
 202.73 -68 196.232 -65.8623 190 -59 c 16
 91 50 50 183.5 50 300 c 0
EndSplineSet
EndChar

StartChar: parenright
Encoding: 41 41 7
Width: 303
VWidth: 1000
Flags: MW
LayerCount: 2
Back
SplineSet
248.806 300 m 0
 248.806 183.5 207.807 50 108.806 -59 c 8
 102.573 -65.8623 96.0752 -68 86.8057 -68 c 2
 55.8057 -68 l 2
 43.8057 -68 41.3057 -61 50.8057 -49 c 0
 127.533 47.9189 173.807 164.5 173.806 300 c 0
 173.806 435.5 127.533 552.081 50.8057 649 c 0
 41.3057 661 43.8057 668 55.8057 668 c 2
 86.8057 668 l 2
 96.0752 668 102.446 665.745 108.806 659 c 16
 207.806 554 248.807 416.5 248.806 300 c 0
EndSplineSet
Fore
SplineSet
253.806 300 m 0
 253.806 183.5 212.807 50 113.806 -59 c 8
 107.573 -65.8623 101.075 -68 91.8057 -68 c 2
 55.8057 -68 l 2
 43.8057 -68 41.3057 -61 50.8057 -49 c 0
 127.533 47.9189 173.807 164.5 173.806 300 c 0
 173.806 435.5 127.533 552.081 50.8057 649 c 0
 41.3057 661 43.8057 668 55.8057 668 c 2
 91.8057 668 l 2
 101.075 668 107.446 665.745 113.806 659 c 16
 212.806 554 253.807 416.5 253.806 300 c 0
EndSplineSet
EndChar

StartChar: asterisk
Encoding: 42 42 8
Width: 537
VWidth: 1000
Flags: HMW
LayerCount: 2
Back
SplineSet
410.311 477.241 m 6
 214.311 137.759 l 6
 208.811 128.232 204.579 124.902 199.114 123.438 c 4
 193.65 121.975 188.32 122.742 178.794 128.242 c 6
 163.206 137.242 l 6
 153.68 142.742 150.35 146.975 148.886 152.438 c 4
 147.421 157.902 148.189 163.232 153.689 172.759 c 6
 349.689 512.241 l 6
 355.189 521.768 359.421 525.098 364.885 526.562 c 4
 370.35 528.025 375.68 527.258 385.206 521.758 c 6
 400.794 512.758 l 6
 410.32 507.258 413.65 503.025 415.114 497.562 c 4
 416.579 492.098 415.811 486.768 410.311 477.241 c 6
349.689 137.759 m 6
 153.689 477.241 l 6
 148.189 486.768 147.421 492.098 148.886 497.562 c 4
 150.35 503.025 153.68 507.258 163.206 512.758 c 6
 178.794 521.758 l 6
 188.32 527.258 193.65 528.025 199.114 526.562 c 4
 204.579 525.098 208.811 521.768 214.311 512.241 c 6
 410.311 172.759 l 6
 415.811 163.232 416.579 157.902 415.114 152.438 c 4
 413.65 146.975 410.32 142.742 400.794 137.242 c 6
 385.206 128.242 l 6
 375.68 122.742 370.35 121.975 364.885 123.438 c 4
 359.421 124.902 355.189 128.232 349.689 137.759 c 6
478 290 m 6
 86 290 l 6
 75 290 70 292 66 296 c 4
 62 300 60 305 60 316 c 6
 60 334 l 6
 60 345 62 350 66 354 c 4
 70 358 75 360 86 360 c 6
 478 360 l 6
 489 360 494 358 498 354 c 4
 502 350 504 345 504 334 c 6
 504 316 l 6
 504 305 502 300 498 296 c 4
 494 292 489 290 478 290 c 6
EndSplineSet
Fore
SplineSet
195.989 292.1 m 2
 84.4395 292.1 l 2
 74.0996 292.1 69.3994 293.98 65.6396 297.74 c 0
 61.8799 301.5 60 306.2 60 316.54 c 2
 60 333.46 l 2
 60 343.8 61.8799 348.5 65.6396 352.26 c 0
 69.3994 356.02 74.0996 357.9 84.4395 357.9 c 2
 195.774 357.9 l 2
 206.327 357.9 208.863 362.799 203.771 371.618 c 2
 148.066 468.1 l 2
 142.896 477.06 142.177 482.068 143.558 487.208 c 0
 144.923 492.35 148.066 496.315 157.011 501.485 c 2
 171.669 509.945 l 2
 180.613 515.115 185.637 515.85 190.762 514.469 c 0
 195.903 513.088 199.883 509.96 205.053 501 c 2
 261.072 403.976 l 2
 265.84 395.718 271.399 395.51 276.189 403.807 c 2
 332.307 501 l 2
 337.477 509.96 341.456 513.088 346.598 514.469 c 0
 351.723 515.85 356.746 515.115 365.69 509.945 c 2
 380.349 501.485 l 2
 389.293 496.315 392.437 492.35 393.802 487.208 c 0
 395.183 482.068 394.463 477.06 389.293 468.1 c 2
 332.744 370.157 l 2
 327.989 361.921 330.72 357.9 339.705 357.9 c 2
 452.92 357.9 l 2
 463.26 357.9 467.96 356.02 471.72 352.26 c 0
 475.479 348.5 477.359 343.8 477.359 333.46 c 2
 477.359 316.54 l 2
 477.359 306.2 475.479 301.5 471.72 297.74 c 0
 467.96 293.98 463.26 292.1 452.92 292.1 c 2
 339.49 292.1 l 2
 330.093 292.1 327.989 288.079 332.596 280.099 c 2
 389.293 181.9 l 2
 394.463 172.94 395.183 167.932 393.802 162.792 c 0
 392.437 157.65 389.293 153.685 380.349 148.515 c 2
 365.69 140.055 l 2
 356.746 134.885 351.723 134.15 346.598 135.531 c 0
 341.456 136.912 337.477 140.04 332.307 149 c 2
 275.934 246.637 l 2
 271.399 254.49 265.768 254.156 261.332 246.473 c 2
 205.053 149 l 2
 199.883 140.04 195.903 136.912 190.762 135.531 c 0
 185.637 134.15 180.613 134.885 171.669 140.055 c 2
 157.011 148.515 l 2
 148.066 153.685 144.923 157.65 143.558 162.792 c 0
 142.177 167.932 142.896 172.94 148.066 181.9 c 2
 203.923 278.644 l 2
 208.77 287.039 206.327 292.1 195.989 292.1 c 2
EndSplineSet
EndChar

StartChar: plus
Encoding: 43 43 9
Width: 477
VWidth: 1000
Flags: HMW
LayerCount: 2
Back
SplineSet
361 267 m 2
 372 267 377 269 381 273 c 0
 385 277 387 282 387 293 c 2
 387 311 l 2
 387 322 385 327 381 331 c 0
 377 335 372 337 361 337 c 2
 76 337 l 2
 65 337 60 335 56 331 c 0
 52 327 50 322 50 311 c 2
 50 293 l 2
 50 282 52 277 56 273 c 0
 60 269 65 267 76 267 c 2
 361 267 l 2
254 445 m 2
 254 456 252 461 248 465 c 0
 244 469 239 471 228 471 c 2
 210 471 l 2
 199 471 194 469 190 465 c 0
 186 461 184 456 184 445 c 2
 184 160 l 2
 184 149 186 144 190 140 c 0
 194 136 199 134 210 134 c 2
 228 134 l 2
 239 134 244 136 248 140 c 0
 252 144 254 149 254 160 c 2
 254 445 l 2
EndSplineSet
Fore
SplineSet
194 337 m 2
 202 337 204 339 204 347 c 2
 204 455 l 2
 204 466 206 471 210 475 c 0
 214 479 219 481 230 481 c 2
 248 481 l 2
 259 481 264 479 268 475 c 0
 272 471 274 466 274 455 c 2
 274 347 l 2
 274 339 276 337 284 337 c 2
 391 337 l 2
 402 337 407 335 411 331 c 0
 415 327 417 322 417 311 c 2
 417 293 l 2
 417 282 415 277 411 273 c 0
 407 269 402 267 391 267 c 2
 284 267 l 2
 276 267 274 265 274 257 c 2
 274 150 l 6
 274 139 272 134 268 130 c 4
 264 126 259 124 248 124 c 6
 230 124 l 6
 219 124 214 126 210 130 c 4
 206 134 204 139 204 150 c 6
 204 257 l 2
 204 265 202 267 194 267 c 2
 86 267 l 2
 75 267 70 269 66 273 c 0
 62 277 60 282 60 293 c 2
 60 311 l 2
 60 322 62 327 66 331 c 0
 70 335 75 337 86 337 c 2
 194 337 l 2
EndSplineSet
Substitution2: "MiscSAlt" uniFB29
EndChar

StartChar: comma
Encoding: 44 44 10
Width: 264
VWidth: 1000
Flags: MW
LayerCount: 2
Back
SplineSet
120 0 m 18
 120 -66.2402 77.5 -109 20 -120 c 1
 20 -80 l 1
 52 -74.5 80 -48.5 80 0 c 1
 20 0 l 9
 20 70 l 25
 120 70 l 25
 120 0 l 18
EndSplineSet
Fore
SplineSet
118.541 81 m 2
 127.578 101.833 138.041 110 159.541 110 c 2
 192.541 110 l 2
 214.541 110 220.949 99.499 208.541 77 c 2
 125.541 -73.5 l 2
 115.896 -90.9893 108.541 -96 94.041 -96 c 2
 68.041 -96 l 2
 50.541 -96 46.2979 -85.5449 53.041 -70 c 2
 118.541 81 l 2
EndSplineSet
EndChar

StartChar: hyphen
Encoding: 45 45 11
Width: 457
VWidth: 1000
Flags: MW
LayerCount: 2
Back
SplineSet
316 282 m 6
 81 282 l 2
 70 282 65 284 61 288 c 0
 57 292 55 297 55 308 c 2
 55 326 l 2
 55 337 57 342 61 346 c 0
 65 350 70 352 81 352 c 2
 316 352 l 6
 327 352 332 350 336 346 c 4
 340 342 342 337 342 326 c 6
 342 308 l 6
 342 297 340 292 336 288 c 4
 332 284 327 282 316 282 c 6
EndSplineSet
Fore
SplineSet
371 282 m 2
 86 282 l 2
 75 282 70 284 66 288 c 0
 62 292 60 297 60 308 c 2
 60 326 l 2
 60 337 62 342 66 346 c 0
 70 350 75 352 86 352 c 2
 371 352 l 2
 382 352 387 350 391 346 c 0
 395 342 397 337 397 326 c 2
 397 308 l 2
 397 297 395 292 391 288 c 0
 387 284 382 282 371 282 c 2
EndSplineSet
EndChar

StartChar: period
Encoding: 46 46 12
Width: 210
VWidth: 1000
Flags: HMW
LayerCount: 2
Fore
SplineSet
140.014 53 m 0
 140.014 32.667 138.779 20.4805 133.806 10.502 c 0
 125.527 -6.10645 110.951 -11.002 95.0068 -11.002 c 0
 78.1895 -11.001 64.3477 -5.8291 56.208 10.502 c 0
 51.2344 20.4805 50 32.667 50 53 c 0
 50 73.7568 51.2344 85.5195 56.208 95.498 c 0
 64.3477 111.829 78.1895 117.001 95.0068 117.002 c 0
 110.951 117.002 125.527 112.106 133.806 95.498 c 0
 138.779 85.5195 140.014 74.1035 140.014 53 c 0
EndSplineSet
EndChar

StartChar: slash
Encoding: 47 47 13
Width: 375
VWidth: 1000
Flags: MW
LayerCount: 2
Back
SplineSet
89.4473 -27.0303 m 6
 85.8662 -37.4307 82.3477 -41.5078 77.2627 -43.9873 c 4
 72.1787 -46.4668 66.7998 -46.7305 56.3994 -43.1494 c 6
 39.3799 -37.2891 l 6
 28.9795 -33.707 24.9023 -30.1885 22.4229 -25.1045 c 4
 19.9434 -20.0195 19.6797 -14.6416 23.2607 -4.24023 c 6
 290.553 772.03 l 6
 294.134 782.431 297.652 786.508 302.737 788.987 c 4
 307.821 791.467 313.2 791.73 323.601 788.149 c 6
 340.62 782.289 l 6
 351.021 778.707 355.098 775.188 357.577 770.104 c 4
 360.057 765.02 360.32 759.642 356.739 749.24 c 6
 89.4473 -27.0303 l 6
EndSplineSet
Fore
SplineSet
103.883 -51.043 m 2
 100.302 -61.4434 96.7832 -65.5205 91.6982 -68 c 0
 86.6143 -70.4795 81.2363 -70.7432 70.835 -67.1621 c 2
 53.8154 -61.3018 l 2
 43.415 -57.7197 39.3379 -54.2012 36.8584 -49.1172 c 0
 34.3789 -44.0322 34.1152 -38.6543 37.6963 -28.2529 c 2
 271.514 651.043 l 2
 275.095 661.443 278.613 665.521 283.698 668 c 0
 288.782 670.479 294.162 670.743 304.562 667.162 c 2
 321.581 661.302 l 2
 331.981 657.72 336.059 654.201 338.538 649.117 c 0
 341.018 644.032 341.281 638.654 337.7 628.253 c 2
 103.883 -51.043 l 2
EndSplineSet
EndChar

StartChar: zero
Encoding: 48 48 14
Width: 520
VWidth: 1000
Flags: MW
LayerCount: 2
Back
SplineSet
107 300 m 0
 107 169 168 63 242 63 c 0
 315 63 375 169 375 300 c 0
 375 363 368 425 345 467 c 0
 321 513 294 537 242 537 c 0
 196 537 162 513 138 466 c 0
 116 423 107 362 107 300 c 0
37 300 m 0
 37 381 51 459 83 513 c 0
 120 575 179 608 242 608 c 0
 320 608 366 570 400 512 c 0
 433 456 443 383 443 300 c 0
 443 219 433 141 400 86 c 0
 363 25 299 -7 240 -7 c 0
 182 -7 117 26 80 85 c 0
 46 140 37 218 37 300 c 0
EndSplineSet
Fore
SplineSet
125 300 m 0
 125 238 134 177 156 134 c 0
 180 87 214 63 260 63 c 0
 306 63 340 87 364 134 c 0
 386 177 395 238 395 300 c 0
 395 362 386 423 364 466 c 0
 340 513 306 537 260 537 c 0
 214 537 180 513 156 466 c 0
 134 423 125 362 125 300 c 0
465 300 m 0
 465 219 451 141 419 87 c 0
 382 25 323 -8 260 -8 c 0
 197 -8 138 25 101 87 c 0
 69 141 55 219 55 300 c 0
 55 381 69 459 101 513 c 0
 138 575 197 608 260 608 c 0
 323 608 382 575 419 513 c 0
 451 459 465 381 465 300 c 0
EndSplineSet
EndChar

StartChar: one
Encoding: 49 49 15
Width: 334
VWidth: 1000
Flags: HMW
LayerCount: 2
Back
SplineSet
165 424 m 2
 157.358 416.088 152.446 413.88 146.791 413.781 c 0
 141.135 413.683 136.148 415.718 128.236 423.358 c 2
 115.288 435.862 l 2
 107.375 443.504 105.168 448.416 105.069 454.071 c 0
 104.971 459.728 107.005 464.714 114.646 472.626 c 2
 296.646 661.094 l 2
 304.288 669.006 309.2 671.214 314.855 671.312 c 0
 320.512 671.411 325.498 669.376 333.41 661.735 c 2
 346.358 649.231 l 2
 354.271 641.59 356.479 636.678 356.577 631.022 c 0
 356.676 625.366 354.642 620.38 347 612.468 c 2
 165 424 l 2
299 26 m 2
 299 15 297 10 293 6 c 0
 289 2 284 0 273 0 c 2
 255 0 l 2
 244 0 239 2 235 6 c 0
 231 10 229 15 229 26 c 2
 229 574 l 2
 229 585 231 590 235 594 c 0
 239 598 244 600 255 600 c 2
 273 600 l 2
 284 600 289 598 293 594 c 0
 297 590 299 585 299 574 c 2
 299 26 l 2
EndSplineSet
Fore
SplineSet
144 475 m 2
 95 424 l 2
 87 416 82 414 77 414 c 0
 71 414 66 416 58 423 c 2
 45 436 l 2
 37 444 35 448 35 454 c 0
 35 460 37 465 45 473 c 2
 158 590 l 2
 165 597 172 600 185 600 c 2
 203 600 l 2
 214 600 219 598 223 594 c 0
 227 590 229 585 229 574 c 2
 229 26 l 2
 229 15 227 10 223 6 c 0
 219 2 214 0 203 0 c 2
 185 0 l 2
 174 0 169 2 165 6 c 0
 161 10 159 15 159 26 c 2
 159 470 l 2
 159 475 157.244 477.667 154.182 478.454 c 0
 151 479.272 148 479 144 475 c 2
EndSplineSet
EndChar

StartChar: two
Encoding: 50 50 16
Width: 503
VWidth: 1000
Flags: MW
LayerCount: 2
Back
SplineSet
159.531 80 m 0
 157.758 74.7363 161.477 70 169.477 70 c 2
 417.477 70 l 2
 428.477 70 433.477 68 437.477 64 c 0
 441.477 60 443.477 55 443.477 44 c 2
 443.477 26 l 2
 443.477 15 441.477 10 437.477 6 c 0
 433.477 2 428.477 0 417.477 0 c 2
 87.4746 0 l 2
 76.4746 0 71.4746 2 67.4746 6 c 0
 63.4746 10 61.5 15 61.5 26 c 0
 61.5 39.8281 61.1738 53.5283 65.2373 62.5 c 0
 84.4893 105 115.971 143.5 150.146 180 c 8
 199.613 232.831 247.868 270.5 286.851 305.5 c 0
 334.932 348.672 373.507 379.788 373.507 441.336 c 0
 373.507 502.884 322.733 538.5 254.813 538.5 c 0
 186.886 538.5 144.825 497.667 129.581 445.5 c 0
 126.601 435.311 123.401 430.562 118.503 427.734 c 0
 113.604 424.906 108.257 424.269 97.6318 427.115 c 2
 80.2451 431.774 l 2
 69.6191 434.621 65.3076 437.848 62.4795 442.746 c 0
 59.6504 447.646 58.9551 453.5 62 463.617 c 0
 88.6758 552.266 147.63 607 256.243 607 c 0
 314.478 607 362.587 587.12 394.976 557.5 c 0
 425.043 530 443.508 490.097 443.508 447.003 c 0
 443.508 354.819 392.719 311.868 313.937 239.5 c 0
 267.669 197 173.006 120 159.531 80 c 0
159.477 80 m 0
 157.829 74.7367 161.477 70 169.477 70 c 2
 397.477 70 l 2
 408.477 70 413.477 68 417.477 64 c 0
 421.477 60 423.477 55 423.477 44 c 2
 423.477 26 l 2
 423.477 15 421.477 10 417.477 6 c 0
 413.477 2 408.477 0 397.477 0 c 2
 87.4746 0 l 2
 76.4746 0 71.4746 2 67.4746 6 c 0
 63.4746 10 61.4746 15 61.4746 26 c 0
 61.4746 39.8281 61.1694 53.5282 64.9746 62.5 c 0
 83 105 112.477 143.5 144.477 180 c 8
 190.564 232.569 235.977 270.5 272.477 305.5 c 0
 317.497 348.672 353.477 379.788 353.477 441.336 c 0
 353.477 502.884 306.853 538.5 244.477 538.5 c 0
 182.101 538.5 143.477 497.667 129.477 445.5 c 0
 126.74 435.311 123.401 430.562 118.503 427.734 c 0
 113.604 424.906 108.257 424.269 97.6318 427.115 c 2
 80.2451 431.774 l 2
 69.6191 434.621 65.3076 437.848 62.4795 442.746 c 0
 59.6504 447.646 58.9746 453.5 61.8604 463.617 c 0
 87.1455 552.266 143.026 607 245.977 607 c 0
 301.176 607 346.777 587.12 377.477 557.5 c 0
 405.977 530 423.479 490.097 423.479 447.003 c 0
 423.479 354.819 376.194 311.868 302.977 239.5 c 0
 259.977 197 172 120 159.477 80 c 0
EndSplineSet
Fore
SplineSet
164.531 80 m 0
 162.758 74.7363 166.477 70 174.477 70 c 2
 422.477 70 l 2
 433.477 70 438.477 68 442.477 64 c 0
 446.477 60 448.477 55 448.477 44 c 2
 448.477 26 l 2
 448.477 15 446.477 10 442.477 6 c 0
 438.477 2 433.477 0 422.477 0 c 2
 92.4746 0 l 2
 81.4746 0 76.4746 2 72.4746 6 c 0
 68.4746 10 66.5 15 66.5 26 c 0
 66.5 39.8281 66.1738 53.5283 70.2373 62.5 c 0
 89.4893 105 120.971 143.5 155.146 180 c 8
 201.88 229.914 245.076 263.75 282.5 300.5 c 0
 328.658 345.831 372.446 371.853 372.446 436.478 c 0
 372.446 501.103 323.703 538.5 258.5 538.5 c 0
 193.29 538.5 149.825 497.667 134.581 445.5 c 0
 131.601 435.311 128.401 430.562 123.503 427.734 c 0
 118.604 424.906 113.257 424.269 102.632 427.115 c 2
 85.2451 431.774 l 2
 74.6191 434.621 70.3076 437.848 67.4795 442.746 c 0
 64.6504 447.646 63.9551 453.5 67 463.617 c 0
 93.6758 552.266 154.646 607 260 607 c 0
 316.488 607 363.154 586.523 394.571 556.015 c 0
 423.736 527.689 441.647 486.59 441.647 442.202 c 0
 441.647 347.253 400.282 317.368 321.5 245 c 0
 275.232 202.5 178.006 120 164.531 80 c 0
EndSplineSet
EndChar

StartChar: three
Encoding: 51 51 17
Width: 533
VWidth: 1000
Flags: MW
LayerCount: 2
Back
SplineSet
253.666 323 m 6
 232.676 293.023 l 6
 226.366 284.013 221.86 281.064 216.289 280.082 c 0
 210.719 279.1 205.476 280.329 196.465 286.639 c 2
 181.721 296.963 l 6
 172.71 303.272 169.761 307.778 168.778 313.35 c 4
 167.797 318.921 169.026 324.163 175.335 333.174 c 6
 305.234 518.668 l 2
 307.305 521.625 307.385 524.683 306.233 526.667 c 0
 304.746 529.231 302.438 530 298.733 530 c 2
 109.9 530 l 2
 98.9004 530 93.9004 532 89.9004 536 c 0
 85.9004 540 83.9004 545 83.9004 556 c 2
 83.9004 574 l 2
 83.9004 585 85.9004 590 89.9004 594 c 0
 93.9004 598 98.9004 600 109.9 600 c 2
 401.898 600 l 2
 417.576 600 423.069 595.395 425.9 589.4 c 0
 429.301 582.2 427.789 571.666 421.3 562.399 c 2
 316.9 413.664 l 2
 309.981 403.783 313.338 394.559 326.865 391.164 c 0
 401.9 372.333 473.9 311 473.9 210 c 0
 473.9 145.214 451.814 92.0156 416.4 56.125 c 0
 380.067 19.3027 327.028 -5 248.4 -5 c 0
 172.936 -5 104.956 18.7354 59.9004 64 c 0
 52.1211 71.7783 50 76.7275 50 82.3848 c 0
 50.001 88.041 52.1221 92.9902 59.8994 100.77 c 2
 72.6279 113.497 l 2
 80.4062 121.275 85.3555 123.396 91.0127 123.396 c 0
 96.6699 123.396 101.177 120.806 109.398 113.498 c 0
 145.4 81.5 187.4 63 247.567 63 c 0
 329.734 63 403.9 107.333 403.9 207 c 0
 403.9 280.5 351.064 323.652 281.4 333.514 c 0
 269.528 335.194 259.97 332.002 253.666 323 c 6
EndSplineSet
Fore
SplineSet
258.666 323 m 6
 237.676 293.023 l 6
 231.366 284.013 226.86 281.064 221.289 280.082 c 4
 215.719 279.1 210.476 280.329 201.465 286.639 c 6
 186.721 296.963 l 6
 177.71 303.272 174.761 307.778 173.778 313.35 c 4
 172.797 318.921 174.026 324.163 180.335 333.174 c 6
 310.234 518.668 l 6
 312.305 521.625 312.385 524.683 311.233 526.667 c 4
 309.746 529.231 307.438 530 303.733 530 c 6
 114.9 530 l 6
 103.9 530 98.9004 532 94.9004 536 c 4
 90.9004 540 88.9004 545 88.9004 556 c 6
 88.9004 574 l 6
 88.9004 585 90.9004 590 94.9004 594 c 4
 98.9004 598 103.9 600 114.9 600 c 6
 406.898 600 l 6
 422.576 600 428.069 595.395 430.9 589.4 c 4
 434.301 582.2 432.789 571.666 426.3 562.399 c 6
 321.9 413.664 l 6
 312.334 400.035 320.13 392.932 331.333 389.991 c 4
 404.733 369.88 475.9 308.993 475.9 210 c 4
 475.9 145.214 451.654 92.3604 415.4 57.125 c 4
 370 13 313 -5 242 -5 c 4
 166.536 -5 104.956 18.7354 59.9004 64 c 4
 52.1211 71.7783 50 76.7275 50 82.3848 c 4
 50.001 88.041 52.1221 92.9902 59.8994 100.77 c 6
 72.6279 113.497 l 6
 80.4062 121.275 85.3555 123.396 91.0127 123.396 c 4
 96.6699 123.396 101.177 120.806 109.398 113.498 c 4
 145.4 81.5 187.4 63 247.567 63 c 4
 335.5 63 405.9 114 405.9 207 c 4
 405.9 278.755 353.544 321.586 286.333 332.755 c 4
 272.959 334.977 265.589 332.888 258.666 323 c 6
EndSplineSet
EndChar

StartChar: four
Encoding: 52 52 18
Width: 515
VWidth: 1000
Flags: MW
LayerCount: 2
Back
SplineSet
175.5 251 m 8
 172.652 246.276 177.5 241 185.5 241 c 2
 349 241 l 2
 357 241 359 243 359 251 c 2
 359 520 l 2
 359 528 355 530 349 530 c 0
 319.5 530 297.781 517.725 278.5 493.5 c 16
 249.731 457.354 232.5 403.5 218 350.5 c 0
 207.925 313.674 192.266 278.807 175.5 251 c 8
120 290.5 m 16
 151 347 155.358 413.733 189 483 c 0
 204.618 515.156 226.501 545.898 260 570 c 8
 306.256 603.28 395.5 600 403 600 c 0
 413 600 419 598 423 594 c 0
 427 590 429 585 429 574 c 2
 429 251 l 2
 429 243 431 241 439 241 c 2
 486 241 l 2
 497 241 502 239 506 235 c 0
 510 231 512 226 512 215 c 2
 512 197 l 2
 512 186 510 181 506 177 c 0
 502 173 497 171 486 171 c 2
 439 171 l 2
 431 171 429 169 429 161 c 2
 429 26 l 2
 429 15 427 10 423 6 c 0
 419 2 414 0 403 0 c 2
 385 0 l 2
 374 0 369 2 365 6 c 0
 361 10 359 15 359 26 c 2
 359 161 l 2
 359 169 357 171 349 171 c 2
 93 171 l 2
 82 171 77 173 73 177 c 0
 69 181 67 186 67 197 c 2
 67 216 l 2
 67 227 73.4775 234.813 82.5 242.5 c 0
 96 254 108.573 269.673 120 290.5 c 16
EndSplineSet
Fore
SplineSet
146 254.5 m 0
 141.352 246.242 145.5 241 153.5 241 c 2
 317 241 l 2
 325 241 327 243 327 251 c 2
 327 524 l 2
 327 532 323 534 317 534 c 0
 287.5 534 265.894 520.867 246.5 496.5 c 16
 217.731 460.354 200.5 405.5 186 352.5 c 0
 175.925 315.674 161.667 282.333 146 254.5 c 0
88 291.5 m 16
 119 348 123.358 416.733 157 486 c 0
 172.618 518.156 194.501 549.898 228 574 c 0
 263.952 599.867 311 605 345 605 c 0
 363 605 383.219 605.781 391 598 c 0
 395 594 397 589 397 578 c 2
 397 251 l 2
 397 243 399 241 407 241 c 2
 454 241 l 2
 465 241 470 239 474 235 c 0
 478 231 480 226 480 215 c 2
 480 197 l 2
 480 186 478 181 474 177 c 0
 470 173 465 171 454 171 c 2
 407 171 l 2
 399 171 397 169 397 161 c 2
 397 26 l 2
 397 15 395 10 391 6 c 0
 387 2 382 0 371 0 c 2
 353 0 l 2
 342 0 337 2 333 6 c 0
 329 10 327 15 327 26 c 2
 327 161 l 2
 327 169 325 171 317 171 c 2
 61 171 l 2
 50 171 45 173 41 177 c 0
 37 181 35 186 35 197 c 2
 35 216 l 2
 35 227 41.4775 234.813 50.5 242.5 c 0
 64 254 76.4248 270.402 88 291.5 c 16
EndSplineSet
EndChar

StartChar: five
Encoding: 53 53 19
Width: 505
VWidth: 1000
Flags: MW
LayerCount: 2
Back
SplineSet
115.442 259 m 2
 104.004 261.517 l 2
 85.6758 265.079 79.4824 271.669 83.4434 292 c 2
 139.692 580.5 l 2
 143.08 597.87 151.71 600 165.442 600 c 2
 378.442 600 l 2
 398.131 600 404.442 592.417 404.442 574 c 2
 404.442 556 l 2
 404.442 536.312 396.859 530 378.442 530 c 2
 223.441 530 l 2
 207.733 530 201.032 525.357 198.442 515 c 1
 174.442 392 l 2
 173.011 384.784 179.35 381.596 183.942 383.5 c 16
 204.442 392 226.442 395 255.442 395 c 0
 297.123 395 331.964 385.259 359.942 367.724 c 0
 416.942 332 445.442 281.816 445.442 192.5 c 0
 445.442 82.376 367.442 -7 239.442 -7 c 0
 155.442 -7 97.5059 32.6064 57.4434 81 c 8
 48.2988 92.0459 45.6748 105.065 60.6475 117.63 c 2
 74.4355 129.2 l 2
 90.582 142.747 101.846 136.979 111.065 125.995 c 16
 140.442 91 184.442 63 245.442 63 c 0
 331.086 63 375.609 126.883 375.609 203.697 c 0
 375.609 280.729 324.648 329 254.942 329 c 0
 206.442 329 168.775 314.667 153.111 281.666 c 0
 144.992 264.562 136.274 254.417 115.442 259 c 2
EndSplineSet
Fore
SplineSet
110.442 259 m 2
 99.0039 261.517 l 2
 80.6758 265.079 74.4824 271.669 78.4434 292 c 2
 134.692 580.5 l 2
 138.08 597.87 146.71 600 160.442 600 c 2
 383.442 600 l 2
 403.131 600 409.442 592.417 409.442 574 c 2
 409.442 556 l 2
 409.442 536.312 401.859 530 383.442 530 c 2
 218.441 530 l 2
 202.733 530 195.416 525.114 193.442 515 c 2
 169.442 392 l 2
 168.011 384.784 174.35 381.596 178.942 383.5 c 16
 199.442 392 224.442 395 253.442 395 c 0
 295.123 395 333.964 385.259 361.942 367.724 c 0
 418.942 332 450.442 281.816 450.442 192.5 c 0
 450.442 82.376 372.442 -7 244.442 -7 c 0
 160.442 -7 102.506 32.6064 62.4434 81 c 8
 53.2988 92.0459 50.6748 105.065 65.6475 117.63 c 2
 79.4355 129.2 l 2
 95.582 142.747 106.845 136.979 116.065 125.995 c 16
 145.442 91 189.442 63 250.442 63 c 0
 336.086 63 380.609 126.883 380.609 203.697 c 0
 380.609 280.729 323.648 329 253.942 329 c 0
 205.442 329 163.775 314.667 148.111 281.666 c 0
 139.992 264.562 131.274 254.417 110.442 259 c 2
EndSplineSet
EndChar

StartChar: six
Encoding: 54 54 20
Width: 519
VWidth: 1000
Flags: MW
LayerCount: 2
Back
SplineSet
123.509 192.072 m 0
 123.509 114.18 175.961 62.252 258.817 62.252 c 0
 335.5 62.252 388.808 113.2 388.808 194.101 c 0
 388.808 227.075 380.543 259.385 360.377 282.638 c 0
 333.694 313.467 299 328.575 257.636 328.575 c 0
 213.239 328.575 179.95 311.109 156.081 286.151 c 0
 146.693 276.354 123.509 248.521 123.509 192.072 c 0
167.617 536.053 m 0
 229.142 584.022 299.768 603.566 384.327 605.499 c 0
 403.338 605.935 410.793 599.749 412.077 581.378 c 2
 413.333 563.421 l 2
 414.706 543.782 406.177 535.659 389.21 535.671 c 0
 329.602 535.711 261.351 519.915 215.229 484.714 c 8
 167.709 448.446 144 401.5 132 356 c 0
 128.774 343.769 135.931 341.299 143.5 348 c 0
 174 375 218 392.935 266.5 392.935 c 0
 375.5 392.935 457.229 318.115 457.229 194.692 c 0
 457.229 64.3707 368.231 -6.95288 251.647 -6.95288 c 0
 186.427 -6.95288 130.201 22.5887 97.3896 65.207 c 0
 59.4835 114.442 49.0805 164.943 49.0805 240.636 c 0
 49.0805 417.886 118.399 497.678 167.617 536.053 c 0
127.479 192.072 m 4
 127.479 114.18 178.404 62.252 258.847 62.252 c 4
 335.171 62.252 388.808 113.2 388.808 194.101 c 4
 388.808 227.075 380.543 259.385 360.377 282.638 c 4
 333.694 313.467 298.771 328.575 257.7 328.575 c 4
 214.596 328.575 182.277 311.109 159.103 286.151 c 4
 149.989 276.354 127.479 248.521 127.479 192.072 c 4
167.617 536.053 m 0
 229.142 584.022 299.768 603.566 384.327 605.499 c 0
 403.338 605.935 410.793 599.749 412.077 581.378 c 2
 413.333 563.421 l 2
 414.706 543.782 406.177 535.659 389.21 535.671 c 0
 329.602 535.711 261.351 519.915 215.229 484.714 c 8
 173.261 452.684 150.93 410.825 140.25 372.006 c 0
 136.895 359.81 146.703 355.051 155.056 360.745 c 0
 186.95 382.492 221.729 392.935 259.104 392.935 c 0
 378.965 392.935 457.229 318.115 457.229 194.692 c 0
 457.229 64.3707 368.231 -6.95288 251.647 -6.95288 c 0
 186.427 -6.95288 130.201 22.5887 97.3896 65.207 c 0
 59.4835 114.442 49.0805 164.943 49.0805 240.636 c 0
 49.0805 417.886 118.399 497.678 167.617 536.053 c 0
EndSplineSet
Fore
SplineSet
128.509 192.072 m 0
 128.509 114.18 180.961 62.252 263.817 62.252 c 0
 340.5 62.252 393.808 113.2 393.808 194.101 c 0
 393.808 227.075 385.543 259.385 365.377 282.638 c 0
 338.694 313.467 304 328.575 262.636 328.575 c 0
 218.239 328.575 184.95 311.109 161.081 286.151 c 0
 151.693 276.354 128.509 248.521 128.509 192.072 c 0
172.617 536.053 m 0
 234.142 584.021 304.768 603.566 389.327 605.499 c 0
 408.338 605.935 415.793 599.749 417.077 581.378 c 2
 418.333 563.421 l 2
 419.706 543.782 411.177 535.659 394.21 535.671 c 0
 334.602 535.711 266.351 519.915 220.229 484.714 c 8
 174.605 449.894 151 407.5 139 362 c 0
 135.774 349.769 142.359 348.007 150.5 354 c 0
 186.5 380.5 223 392.935 271.5 392.935 c 0
 380.5 392.935 462.229 318.115 462.229 194.692 c 0
 462.229 64.3711 373.231 -6.95312 256.647 -6.95312 c 0
 191.427 -6.95312 135.201 22.5889 102.39 65.207 c 0
 64.4834 114.442 54.0801 164.943 54.0801 240.636 c 0
 54.0801 417.886 123.399 497.678 172.617 536.053 c 0
EndSplineSet
EndChar

StartChar: seven
Encoding: 55 55 21
Width: 450
VWidth: 1000
Flags: HMW
LayerCount: 2
Back
SplineSet
329.5 502 m 4
 339.079 518.681 329.5 530 315 530 c 6
 66 530 l 6
 55 530 50 532 46 536 c 4
 42 540 40 545 40 556 c 6
 40 574 l 6
 40 585 42 590 46 594 c 4
 50 598 55 600 66 600 c 6
 394 600 l 6
 405 600 410 598 414 594 c 4
 418 590 420 585 420 574 c 6
 420 556 l 6
 420 545 413.68 518.724 403 497.5 c 20
 353.747 399.617 298.368 314.885 258.572 218 c 4
 229 146 210 91.5 202 26 c 12
 200.994 17.7646 198.75 10 194.75 6 c 4
 190.75 2 185.75 0 174.75 0 c 6
 158 0 l 6
 147 0 142 2 138 6 c 4
 134 10 131.277 17.8887 132 26 c 20
 145 172 229 327 329.5 502 c 4
EndSplineSet
Fore
SplineSet
337.5 503 m 0
 342.578 521.554 335 530 320.5 530 c 2
 66 530 l 2
 55 530 50 532 46 536 c 0
 42 540 40 545 40 556 c 2
 40 574 l 2
 40 585 42 590 46 594 c 0
 50 598 55 600 66 600 c 2
 394 600 l 2
 405 600 410 598 414 594 c 0
 418 590 420 585 420 574 c 2
 420 556 l 2
 420 538.5 417.497 520.99 411.5 498 c 0
 384.5 394.5 304.91 311.932 258.572 218 c 0
 227 154 210 91.5 202 26 c 8
 200.994 17.7646 198.75 10 194.75 6 c 0
 190.75 2 185.75 0 174.75 0 c 2
 158 0 l 2
 147 0 142 2 138 6 c 0
 134 10 131.258 17.8906 132 26 c 0
 139.5 108 163 183.5 199 257 c 0
 237.627 335.864 311.5 408 337.5 503 c 0
EndSplineSet
EndChar

StartChar: eight
Encoding: 56 56 22
Width: 524
VWidth: 1000
Flags: MW
LayerCount: 2
Back
SplineSet
364.286 334.333 m 0
 422 306.5 464 251.604 464 180 c 0
 464 118 444 74 402 39 c 0
 364 7 312 -7 257 -7 c 0
 202 -7 150 7 112 39 c 0
 70 74 50 118 50 180 c 0
 50 252.196 89.5 308.5 147.243 335 c 0
 153.288 337.774 152.787 340.993 147.301 344.667 c 0
 103.5 374 81 415.72 81 466 c 0
 81 511 103 552 139 577 c 0
 170 598 211 608 255 608 c 4
 299 608 340 598 371 577 c 0
 407 552 429 511 429 466 c 0
 429 415.927 405.5 374 363.227 345 c 0
 357.578 341.125 357.466 337.622 364.286 334.333 c 0
255 369.641 m 0
 314 369.641 359 408.4 359 456.34 c 0
 359 504.28 314 541 255 541 c 0
 196 541 151 504.28 151 456.34 c 0
 151 408.4 196 369.641 255 369.641 c 0
257 302.436 m 0
 183.28 302.436 124.11 252.965 124.11 182.718 c 0
 124.11 105.84 176.649 63 257 63 c 0
 333.972 63 389.89 105.84 389.89 182.718 c 0
 389.89 252.965 330.72 302.436 257 302.436 c 0
EndSplineSet
Fore
SplineSet
369.286 334.333 m 0
 427 306.5 469 251.604 469 180 c 0
 469 118 449 74 407 39 c 0
 369 7 317 -7 262 -7 c 0
 207 -7 155 7 117 39 c 0
 75 74 55 118 55 180 c 0
 55 252.196 94.5 308.5 152.243 335 c 0
 158.288 337.774 157.787 340.993 152.301 344.667 c 0
 108.5 374 86 415.72 86 466 c 0
 86 511 108 552 144 577 c 0
 175 598 216 608 260 608 c 0
 304 608 345 598 376 577 c 0
 412 552 434 511 434 466 c 0
 434 415.927 410.5 374 368.227 345 c 0
 362.578 341.125 362.466 337.622 369.286 334.333 c 0
260 368.784 m 0
 319.59 368.784 365.04 407.931 365.04 456.351 c 0
 365.04 504.77 319.59 541.856 260 541.856 c 0
 200.41 541.856 154.96 504.77 154.96 456.351 c 0
 154.96 407.931 200.41 368.784 260 368.784 c 0
262 303.633 m 0
 187.543 303.633 127.781 253.667 127.781 182.718 c 0
 127.781 105.071 180.846 61.8027 262 61.8027 c 0
 339.742 61.8027 396.219 105.071 396.219 182.718 c 0
 396.219 253.667 336.457 303.633 262 303.633 c 0
EndSplineSet
EndChar

StartChar: nine
Encoding: 57 57 23
Width: 501
VWidth: 1000
Flags: MW
LayerCount: 2
Back
SplineSet
373.348 408.183 m 0
 373.348 487.443 322.025 537.689 245.041 537.689 c 0
 172.667 537.689 121.217 486.597 121.217 405.677 c 0
 121.217 372.755 129.344 340.887 148.302 317.262 c 0
 157.452 305.984 187.333 271.359 245.61 271.359 c 0
 287.604 271.359 319.537 288.705 342.164 313.929 c 0
 366.681 341.555 373.348 379.597 373.348 408.183 c 0
330.054 64.4941 m 0
 270.631 15.5234 201.547 -3.48438 116.489 -6 c 0
 97.4922 -5.66895 90.5986 0.453125 88.9131 18.4854 c 2
 87.2275 36.5166 l 2
 86.5704 55.2233 94.453 64.101 110.893 64.101 c 0
 111.164 64.101 111.437 64.0986 111.712 64.0938 c 0
 171.721 64.0469 240.072 80.0664 283.894 115.308 c 8
 327.601 150.457 350.333 193 361.705 236.251 c 0
 364.843 248.186 354.846 253.904 347.5 247.5 c 0
 316.333 220.333 282.333 207.085 237.001 207.085 c 0
 128.333 207.085 51.841 281.939 51.841 404.962 c 0
 51.841 534.996 137.867 606.942 249.517 606.942 c 0
 305.177 606.942 362.729 582.177 397.804 535.384 c 0
 433.664 486.246 442.555 425.398 442.555 358.203 c 0
 442.555 175.179 372.391 98.6402 330.054 64.4941 c 0
369.579 408.183 m 4
 369.579 487.443 319.751 537.689 245.009 537.689 c 4
 172.809 537.689 121.217 486.597 121.217 405.677 c 4
 121.217 372.755 129.344 340.887 148.302 317.262 c 4
 157.452 305.984 187.206 271.359 245.562 271.359 c 4
 286.332 271.359 317.335 288.705 339.303 313.929 c 4
 363.106 341.555 369.579 379.597 369.579 408.183 c 4
330.054 64.4941 m 0
 270.631 15.5234 201.547 -3.48438 116.489 -6 c 0
 97.4922 -5.66895 90.5986 0.453125 88.9131 18.4854 c 2
 87.2275 36.5166 l 2
 86.5704 55.2233 94.453 64.101 110.893 64.101 c 0
 111.164 64.101 111.437 64.0986 111.712 64.0938 c 0
 171.721 64.0469 240.072 80.0664 283.894 115.308 c 8
 324.562 148.014 345.675 189.24 355.953 228.067 c 0
 359.042 240.015 349.53 245.182 341.748 239.316 c 0
 311.549 217.52 277.933 207.085 241.758 207.085 c 0
 126.043 207.085 51.841 281.939 51.841 404.962 c 0
 51.841 534.996 137.867 606.942 249.517 606.942 c 0
 305.177 606.942 362.729 582.177 397.804 535.384 c 0
 433.664 486.246 442.555 425.398 442.555 358.203 c 0
 442.555 175.179 372.391 98.6402 330.054 64.4941 c 0
EndSplineSet
Fore
SplineSet
378.348 408.183 m 0
 378.348 487.443 327.025 537.689 250.041 537.689 c 0
 177.667 537.689 126.217 486.597 126.217 405.677 c 0
 126.217 372.755 134.344 340.887 153.302 317.262 c 0
 162.452 305.984 192.333 271.359 250.61 271.359 c 0
 292.604 271.359 324.537 288.705 347.164 313.929 c 0
 371.681 341.555 378.348 379.597 378.348 408.183 c 0
335.054 64.4941 m 0
 275.631 15.5234 206.547 -3.48438 121.489 -6 c 0
 102.492 -5.66895 95.5986 0.453125 93.9131 18.4854 c 2
 92.2275 36.5166 l 2
 91.5703 55.2236 99.4531 64.1006 115.893 64.1006 c 0
 116.164 64.1006 116.437 64.0986 116.712 64.0938 c 0
 176.721 64.0469 245.072 80.0664 288.894 115.308 c 8
 330.896 149.087 352.5 188.5 364.5 231 c 0
 367.853 242.876 358.213 247.93 350.295 242.249 c 0
 316.5 218 287.333 207.085 242.001 207.085 c 0
 133.333 207.085 56.8408 281.939 56.8408 404.962 c 0
 56.8408 534.996 142.867 606.942 254.517 606.942 c 0
 310.177 606.942 367.729 582.177 402.804 535.384 c 0
 438.664 486.246 447.555 425.398 447.555 358.203 c 0
 447.555 175.179 377.391 98.6406 335.054 64.4941 c 0
EndSplineSet
EndChar

StartChar: colon
Encoding: 58 58 24
Width: 210
VWidth: 1000
Flags: HMW
LayerCount: 2
Fore
SplineSet
140.014 393.998 m 0
 140.014 373.665 138.779 361.479 133.806 351.5 c 0
 125.527 334.892 110.951 329.996 95.0068 329.996 c 0
 78.1895 329.997 64.3477 335.169 56.208 351.5 c 0
 51.2344 361.479 50 373.665 50 393.998 c 0
 50 414.755 51.2344 426.518 56.208 436.496 c 0
 64.3477 452.827 78.1895 457.999 95.0068 458 c 0
 110.951 458 125.527 453.104 133.806 436.496 c 0
 138.779 426.518 140.014 415.102 140.014 393.998 c 0
140.014 53 m 0
 140.014 32.667 138.779 20.4805 133.806 10.502 c 0
 125.527 -6.10645 110.951 -11.002 95.0068 -11.002 c 0
 78.1895 -11.001 64.3477 -5.8291 56.208 10.502 c 0
 51.2344 20.4805 50 32.667 50 53 c 0
 50 73.7568 51.2344 85.5195 56.208 95.498 c 0
 64.3477 111.829 78.1895 117.001 95.0068 117.002 c 0
 110.951 117.002 125.527 112.106 133.806 95.498 c 0
 138.779 85.5195 140.014 74.1035 140.014 53 c 0
EndSplineSet
EndChar

StartChar: semicolon
Encoding: 59 59 25
Width: 254
VWidth: 1000
Flags: MW
LayerCount: 2
Back
SplineSet
53 81 m 2
 62.0371 101.833 72.5 110 94 110 c 2
 127 110 l 2
 149 110 155.408 99.499 143 77 c 2
 60 -73.5 l 2
 50.3545 -90.9893 43 -96 28.5 -96 c 2
 2.5 -96 l 2
 -15 -96 -19.2432 -85.5449 -12.5 -70 c 2
 53 81 l 2
140.014 393.998 m 0
 140.014 373.665 138.779 361.479 133.806 351.5 c 0
 125.527 334.892 110.951 329.996 95.0068 329.996 c 0
 78.1895 329.997 64.3477 335.169 56.208 351.5 c 0
 51.2344 361.479 50 373.665 50 393.998 c 0
 50 414.755 51.2344 426.518 56.208 436.496 c 0
 64.3477 452.827 78.1895 457.999 95.0068 458 c 0
 110.951 458 125.527 453.104 133.806 436.496 c 0
 138.779 426.518 140.014 415.102 140.014 393.998 c 0
EndSplineSet
Fore
SplineSet
90.0557 81 m 2
 95.4189 101.833 104.441 110 125.941 110 c 2
 158.941 110 l 2
 180.941 110 189.2 99.499 180.761 77 c 2
 124.298 -73.5 l 2
 117.736 -90.9893 111.266 -96 96.7656 -96 c 2
 70.7656 -96 l 2
 53.2656 -96 47.1787 -85.5449 51.1807 -70 c 2
 90.0557 81 l 2
181.774 393.998 m 0
 181.774 373.665 180.539 361.479 175.566 351.5 c 0
 167.287 334.892 152.712 329.996 136.768 329.996 c 0
 119.95 329.997 106.108 335.169 97.9688 351.5 c 0
 92.9951 361.479 91.7607 373.665 91.7607 393.998 c 0
 91.7607 414.755 92.9951 426.518 97.9688 436.496 c 0
 106.108 452.827 119.95 457.999 136.768 458 c 0
 152.712 458 167.287 453.104 175.566 436.496 c 0
 180.539 426.518 181.774 415.102 181.774 393.998 c 0
EndSplineSet
EndChar

StartChar: less
Encoding: 60 60 26
Width: 435
VWidth: 1000
Flags: MW
LayerCount: 2
Fore
SplineSet
165.155 276.966 m 2
 378.668 98.4521 l 2
 387.012 91.2842 389.64 86.6357 390.132 81 c 0
 390.626 75.3643 388.943 70.249 381.873 61.8223 c 2
 370.303 48.0342 l 2
 363.231 39.6074 358.486 37.0625 352.851 36.5693 c 0
 347.215 36.0762 342.1 37.7588 333.673 44.8291 c 2
 55.8428 276.91 l 2
 47.416 283.981 45 290.75 45 298.695 c 0
 45 307 47.5957 313.534 56.0225 320.605 c 2
 333.593 554.739 l 2
 342.02 561.811 347.135 563.493 352.771 563 c 0
 358.406 562.507 363.151 559.962 370.223 551.535 c 2
 381.792 537.747 l 2
 388.863 529.32 390.546 524.204 390.052 518.568 c 0
 389.56 512.934 386.833 508.4 378.588 501.117 c 2
 165.335 320.665 l 2
 157.088 313.381 154.312 307.057 154.312 298.752 c 0
 154.312 290.807 156.81 284.135 165.155 276.966 c 2
EndSplineSet
EndChar

StartChar: equal
Encoding: 61 61 27
Width: 497
VWidth: 1000
Flags: HMW
LayerCount: 2
Fore
SplineSet
401 337 m 6
 96 337 l 2
 85 337 80 339 76 343 c 0
 72 347 70 352 70 363 c 2
 70 381 l 2
 70 392 72 397 76 401 c 0
 80 405 85 407 96 407 c 2
 401 407 l 6
 412 407 417 405 421 401 c 4
 425 397 427 392 427 381 c 6
 427 363 l 6
 427 352 425 347 421 343 c 4
 417 339 412 337 401 337 c 6
401 187 m 6
 96 187 l 2
 85 187 80 189 76 193 c 0
 72 197 70 202 70 213 c 2
 70 231 l 2
 70 242 72 247 76 251 c 0
 80 255 85 257 96 257 c 2
 401 257 l 6
 412 257 417 255 421 251 c 4
 425 247 427 242 427 231 c 6
 427 213 l 6
 427 202 425 197 421 193 c 4
 417 189 412 187 401 187 c 6
EndSplineSet
EndChar

StartChar: greater
Encoding: 62 62 28
Width: 435
VWidth: 1000
Flags: MW
LayerCount: 2
Back
SplineSet
377.383 338.131 m 2
 383.274 333.174 409.25 304.813 409.25 299 c 0
 409.25 293.438 383.37 264.892 377.463 259.952 c 6
 117.136 41.791 l 6
 108.697 34.7344 106.164 29.9746 105.672 24.3389 c 4
 105.178 18.7031 106.86 13.5879 113.931 5.16113 c 6
 125.501 -8.62695 l 6
 132.572 -17.0537 137.317 -19.5986 142.953 -20.0918 c 4
 148.589 -20.585 153.704 -18.9023 162.131 -11.832 c 6
 506.825 276.91 l 6
 515.252 283.981 543.889 290.75 543.889 298.695 c 0
 543.889 307 515.072 313.534 506.646 320.605 c 2
 162.211 610.824 l 2
 153.784 617.896 148.669 619.578 143.033 619.085 c 0
 137.397 618.592 132.652 616.047 125.581 607.62 c 2
 114.012 593.832 l 2
 106.94 585.405 105.258 580.289 105.752 574.653 c 0
 106.244 569.019 108.798 564.284 117.216 557.202 c 2
 377.383 338.131 l 2
EndSplineSet
Fore
SplineSet
270.057 276.966 m 2
 278.402 284.135 280.9 290.807 280.9 298.752 c 0
 280.9 307.057 278.124 313.381 269.877 320.665 c 2
 56.624 501.117 l 2
 48.3789 508.4 45.6523 512.934 45.1602 518.568 c 0
 44.666 524.204 46.3486 529.32 53.4199 537.747 c 2
 64.9893 551.535 l 2
 72.0605 559.962 76.8057 562.507 82.4414 563 c 0
 88.0771 563.493 93.1924 561.811 101.619 554.739 c 2
 379.189 320.605 l 2
 387.616 313.534 390.212 307 390.212 298.695 c 0
 390.212 290.75 387.796 283.981 379.369 276.91 c 2
 101.539 44.8291 l 2
 93.1123 37.7588 87.9971 36.0762 82.3613 36.5693 c 0
 76.7256 37.0625 71.9805 39.6074 64.9092 48.0342 c 2
 53.3389 61.8223 l 2
 46.2686 70.249 44.5859 75.3643 45.0801 81 c 0
 45.5723 86.6357 48.2002 91.2842 56.5439 98.4521 c 2
 270.057 276.966 l 2
EndSplineSet
EndChar

StartChar: question
Encoding: 63 63 29
Width: 431
VWidth: 1000
Flags: MW
LayerCount: 2
Back
SplineSet
204.5 399.5 m 16
 170 347 152 311 152 246 c 8
 152 237.856 154 230 158 226 c 0
 162 222 167 220 178 220 c 2
 196 220 l 2
 207 220 212 222 216 226 c 0
 220 230 222 237.856 222 246 c 16
 222 311 250.5 344 283 393.5 c 8
 310.453 435.313 321 469.5 321 516 c 0
 321 557.704 306.832 592.771 279.5 618 c 0
 253.5 642 218.298 650.5 181 650.5 c 0
 131.199 650.5 89.1826 622.034 66.1572 579 c 0
 52.7627 553.965 50 523.5 50 494 c 0
 50 482 52 478 56 474 c 0
 60 470 65 468 76 468 c 2
 94 468 l 2
 105 468 110 470 114 474 c 0
 118 478 120 482 120 494 c 0
 120 517.5 120.287 539.269 132.262 556.5 c 0
 144.31 573.835 164.038 585 186 585 c 0
 205.077 585 224.364 577.575 236.5 564 c 0
 247.266 551.958 252 534.863 252 517 c 0
 252 466.278 231.645 440.807 204.5 399.5 c 16
232 53 m 4
 232 33 231 20 226 11 c 4
 218 -6 203 -11 187 -11 c 4
 170 -11 156 -6 148 11 c 4
 143 20 142 33 142 53 c 4
 142 74 143 86 148 95 c 4
 156 112 170 117 187 117 c 4
 203 117 218 112 226 95 c 4
 231 86 232 74 232 53 c 4
EndSplineSet
Fore
SplineSet
237.455 399.5 m 8
 267.923 439.817 292.08 466.278 292.08 517 c 0
 292.08 534.863 286.27 551.958 273.057 564 c 0
 258.162 577.575 234.491 585 211.078 585 c 0
 184.124 585 159.911 573.835 145.125 556.5 c 0
 130.429 539.269 130.076 517.5 130.076 494 c 0
 130.076 482 128.08 478 124.08 474 c 0
 120.08 470 115.08 468 104.08 468 c 2
 86.0801 468 l 2
 75.0801 468 70.0801 470 66.0801 474 c 0
 62.0801 478 60 482 60 494 c 0
 60 523.5 63.0693 553.965 77.9502 579 c 0
 103.531 622.034 150.212 650.5 205.541 650.5 c 0
 246.979 650.5 286.088 642 314.974 618 c 0
 345.34 592.771 361.08 557.704 361.08 516 c 0
 361.08 469.5 347.945 433.98 317.38 393.5 c 16
 280.005 344 247.23 311 247.23 246 c 8
 247.23 237.84 245.08 230 241.08 226 c 0
 237.08 222 232.08 220 221.08 220 c 2
 203.08 220 l 2
 192.08 220 187.08 222 183.08 226 c 0
 179.08 230 177.08 237.856 177.08 246 c 16
 177.08 311 197.78 347 237.455 399.5 c 8
257.08 53 m 0
 257.08 33 256.08 20 251.08 11 c 0
 243.08 -6 228.08 -11 212.08 -11 c 0
 195.08 -11 181.08 -6 173.08 11 c 0
 168.08 20 167.08 33 167.08 53 c 0
 167.08 74 168.08 86 173.08 95 c 0
 181.08 112 195.08 117 212.08 117 c 0
 228.08 117 243.08 112 251.08 95 c 0
 256.08 86 257.08 74 257.08 53 c 0
EndSplineSet
EndChar

StartChar: bracketleft
Encoding: 91 91 30
Width: 347
VWidth: 1000
Flags: MW
LayerCount: 2
Fore
SplineSet
65 619.5 m 2
 65 640.2 68 652.8 77.5996 662.4 c 0
 87.2002 672 100.7 675 120.5 675 c 2
 266 675 l 2
 277 675 282 673 286 669 c 0
 290 665 292 660 292 649 c 2
 292 631 l 2
 292 620 290 615 286 611 c 0
 282 607 277 605 266 605 c 2
 145 605 l 2
 137 605 135 603 135 595 c 2
 135 5 l 2
 135 -3 137 -5 145 -5 c 2
 266 -5 l 2
 277 -5 282 -7 286 -11 c 0
 290 -15 292 -20 292 -31 c 2
 292 -49 l 2
 292 -60 290 -65 286 -69 c 0
 282 -73 277 -75 266 -75 c 2
 120.5 -75 l 2
 100.7 -75 87.2002 -72 77.5996 -62.4004 c 0
 68 -52.7998 65 -40.2002 65 -19.5 c 2
 65 619.5 l 2
EndSplineSet
EndChar

StartChar: backslash
Encoding: 92 92 31
Width: 375
VWidth: 1000
Flags: MW
LayerCount: 2
Fore
SplineSet
271.514 -51.043 m 2
 37.6963 628.253 l 2
 34.1152 638.654 34.3789 644.032 36.8584 649.117 c 0
 39.3379 654.201 43.416 657.72 53.8154 661.302 c 2
 70.835 667.162 l 2
 81.2344 670.743 86.6143 670.479 91.6982 668 c 0
 96.7832 665.521 100.302 661.443 103.883 651.043 c 2
 337.7 -28.2529 l 2
 341.281 -38.6543 341.018 -44.0322 338.538 -49.1172 c 0
 336.059 -54.2012 331.981 -57.7197 321.581 -61.3018 c 2
 304.562 -67.1621 l 2
 294.16 -70.7432 288.782 -70.4795 283.698 -68 c 0
 278.613 -65.5205 275.095 -61.4434 271.514 -51.043 c 2
EndSplineSet
EndChar

StartChar: bracketright
Encoding: 93 93 32
Width: 347
VWidth: 1000
Flags: MW
LayerCount: 2
Fore
SplineSet
282 619.5 m 2
 282 -19.5 l 2
 282 -40.2002 279 -52.7998 269.4 -62.4004 c 0
 259.8 -72 246.3 -75 226.5 -75 c 2
 81 -75 l 2
 70 -75 65 -73 61 -69 c 0
 57 -65 55 -60 55 -49 c 2
 55 -31 l 2
 55 -20 57 -15 61 -11 c 0
 65 -7 70 -5 81 -5 c 2
 202 -5 l 2
 210 -5 212 -3 212 5 c 2
 212 595 l 2
 212 603 210 605 202 605 c 2
 81 605 l 2
 70 605 65 607 61 611 c 0
 57 615 55 620 55 631 c 2
 55 649 l 2
 55 660 57 665 61 669 c 0
 65 673 70 675 81 675 c 2
 226.5 675 l 2
 246.3 675 259.8 672 269.4 662.4 c 0
 279 652.8 282 640.2 282 619.5 c 2
EndSplineSet
EndChar

StartChar: afii57645
Encoding: 1470 1470 33
Width: 457
VWidth: 1000
Flags: MW
LayerCount: 2
Back
SplineSet
316 530 m 6
 81 530 l 2
 70 530 65 532 61 536 c 0
 57 540 55 545 55 556 c 2
 55 574 l 2
 55 585 57 590 61 594 c 0
 65 598 70 600 81 600 c 2
 316 600 l 6
 327 600 332 598 336 594 c 4
 340 590 342 585 342 574 c 6
 342 556 l 6
 342 545 340 540 336 536 c 4
 332 532 327 530 316 530 c 6
EndSplineSet
Fore
SplineSet
371 530 m 6
 86 530 l 2
 75 530 70 532 66 536 c 0
 62 540 60 545 60 556 c 2
 60 574 l 2
 60 585 62 590 66 594 c 0
 70 598 75 600 86 600 c 2
 371 600 l 6
 382 600 387 598 391 594 c 4
 395 590 397 585 397 574 c 6
 397 556 l 6
 397 545 395 540 391 536 c 4
 387 532 382 530 371 530 c 6
EndSplineSet
EndChar

StartChar: afii57664
Encoding: 1488 1488 35
Width: 589
VWidth: 1000
Flags: HMW
AnchorPoint: "DiaToBaseD" 242 -138 basechar 0
AnchorPoint: "DiaToBaseU" 290 0 basechar 0
AnchorPoint: "DiaToBase3" 300 0 basechar 0
AnchorPoint: "DiaToBase2" 300 0 basechar 0
AnchorPoint: "DiaToBase1" 300 0 basechar 0
LayerCount: 2
Back
SplineSet
384.455 234.354 m 0
 425.75 247.5 462.012 274.604 484 314 c 0
 502 344 509 380 509 446 c 2
 509 544 l 2
 509 565 505 578 496 587 c 0
 486 597 473 600 453 600 c 2
 365 600 l 2
 355 600 349 598 345 594 c 0
 341 590 339 585 339 574 c 2
 339 556 l 2
 339 545 341 540 345 536 c 0
 349 532 355 530 365 530 c 2
 429 530 l 2
 437 530 439 528 439 520 c 2
 439 452 l 2
 439 411 434 374 421 352 c 0
 404.132 322.703 374.714 301.214 340.96 295.454 c 0
 336.031 294.613 332.288 296.817 329.751 300.499 c 2
 133 586 l 2
 125.6 596.738 120 600 109 600 c 10
 73 600 l 2
 63 600 58 595 55 588 c 0
 54 582 55.8691 574.908 62 566 c 2
 165.006 416.335 l 2
 167.891 412.144 167.169 407.519 162.333 405.45 c 0
 127.375 390.5 98.3477 366.222 78 332 c 0
 56 296 50 254 50 199 c 2
 50 56 l 2
 50 35 54 22 63 13 c 0
 73 3 86 0 106 0 c 2
 194 0 l 2
 204 0 210 2 214 6 c 0
 218 10 220 15 220 26 c 2
 220 44 l 2
 220 55 218 60 214 64 c 0
 210 68 204 70 194 70 c 2
 130 70 l 2
 122 70 120 72 120 80 c 2
 120 193 l 2
 120 234 123 265 138 294 c 0
 151.633 319.448 178.125 339.125 205.333 346.015 c 0
 210.016 347.201 213.512 344.797 215.667 341.668 c 2
 442 13 l 2
 448.923 2.94727 455 0 466 0 c 10
 502 0 l 2
 512 0 518 6 519 14 c 0
 520 20 519.138 25.0947 513 34 c 2
 380.501 226.249 l 2
 377.962 229.933 379.596 232.807 384.455 234.354 c 0
EndSplineSet
Fore
SplineSet
404.954 219.104 m 0
 400.298 217.024 398.461 214.684 401 211 c 2
 523 34 l 2
 529.138 25.0957 530 20 529 14 c 0
 528 6 522 0 512 0 c 2
 476 0 l 18
 465 0 458.923 2.94727 452 13 c 2
 225.667 341.668 l 2
 223.512 344.797 220.016 347.201 215.333 346.015 c 0
 188.125 339.125 161.633 319.448 148 294 c 0
 133 265 130 234 130 193 c 2
 130 80 l 2
 130 72 132 70 140 70 c 2
 204 70 l 2
 214 70 220 68 224 64 c 0
 228 60 230 55 230 44 c 2
 230 26 l 2
 230 15 228 10 224 6 c 0
 220 2 214 0 204 0 c 2
 116 0 l 2
 96 0 83 3 73 13 c 0
 64 22 60 35 60 56 c 2
 60 199 l 2
 60 254 66 296 88 332 c 0
 108.348 366.222 137.375 390.5 172.333 405.45 c 0
 177.169 407.519 177.891 412.144 175.006 416.335 c 2
 72 566 l 2
 65.8691 574.908 64 582 65 588 c 0
 68 595 73 600 83 600 c 2
 119 600 l 18
 130 600 135.599 596.74 143 586 c 2
 350.25 285.25 l 2
 352.787 281.568 356.802 278.386 361.459 280.205 c 0
 395.5 293.5 419.169 310.682 436 340 c 0
 451.5 367 454 403 454 444 c 2
 454 520 l 2
 454 528 452 530 444 530 c 2
 380 530 l 2
 370 530 364 532 360 536 c 0
 356 540 354 545 354 556 c 2
 354 574 l 2
 354 585 356 590 360 594 c 0
 364 598 370 600 380 600 c 2
 468 600 l 2
 488 600 501 597 511 587 c 0
 520 578 524 565 524 544 c 2
 524 438 l 2
 524 372 519 338.5 499 302 c 0
 477.364 262.514 445 237 404.954 219.104 c 0
EndSplineSet
Substitution2: "WideLetters" uniFB21
Comment: "%DiaToBase1+AD0A-300+AAoA%DiaToBase2+AD0A-300+AAoA%DiaToBase3+AD0A-300+AAoA%DiaToBaseU+AD0A-290+AAoA" 
EndChar

StartChar: afii57665
Encoding: 1489 1489 36
Width: 549
VWidth: 1000
Flags: MW
AnchorPoint: "DiaToBaseD" 232 0 basechar 0
AnchorPoint: "DiaToBaseU" 260 0 basechar 0
AnchorPoint: "DiaToBase3" 260 0 basechar 0
AnchorPoint: "DiaToBase2" 270 0 basechar 0
AnchorPoint: "DiaToBase1" 260 0 basechar 0
LayerCount: 2
Back
SplineSet
446 415 m 2
 446 80 l 2
 446 72 448 70 456 70 c 2
 494 70 l 2
 505 70 510 68 514 64 c 0
 518 60 520 55 520 44 c 2
 520 26 l 2
 520 15 518 10 514 6 c 0
 510 2 505 0 494 0 c 2
 57 0 l 2
 46 0 41 2 37 6 c 0
 33 10 31 15 31 26 c 2
 31 44 l 2
 31 55 33 60 37 64 c 0
 41 68 46 70 57 70 c 2
 366 70 l 2
 374 70 376 72 376 80 c 2
 376 425 l 2
 376 469.5 367 489 351 505 c 0
 335 521 312 530 271 530 c 2
 109 530 l 2
 98 530 93 532 89 536 c 0
 85 540 83 545 83 556 c 2
 83 574 l 2
 83 585 85 590 89 594 c 0
 93 598 98 600 109 600 c 2
 261 600 l 2
 327 600 370 584 400 554 c 0
 430 524 446 484.5 446 415 c 2
EndSplineSet
Fore
SplineSet
435 415 m 2
 435 80 l 2
 435 72 437 70 445 70 c 2
 483 70 l 6
 494 70 499 68 503 64 c 4
 507 60 509 55 509 44 c 6
 509 26 l 6
 509 15 507 10 503 6 c 4
 499 2 494 0 483 0 c 6
 76 0 l 2
 65 0 60 2 56 6 c 0
 52 10 50 15 50 26 c 2
 50 44 l 2
 50 55 52 60 56 64 c 0
 60 68 65 70 76 70 c 2
 355 70 l 2
 363 70 365 72 365 80 c 2
 365 425 l 2
 365 470 358 491 342 507 c 0
 326 523 301 530 260 530 c 2
 98 530 l 2
 87 530 82 532 78 536 c 0
 74 540 72 545 72 556 c 2
 72 574 l 2
 72 585 74 590 78 594 c 0
 82 598 87 600 98 600 c 2
 250 600 l 2
 316 600 361 590 393 558 c 0
 425 526 435 484 435 415 c 2
EndSplineSet
Comment: "%DiaToBase1+AD0A-260+AAoA%DiaToBase2+AD0A-270+AAoA%DiaToBaseU+AD0A-260+AAoA%DiaToBase3+AD0A-260+AAoA" 
EndChar

StartChar: afii57666
Encoding: 1490 1490 37
Width: 414
VWidth: 1000
Flags: MW
AnchorPoint: "DiaToBaseD" 160 0 basechar 0
AnchorPoint: "DiaToBaseO" 70 0 basechar 0
AnchorPoint: "DiaToBaseU" 200 0 basechar 0
AnchorPoint: "DiaToBase3" 180 0 basechar 0
AnchorPoint: "DiaToBase2" 190 0 basechar 0
AnchorPoint: "DiaToBase1" 200 0 basechar 0
LayerCount: 2
Back
SplineSet
283.5 325.834 m 2
 283.5 520 l 2
 283.5 528 281.5 530 273.5 530 c 2
 166.5 530 l 2
 155.5 530 150.5 532 146.5 536 c 0
 142.5 540 140.5 545 140.5 556 c 2
 140.5 574 l 2
 140.5 585 142.5 590 146.5 594 c 0
 150.5 598 155.5 600 166.5 600 c 2
 298 600 l 2
 317.797 600 331.297 597 340.906 587.406 c 0
 350.5 577.797 353.5 565.203 353.5 544.5 c 2
 353.5 26 l 2
 353.5 15 351.5 10 347.5 6 c 0
 343.5 2 338.5 0 327.5 0 c 2
 309.5 0 l 2
 298.5 0 293.5 2 289.5 6 c 0
 285.5 10 283.5 15 283.5 26 c 2
 283.5 163.5 l 2
 283.5 178 277.5 179.5 269.775 163 c 0
 255.498 132.501 236.282 106.33 211 77.4531 c 0
 172.641 33.6406 112.547 -7 76 -7 c 0
 65.25 -7 60 -5 56 -1 c 0
 52 3 50 8 50 19 c 2
 50 37 l 2
 50 48 52 53 56 57 c 0
 58.4219 59.4219 61.3125 60.7969 65.5 62.0781 c 0
 109.5 75.5 166.469 112.031 208 161.5 c 0
 246.515 207.372 267 248.167 278.895 290.667 c 0
 282.596 303.888 283.5 313 283.5 325.834 c 2
EndSplineSet
Fore
SplineSet
344 544 m 2
 344 26 l 2
 344 15 342 10 338 6 c 0
 334 2 328 0 318 0 c 2
 300 0 l 2
 288 0 284 2 280 6 c 0
 276 10 274 15 274 26 c 2
 274 164 l 2
 274 178 268 180 260 163 c 0
 245 133 226 106 201 77 c 0
 163 34 103 -7 66 -7 c 0
 55 -7 50 -5 46 -1 c 0
 42 3 40 8 40 19 c 2
 40 37 l 2
 40 45 41 49 43 53 c 0
 46 58 51 61 56 62 c 0
 99 75 156 112 198 162 c 0
 237 207 257 248 269 291 c 0
 273 304 274 313 274 326 c 2
 274 520 l 2
 274 528 272 530 264 530 c 2
 156 530 l 2
 146 530 140 532 136 536 c 0
 132 540 130 545 130 556 c 2
 130 574 l 2
 130 585 132 590 136 594 c 0
 140 598 146 600 156 600 c 2
 288 600 l 2
 308 600 321 597 331 587 c 0
 340 578 344 565 344 544 c 2
EndSplineSet
Comment: "%DiaToBase1+AD0A-200+AAoA%DiaToBase2+AD0A-190+AAoA%DiaToBaseU+AD0A-200+AAoA%DiaToBaseO+AD0A-70+AAoA%DiaToBase3+AD0A-180+AAoA" 
EndChar

StartChar: afii57667
Encoding: 1491 1491 38
Width: 553
VWidth: 1000
Flags: MW
AnchorPoint: "DiaToBaseD" 230 0 basechar 0
AnchorPoint: "DiaToBaseU" 320 0 basechar 0
AnchorPoint: "DiaToBase3" 330 0 basechar 0
AnchorPoint: "DiaToBase2" 320 0 basechar 0
AnchorPoint: "DiaToBase1" 372 0 basechar 0
LayerCount: 2
Back
SplineSet
382 26 m 6
 382 15 380 10 376 6 c 4
 372 2 367 0 356 0 c 6
 338 0 l 6
 327 0 322 2 318 6 c 4
 314 10 312 15 312 26 c 6
 312 520 l 6
 312 528 310 530 302 530 c 6
 66 530 l 2
 55 530 50 532 46 536 c 0
 42 540 40 545 40 556 c 2
 40 574 l 2
 40 585 42 590 46 594 c 0
 50 598 55 600 66 600 c 2
 467 600 l 2
 478 600 483 598 487 594 c 0
 491 590 493 585 493 574 c 2
 493 556 l 2
 493 545 491 540 487 536 c 0
 483 532 478 530 467 530 c 2
 392 530 l 6
 384 530 382 528 382 520 c 6
 382 26 l 6
EndSplineSet
Fore
SplineSet
407 26 m 2
 407 15 405 10 401 6 c 0
 397 2 392 0 381 0 c 2
 363 0 l 2
 352 0 347 2 343 6 c 0
 339 10 337 15 337 26 c 2
 337 520 l 2
 337 528 335 530 327 530 c 2
 76 530 l 2
 65 530 60 532 56 536 c 0
 52 540 50 545 50 556 c 2
 50 574 l 2
 50 585 52 590 56 594 c 0
 60 598 65 600 76 600 c 2
 477 600 l 2
 488 600 493 598 497 594 c 0
 501 590 503 585 503 574 c 2
 503 556 l 2
 503 545 501 540 497 536 c 0
 493 532 488 530 477 530 c 2
 417 530 l 2
 409 530 407 528 407 520 c 2
 407 26 l 2
EndSplineSet
Substitution2: "WideLetters" uniFB22
Comment: "%DiaToBase1+AD0A-372+AAoA%DiaToBase2+AD0A-320+AAoA%DiaToBaseU+AD0A-320+AAoA%DiaToBase3+AD0A-330+AAoA" 
EndChar

StartChar: afii57668
Encoding: 1492 1492 39
Width: 575
VWidth: 1000
Flags: MW
AnchorPoint: "DiaToBaseD" 298 0 basechar 0
AnchorPoint: "DiaToBaseU" 280 0 basechar 0
AnchorPoint: "DiaToBase3" 290 0 basechar 0
AnchorPoint: "DiaToBase2" 290 0 basechar 0
AnchorPoint: "DiaToBase1" 290 0 basechar 0
LayerCount: 2
Back
SplineSet
140 26 m 2
 140 15 138 10 134 6 c 0
 130 2 125 0 114 0 c 2
 96 0 l 2
 85 0 80 2 76 6 c 0
 72 10 70 15 70 26 c 2
 70 333 l 2
 70 344 72 349 76 353 c 0
 80 357 85 359 96 359 c 2
 114 359 l 2
 125 359 130 357 134 353 c 0
 138 349 140 344 140 333 c 2
 140 26 l 2
384.75 600 m 2
 428.4 600 456.9 593.5 477.7 572.7 c 0
 498.5 551.9 505 524.6 505 479.75 c 2
 505 26 l 2
 505 15 503 10 499 6 c 0
 495 2 490 0 479 0 c 2
 461 0 l 2
 450 0 445 2 441 6 c 0
 437 10 435 15 435 26 c 2
 435 477.5 l 2
 435 500 431.5 510.5 423.5 518.5 c 0
 415.5 526.5 403.5 530 382.5 530 c 2
 76 530 l 2
 65 530 60 532 56 536 c 0
 52 540 50 545 50 556 c 2
 50 574 l 2
 50 585 52 590 56 594 c 0
 60 598 65 600 76 600 c 2
 384.75 600 l 2
EndSplineSet
Fore
SplineSet
150 26 m 2
 150 15 148 10 144 6 c 0
 140 2 135 0 124 0 c 2
 106 0 l 2
 95 0 90 2 86 6 c 0
 82 10 80 15 80 26 c 2
 80 333 l 2
 80 344 82 349 86 353 c 0
 90 357 95 359 106 359 c 2
 124 359 l 2
 135 359 140 357 144 353 c 0
 148 349 150 344 150 333 c 2
 150 26 l 2
384.75 600 m 6
 428.4 600 456.9 593.5 477.7 572.7 c 4
 498.5 551.9 505 524.6 505 479.75 c 6
 505 26 l 6
 505 15 503 10 499 6 c 4
 495 2 490 0 479 0 c 6
 461 0 l 6
 450 0 445 2 441 6 c 4
 437 10 435 15 435 26 c 6
 435 477.5 l 6
 435 500 431.5 510.5 423.5 518.5 c 4
 415.5 526.5 403.5 530 382.5 530 c 6
 86 530 l 2
 75 530 70 532 66 536 c 0
 62 540 60 545 60 556 c 2
 60 574 l 2
 60 585 62 590 66 594 c 0
 70 598 75 600 86 600 c 2
 384.75 600 l 6
EndSplineSet
Substitution2: "WideLetters" uniFB23
Comment: "%DiaToBase1+AD0A-290+AAoA%DiaToBase2+AD0A-290+AAoA%DiaToBase3+AD0A-290+AAoA%DiaToBaseU+AD0A-280+AAoA" 
EndChar

StartChar: afii57669
Encoding: 1493 1493 40
Width: 335
VWidth: 1000
Flags: MW
AnchorPoint: "DiaToBaseD" 110 0 basechar 0
AnchorPoint: "DiaToBaseU" 170 0 basechar 0
AnchorPoint: "DiaToBase3" 170 0 basechar 0
AnchorPoint: "DiaToBase2" 160 0 basechar 0
AnchorPoint: "DiaToBase1" 222 0 basechar 0
LayerCount: 2
Fore
SplineSet
191 600 m 2
 217.4 600 235.4 596 248.2 583.2 c 0
 261 570.4 265 553.6 265 526 c 2
 265 26 l 2
 265 15 263 10 259 6 c 0
 255 2 250 0 239 0 c 2
 221 0 l 2
 210 0 205 2 201 6 c 0
 197 10 195 15 195 26 c 2
 195 520 l 6
 195 528 193 530 185 530 c 6
 76 530 l 2
 65 530 60 532 56 536 c 0
 52 540 50 545 50 556 c 2
 50 574 l 2
 50 585 52 590 56 594 c 0
 60 598 65 600 76 600 c 2
 191 600 l 2
EndSplineSet
Comment: "%DiaToBase1+AD0A-222+AAoA%DiaToBase2+AD0A-160+AAoA%DiaToBaseU+AD0A-170+AAoA%DiaToBase3+AD0A-170+AAoA" 
EndChar

StartChar: afii57670
Encoding: 1494 1494 41
Width: 394
VWidth: 1000
Flags: MW
AnchorPoint: "DiaToBaseD" 86 0 basechar 0
AnchorPoint: "DiaToBaseU" 195 0 basechar 0
AnchorPoint: "DiaToBase3" 200 0 basechar 0
AnchorPoint: "DiaToBase2" 187 0 basechar 0
AnchorPoint: "DiaToBase1" 198 0 basechar 0
LayerCount: 2
Fore
SplineSet
232 26 m 2
 232 15 230 10 226 6 c 0
 222 2 217 0 206 0 c 2
 188 0 l 2
 177 0 172 2 168 6 c 0
 164 10 162 15 162 26 c 2
 162 520 l 2
 162 528 160 530 152 530 c 2
 86 530 l 2
 75 530 70 532 66 536 c 0
 62 540 60 545 60 556 c 2
 60 574 l 2
 60 585 62 590 66 594 c 0
 70 598 75 600 86 600 c 2
 308 600 l 2
 319 600 324 598 328 594 c 0
 332 590 334 585 334 574 c 2
 334 556 l 2
 334 545 332 540 328 536 c 0
 324 532 319 530 308 530 c 2
 242 530 l 2
 234 530 232 528 232 520 c 2
 232 26 l 2
EndSplineSet
Comment: "%DiaToBase1+AD0A-198+AAoA%DiaToBase2+AD0A-187+AAoA%DiaToBaseU+AD0A-195+AAoA%DiaToBase3+AD0A-200+AAoA" 
EndChar

StartChar: afii57671
Encoding: 1495 1495 42
Width: 654
VWidth: 1000
Flags: MW
AnchorPoint: "DiaToBaseU" 320 0 basechar 0
AnchorPoint: "DiaToBase3" 322 0 basechar 0
AnchorPoint: "DiaToBase2" 325 0 basechar 0
AnchorPoint: "DiaToBase1" 325 0 basechar 0
LayerCount: 2
Fore
SplineSet
210 530 m 2
 202 530 200 528 200 520 c 2
 200 26 l 2
 200 15 198 10 194 6 c 0
 190 2 185 0 174 0 c 2
 156 0 l 2
 145 0 140 2 136 6 c 0
 132 10 130 15 130 26 c 2
 130 520 l 2
 130 528 128 530 120 530 c 2
 76 530 l 2
 65 530 60 532 56 536 c 0
 52 540 50 545 50 556 c 2
 50 574 l 2
 50 585 52 590 56 594 c 0
 60 598 65 600 76 600 c 2
 578 600 l 2
 589 600 594 598 598 594 c 0
 602 590 604 585 604 574 c 2
 604 556 l 2
 604 545 602 540 598 536 c 0
 594 532 589 530 578 530 c 2
 531 530 l 2
 523 530 521 528 521 520 c 2
 521 26 l 2
 521 15 519 10 515 6 c 0
 511 2 506 0 495 0 c 2
 477 0 l 2
 466 0 461 2 457 6 c 0
 453 10 451 15 451 26 c 2
 451 520 l 2
 451 528 449 530 441 530 c 2
 210 530 l 2
EndSplineSet
Comment: "%DiaToBase1+AD0A-325+AAoA%DiaToBase2+AD0A-325+AAoA%DiaToBase3+AD0A-322+AAoA%DiaToBaseU+AD0A-320+AAoA" 
EndChar

StartChar: afii57672
Encoding: 1496 1496 43
Width: 610
VWidth: 1000
Flags: MW
AnchorPoint: "DiaToBaseD" 337 -50 basechar 0
AnchorPoint: "DiaToBaseU" 320 0 basechar 0
AnchorPoint: "DiaToBase3" 325 0 basechar 0
AnchorPoint: "DiaToBase2" 330 0 basechar 0
AnchorPoint: "DiaToBase1" 320 0 basechar 0
LayerCount: 2
Back
SplineSet
519.975 170.676 m 2xde
 519.969 109.726 511.975 74.6504 483.478 45.9004 c 0
 451.297 13.4365 393.532 -6.99609 319.487 -7 c 0
 248.266 -7 188.113 12.9971 155.497 45.9004 c 0
 127 74.6504 119 110.301 119 170.676 c 2
 119 520 l 2
 119 528 117 530 109 530 c 2
 66 530 l 2
 55 530 50 532 46 536 c 0
 42 540 40 545 40 556 c 2
 40 574 l 2
 40 585 42 590 46 594 c 0
 50 598 55 600 66 600 c 2
 133.5 600 l 2xee
 153.3 600 166.8 597 176.4 587.4 c 0
 186 577.8 189 565.2 189 544.5 c 2
 189 173 l 2
 189 137 192.578 116.6 206.999 99.2949 c 0
 230.601 70.9717 270.737 62.002 319.499 62 c 0
 365.73 62 407.996 70.4912 431.999 99.2949 c 0
 446.42 116.6 449.998 136.4 449.998 173 c 2
 450 471.5 l 2
 450 498 444.5 514 431.5 527 c 0
 419 539.5 402.646 545 384 545 c 0
 365.354 545 349 539.5 336.5 527 c 0
 323.5 514 318 498 318 471.5 c 2
 318 405 l 2
 318 394 316 389 312 385 c 0
 308 381 304 379 292 379 c 2
 274 379 l 2
 264 379 258 381 254 385 c 0
 250 389 248 394 248 405 c 2
 248 465 l 2
 248 509.5 251.5 541 279 571.614 c 0
 302.73 598.031 341.733 613 384 613 c 0
 426.267 613 466.571 597.3 490 570.614 c 0
 516 541 520.004 501.5 520 457 c 2
 519.975 170.676 l 2xde
EndSplineSet
Fore
SplineSet
539.998 179.561 m 2
 539.998 115.562 531.773 78.7334 502.566 48.5459 c 0
 469.583 14.459 410.378 -6.99512 334.486 -7 c 0
 261.49 -7 199.838 13.9971 166.408 48.5459 c 0
 137.201 78.7334 129.002 116.167 129.002 179.561 c 2
 129 520 l 2
 129.117 527.999 127 530 119 530 c 2
 76 530 l 2
 65 530 60 532 56 536 c 0
 52 540 50 545 50 556 c 2
 50 574 l 2
 50 585 52 590 56 594 c 0
 60 598 65 600 76 600 c 2
 143.5 600 l 2
 163.3 600 176.8 597 186.4 587.4 c 0
 196 577.8 199.286 565.198 199 544.5 c 2
 199.001 182.995 l 2
 199.001 143.755 202.716 121.519 217.689 102.656 c 0
 242.195 71.7842 283.869 62.0068 334.499 62.0049 c 0
 382.501 62.0049 426.387 71.2607 451.309 102.656 c 0
 466.282 121.519 469.999 143.101 469.999 182.995 c 2
 470 471.5 l 2
 469.541 497.996 464.5 514 451.5 527 c 0
 439 539.5 422.646 545 404 545 c 0
 385.354 545 369 539.5 356.5 527 c 0
 343.5 514 338 498 338 471.5 c 2
 338 405 l 2
 338 394 336 389 332 385 c 0
 328 381 324 379 312 379 c 2
 294 379 l 2
 284 379 278 381 274 385 c 0
 270 389 268 394 268 405 c 2
 268 465 l 2
 268 509.5 271.5 541 299 571.614 c 0
 322.73 598.031 361.733 613 404 613 c 0
 446.267 613 486.571 597.3 510 570.614 c 0
 536 541 539.198 501.493 540 457 c 2
 539.998 179.561 l 2
EndSplineSet
Comment: "%DiaToBase1+AD0A-320+AAoA%DiaToBase2+AD0A-330+AAoA%DiaToBaseU+AD0A-320+AAoA%DiaToBase3+AD0A-325+AAoA" 
EndChar

StartChar: afii57673
Encoding: 1497 1497 44
Width: 337
VWidth: 1000
Flags: MW
AnchorPoint: "DiaToBaseD" 120 102 basechar 0
AnchorPoint: "DiaToBaseU" 160 0 basechar 0
AnchorPoint: "DiaToBase3" 155 0 basechar 0
AnchorPoint: "DiaToBase2" 170 0 basechar 0
AnchorPoint: "DiaToBase1" 145 0 basechar 0
LayerCount: 2
Fore
SplineSet
221.5 600 m 2
 241.3 600 254.8 597 264.4 587.4 c 0
 274 577.8 277 565.2 277 544.5 c 2
 277 355 l 2
 277 344 275 339 271 335 c 0
 267 331 262 329 251 329 c 2
 233 329 l 2
 222 329 217 331 213 335 c 0
 209 339 207 344 207 355 c 2
 207 520 l 2
 207 528 205 530 197 530 c 2
 76 530 l 2
 65 530 60 532 56 536 c 0
 52 540 50 545 50 556 c 2
 50 574 l 2
 50 585 52 590 56 594 c 0
 60 598 65 600 76 600 c 2
 221.5 600 l 2
EndSplineSet
Comment: "%DiaToBase1+AD0A-145+AAoA%DiaToBase2+AD0A-170+AAoA%DiaToBaseU+AD0A-160+AAoA%DiaToBase3+AD0A-155+AAoA" 
EndChar

StartChar: afii57674
Encoding: 1498 1498 45
Width: 543
VWidth: 1000
Flags: MW
AnchorPoint: "DiaToBaseD" 234 0 basechar 0
LayerCount: 2
Fore
SplineSet
331 -84.5 m 2
 331 520 l 2
 331 528 329 530 321 530 c 2
 76 530 l 2
 65 530 60 532 56 536 c 0
 52 540 50 545 50 556 c 2
 50 574 l 2
 50 585 52 590 56 594 c 0
 60 598 65 600 76 600 c 2
 467 600 l 2
 478 600 483 598 487 594 c 0
 491 590 493 585 493 574 c 2
 493 556 l 2
 493 545 491 540 487 536 c 0
 483 532 478 530 467 530 c 2
 411 530 l 2
 403 530 401 528 401 520 c 2
 401 -60 l 2
 401 -68 403 -70 411 -70 c 2
 467 -70 l 2
 478 -70 483 -72 487 -76 c 0
 491 -80 493 -85 493 -96 c 2
 493 -114 l 2
 493 -125 491 -130 487 -134 c 0
 483 -138 478 -140 467 -140 c 2
 386.5 -140 l 2
 366.7 -140 353.2 -137 343.6 -127.4 c 0
 334 -117.8 331 -105.2 331 -84.5 c 2
EndSplineSet
EndChar

StartChar: afii57675
Encoding: 1499 1499 46
Width: 501
VWidth: 1000
Flags: MW
AnchorPoint: "DiaToBaseD" 223 0 basechar 0
AnchorPoint: "DiaToBaseU" 220 0 basechar 0
AnchorPoint: "DiaToBase3" 230 0 basechar 0
AnchorPoint: "DiaToBase2" 220 0 basechar 0
AnchorPoint: "DiaToBase1" 230 0 basechar 0
LayerCount: 2
Back
SplineSet
167.6 0 m 2
 66 0 l 6
 55 0 50 2 46 6 c 4
 42 10 40 15 40 26 c 6
 40 44 l 6
 40 55 42 60 46 64 c 4
 50 68 55 70 66 70 c 6
 197.9 70 l 2
 303.2 70 348.7 117 364.3 180 c 0
 372.101 215 376 261 376 300 c 0
 376 339 373 385 367 420 c 0
 360.723 452.953 348.154 481.529 326 501.29 c 0
 305.8 519.309 276 530 223.5 530 c 2
 71 530 l 6
 60 530 55 532 51 536 c 4
 47 540 45 545 45 556 c 6
 45 574 l 6
 45 585 47 590 51 594 c 4
 55 598 60 600 71 600 c 6
 213 600 l 2
 242 600 286 597 308 591 c 0
 344 582 372.149 561.499 392 537.5 c 0
 425.5 497 446 427 446 300 c 0
 446 173 422.6 103 382.399 62.5 c 0
 358.579 38.501 324.8 18 281.6 9 c 0
 255.2 3 202.399 0 167.6 0 c 2
EndSplineSet
Fore
SplineSet
172.6 0 m 2
 76 0 l 6
 65 0 60 2 56 6 c 4
 52 10 50 15 50 26 c 6
 50 44 l 6
 50 55 52 60 56 64 c 4
 60 68 65 70 76 70 c 6
 202.9 70 l 2
 308.2 70 353.7 117 369.3 180 c 0
 377.101 215 381 261 381 300 c 0
 381 339 378 385 372 420 c 0
 365.723 452.953 353.154 481.529 331 501.29 c 0
 310.8 519.309 281 530 228.5 530 c 2
 81 530 l 6
 70 530 65 532 61 536 c 4
 57 540 55 545 55 556 c 6
 55 574 l 6
 55 585 57 590 61 594 c 4
 65 598 70 600 81 600 c 6
 218 600 l 2
 247 600 291 597 313 591 c 0
 349 582 377.149 561.499 397 537.5 c 0
 430.5 497 451 427 451 300 c 0
 451 173 427.6 103 387.399 62.5 c 0
 363.579 38.501 329.8 18 286.6 9 c 0
 260.2 3 207.399 0 172.6 0 c 2
EndSplineSet
Substitution2: "WideLetters" uniFB24
Comment: "%DiaToBase1+AD0A-230+AAoA%DiaToBase2+AD0A-220+AAoA%DiaToBaseU+AD0A-220+AAoA%DiaToBase3+AD0A-230+AAoA" 
EndChar

StartChar: afii57676
Encoding: 1500 1500 47
Width: 550
VWidth: 1000
Flags: MW
AnchorPoint: "DiaToBaseD" 264 94 basechar 0
AnchorPoint: "DiaToBaseO" -40 0 basechar 0
AnchorPoint: "DiaToBaseU" 260 0 basechar 0
AnchorPoint: "DiaToBase3" 280 0 basechar 0
AnchorPoint: "DiaToBase2" 270 0 basechar 0
AnchorPoint: "DiaToBase1" 230 0 basechar 0
LayerCount: 2
Back
SplineSet
233 180.5 m 2
 365.5 300 l 2
 409.699 339.834 420 367 420 431 c 2
 420 477.5 l 2
 420 500 416.5 510.5 408.5 518.5 c 0
 400.5 526.5 388.5 530 367.5 530 c 2
 124 530 l 2
 97.5996 530 79.5996 534 66.7998 546.8 c 0
 54 559.6 50 576.4 50 604 c 2
 50 688 l 2
 50 699 52 704 56 708 c 0
 60 712 65 714 76 714 c 2
 94 714 l 2
 105 714 110 712 114 708 c 0
 118 704 120 699 120 688 c 2
 120 610 l 2
 120 602 122 600 130 600 c 2
 369.75 600 l 2
 413.4 600 441.9 593.5 462.7 572.7 c 0
 483.5 551.9 490 524.6 490 479.75 c 2
 490 410 l 2
 490 343 477.883 306.519 419.5 254 c 2
 283 131 l 2
 268.661 118.079 259.5 106.333 259.5 87.5 c 0
 259.5 75.333 266 70 279.5 70 c 2
 341 70 l 2
 352 70 357 68 361 64 c 0
 365 60 367 55 367 44 c 2
 367 26 l 2
 367 15 365 10 361 6 c 0
 357 2 352 0 341 0 c 2
 260 0 l 2
 233.6 0 217.667 5.99902 203.333 20.333 c 0
 190.533 33.1328 186 52.0049 186 74 c 16
 186 122.667 210.102 159.848 233 180.5 c 2
EndSplineSet
Fore
SplineSet
419.5 254 m 2
 276.335 125.001 l 2
 265.326 115.081 259.667 105.164 259.667 91.3311 c 0
 259.667 75.667 264 70 279.5 70 c 2
 341 70 l 2
 352 70 357 68 361 64 c 0
 365 60 367 55 367 44 c 2
 367 26 l 2
 367 15 365 10 361 6 c 0
 357 2 352 0 341 0 c 2
 260 0 l 2
 233.6 0 217.667 5.99902 203.333 20.333 c 0
 190.533 33.1328 186 52.0049 186 74 c 16
 186 91.6602 187.235 107.801 192.333 122.667 c 0
 199.793 144.417 214.082 163.438 233 180.5 c 2
 365.5 300 l 2
 409.699 339.834 420 367 420 431 c 2
 420 477.5 l 2
 420 500 416.5 510.5 408.5 518.5 c 0
 400.5 526.5 388.5 530 367.5 530 c 6
 124 530 l 6
 97.5996 530 79.5996 534 66.7998 546.8 c 4
 54 559.6 50 576.4 50 604 c 6
 50 688 l 6
 50 699 52 704 56 708 c 4
 60 712 65 714 76 714 c 6
 94 714 l 6
 105 714 110 712 114 708 c 4
 118 704 120 699 120 688 c 6
 120 610 l 6
 120 602 122 600 130 600 c 6
 369.75 600 l 6
 413.4 600 441.9 593.5 462.7 572.7 c 0
 483.5 551.9 490 524.6 490 479.75 c 2
 490 410 l 2
 490 343 477.883 306.519 419.5 254 c 2
EndSplineSet
Substitution2: "WideLetters" uniFB25
Comment: "%DiaToBase1+AD0A-230+AAoA%DiaToBase2+AD0A-270+AAoA%DiaToBaseU+AD0A-260+AAoA%DiaToBaseO+AD0A--40+AAoA%DiaToBase3+AD0A-280+AAoA" 
EndChar

StartChar: afii57677
Encoding: 1501 1501 48
Width: 608
VWidth: 1000
Flags: MW
LayerCount: 2
Back
SplineSet
210 530 m 2
 202 530 200 528 200 520 c 2
 200 80 l 2
 200 72 202 70 210 70 c 2
 453 70 l 2
 461 70 463 72 463 80 c 2
 463 477.5 l 2
 463 500 459.5 510.5 451.5 518.5 c 0
 443.5 526.5 431.5 530 410.5 530 c 2
 210 530 l 2
120 530 m 2
 66 530 l 6
 55 530 50 532 46 536 c 4
 42 540 40 545 40 556 c 6
 40 574 l 6
 40 585 42 590 46 594 c 4
 50 598 55 600 66 600 c 6
 412.75 600 l 2
 456.4 600 484.9 593.5 505.7 572.7 c 0
 526.5 551.9 533 524.6 533 479.75 c 2
 533 74 l 2
 533 46.4004 529 29.5996 516.2 16.7998 c 0
 503.4 4 485.4 0 459 0 c 2
 204 0 l 2
 177.6 0 159.6 4 146.8 16.7998 c 0
 134 29.5996 130 46.4004 130 74 c 2
 130 520 l 2
 130 528 128 530 120 530 c 2
EndSplineSet
Fore
SplineSet
215 530 m 2
 207 530 205 528 205 520 c 2
 205 80 l 2
 205 72 207 70 215 70 c 2
 458 70 l 2
 466 70 468 72 468 80 c 2
 468 477.5 l 2
 468 500 464.5 510.5 456.5 518.5 c 0
 448.5 526.5 436.5 530 415.5 530 c 2
 215 530 l 2
125 530 m 2
 76 530 l 6
 65 530 60 532 56 536 c 4
 52 540 50 545 50 556 c 6
 50 574 l 6
 50 585 52 590 56 594 c 4
 60 598 65 600 76 600 c 6
 417.75 600 l 2
 461.4 600 489.9 593.5 510.7 572.7 c 0
 531.5 551.9 538 524.6 538 479.75 c 2
 538 74 l 2
 538 46.4004 534 29.5996 521.2 16.7998 c 0
 508.4 4 490.4 0 464 0 c 2
 209 0 l 2
 182.6 0 164.6 4 151.8 16.7998 c 0
 139 29.5996 135 46.4004 135 74 c 2
 135 520 l 2
 135 528 133 530 125 530 c 2
EndSplineSet
Substitution2: "WideLetters" uniFB26
EndChar

StartChar: afii57678
Encoding: 1502 1502 49
Width: 610
VWidth: 1000
Flags: MW
AnchorPoint: "DiaToBaseD" 339 0 basechar 0
AnchorPoint: "DiaToBaseU" 320 0 basechar 0
AnchorPoint: "DiaToBase3" 330 0 basechar 0
AnchorPoint: "DiaToBase2" 330 0 basechar 0
AnchorPoint: "DiaToBase1" 320 0 basechar 0
LayerCount: 2
Back
SplineSet
344 541 m 4
 273.578 541 221.414 482.787 207 434.5 c 12
 199.127 408.125 198 390.5 198 364.5 c 6xb0
 198 26 l 6
 198 15 196 10 192 6 c 4
 188 2 183 0 172 0 c 6
 154 0 l 6
 143 0 138 2 134 6 c 4
 130 10 128 15 128 26 c 6
 128 520 l 6
 128 528 126 530 118 530 c 6
 66 530 l 6
 55 530 50 532 46 536 c 4
 42 540 40 545 40 556 c 6
 40 574 l 6
 40 585 42 590 46 594 c 4
 50 598 55 600 66 600 c 6
 142.5 600 l 6xd0
 162.3 600 175.8 597 185.4 587.4 c 4
 195 577.8 198 565.2 198 544.5 c 6
 198 518.5 l 6
 198 509 204 507.5 209 518 c 4
 230.085 562.279 289 607 356.5 607 c 4
 410.5 607 447.5 593 474 565.404 c 4
 503.143 535.057 510.404 491.178 510.404 432.5 c 6
 510 55.5 l 6
 510 34.7998 507 22.2002 497.4 12.5996 c 4
 487.8 3 474.3 0 454.5 0 c 6
 328 0 l 6
 317 0 312 2 308 6 c 4
 304 10 302 15 302 26 c 6
 302 44 l 6
 302 55 304 60 308 64 c 4
 312 68 317 70 328 70 c 6
 430 70 l 6
 438 70 440 72 440 80 c 6
 440 429 l 6
 440 469.726 436.097 503.359 412 522.5 c 4
 392.349 538.108 364.169 541 344 541 c 4
EndSplineSet
Fore
SplineSet
366.065 540.994 m 0
 289.823 540.994 233.349 474.05 217.743 418.52 c 8
 209.188 388.075 208 367.919 208 338.02 c 2
 208 26 l 2
 208 15.0039 206 10 202 6 c 0
 198 2 193 0 182 0 c 2
 164 0 l 2
 153 0 148 2 144 6 c 0
 140 10 138 15 138 26 c 2
 138 520 l 2
 138 528 136 530 128 530 c 2
 76 530 l 2
 65 530 60 532 56 536 c 0
 52 540 50 545 50 556 c 2
 50 574 l 2
 50 585 52 590 56 594 c 0
 60 598 65 600 76 600 c 2
 152.5 600 l 2
 172.3 600 185.8 597 195.4 587.4 c 0
 205 577.8 208.002 565.203 208 544.5 c 2
 207.996 508.761 l 2
 207.996 498.216 214.372 496.551 219.686 508.206 c 0
 242.094 557.354 304.703 606.995 376.438 606.995 c 0
 433.824 606.995 473.145 591.456 501.307 560.823 c 0
 532.273 527.14 540 478.434 540 413.301 c 1
 540 55.5 l 2
 540 35 537 22.2002 527.4 12.5996 c 0
 517.8 3 504.3 0 484.5 0 c 2
 338 0 l 2
 327 0 322 2 318 6 c 0
 314 10 312 15 312 26 c 2
 312 44 l 2
 312 55 314 60 318 64 c 0
 322 68 327 70 338 70 c 2
 460 70 l 2
 468 70 470 72.5 470 80 c 2
 469.998 412.194 l 2
 469.998 459.029 465.772 497.707 439.685 519.72 c 0
 418.409 537.669 387.9 540.994 366.065 540.994 c 0
EndSplineSet
Comment: "%DiaToBase1+AD0A-320+AAoA%DiaToBase2+AD0A-330+AAoA%DiaToBaseU+AD0A-320+AAoA%DiaToBase3+AD0A-330+AAoA" 
EndChar

StartChar: afii57679
Encoding: 1503 1503 50
Width: 312
VWidth: 1000
Flags: MW
LayerCount: 2
Fore
SplineSet
156 520 m 2
 156 528 154 530 146 530 c 2
 76 530 l 2
 65 530 60 532 56 536 c 0
 52 540 50 545 50 556 c 2
 50 574 l 2
 50 585 52 590 56 594 c 0
 60 598 65 600 76 600 c 2
 170.5 600 l 2
 190.3 600 203.8 597 213.4 587.4 c 0
 223 577.8 226 565.2 226 544.5 c 2
 226 -60 l 2
 226 -68 228 -70 236 -70 c 2
 286 -70 l 2
 297 -70 302 -72 306 -76 c 0
 310 -80 312 -85 312 -96 c 2
 312 -114 l 2
 312 -125 310 -130 306 -134 c 0
 302 -138 297 -140 286 -140 c 2
 211.5 -140 l 2
 191.7 -140 178.2 -137 168.6 -127.4 c 0
 159 -117.8 156 -105.2 156 -84.5 c 2
 156 520 l 2
EndSplineSet
EndChar

StartChar: afii57680
Encoding: 1504 1504 51
Width: 333
VWidth: 1000
Flags: HMW
AnchorPoint: "DiaToBaseD" 108 0 basechar 0
AnchorPoint: "DiaToBaseU" 150 0 basechar 0
AnchorPoint: "DiaToBase3" 155 0 basechar 0
AnchorPoint: "DiaToBase2" 155 0 basechar 0
AnchorPoint: "DiaToBase1" 150 0 basechar 0
LayerCount: 2
Fore
SplineSet
193 520 m 2
 193 528 191 530 183 530 c 2
 93 530 l 2
 82 530 77 532 73 536 c 0
 69 540 67 545 67 556 c 2
 67 574 l 2
 67 585 69 590 73 594 c 0
 77 598 82 600 93 600 c 2
 207.5 600 l 2
 227.3 600 240.8 597 250.4 587.4 c 0
 260 577.8 263 565.2 263 544.5 c 2
 263 55.5 l 2
 263 34.7998 260 22.2002 250.4 12.5996 c 0
 240.8 3 227.3 0 207.5 0 c 2
 76 0 l 2
 65 0 60 2 56 6 c 0
 52 10 50 15 50 26 c 2
 50 44 l 2
 50 55 52 60 56 64 c 0
 60 68 65 70 76 70 c 2
 183 70 l 2
 191 70 193 72 193 80 c 2
 193 520 l 2
EndSplineSet
Comment: "%DiaToBase1+AD0A-150+AAoA%DiaToBase2+AD0A-155+AAoA%DiaToBaseU+AD0A-150+AAoA%DiaToBase3+AD0A-155+AAoA" 
EndChar

StartChar: afii57681
Encoding: 1505 1505 52
Width: 589
VWidth: 1000
Flags: MW
AnchorPoint: "DiaToBaseD" 313 0 basechar 0
AnchorPoint: "DiaToBaseU" 300 0 basechar 0
AnchorPoint: "DiaToBase3" 305 0 basechar 0
AnchorPoint: "DiaToBase2" 315 0 basechar 0
AnchorPoint: "DiaToBase1" 320 0 basechar 0
LayerCount: 2
Back
SplineSet
174 173 m 6
 174 137 177 117 191 99 c 4
 213 71 251 62 296 62 c 4
 340 62 380 70 402 99 c 4
 416 117 419 136 419 173 c 6
 419 478 l 6
 419 500 416 510 408 518 c 4
 400 526 388 530 366 530 c 6
 184 530 l 6
 176 530 174 528 174 520 c 6
 174 173 l 6
104 171 m 6
 104 520 l 6
 104 528 102 530 94 530 c 6
 66 530 l 6
 55 530 50 532 46 536 c 4
 42 540 40 545 40 556 c 6
 40 574 l 6
 40 585 42 590 46 594 c 4
 50 598 55 600 66 600 c 6
 369 600 l 6
 412 600 441 594 462 573 c 4
 482 552 489 525 489 480 c 6
 489 171 l 6
 489 110 481 75 454 46 c 4
 423 13 368 -7 297 -7 c 4
 228 -7 170 13 139 46 c 4
 112 75 104 110 104 171 c 6
EndSplineSet
Fore
SplineSet
184 189.655 m 2
 184 148.255 187.245 125.255 202.388 104.555 c 0
 226.184 72.3555 267.286 62.0049 315.959 62.0049 c 0
 363.551 62.0049 406.816 71.2051 430.612 104.555 c 0
 445.755 125.255 449 147.105 449 189.655 c 2
 449 478 l 2
 449 500 446 510 438 518 c 0
 430 526 418 530 396 530 c 2
 194 530 l 2
 186 530 184 527.997 184 520 c 2
 184 189.655 l 2
113.991 188.794 m 2
 114 520 l 2
 114 527.997 112 530 104 530 c 2
 76 530 l 2
 65 530 60 532 56 536 c 0
 52 540 50 545 50 556 c 2
 50 574 l 2
 50 585 52 590 56 594 c 0
 60 598 65 600 76 600 c 2
 399 600 l 2
 442 600 471 594 492 573 c 0
 512 552 519.002 526 519 480 c 2
 518.987 188.794 l 2
 518.984 121.693 510.572 83.1934 482.17 51.2939 c 0
 449.56 14.9932 391.703 -7.00684 317.016 -7.00684 c 0
 244.432 -7.00684 183.419 14.9932 150.809 51.2939 c 0
 122.406 83.1934 113.991 121.693 113.991 188.794 c 2
EndSplineSet
Comment: "%DiaToBase1+AD0A-320+AAoA%DiaToBase2+AD0A-315+AAoA%DiaToBaseU+AD0A-300+AAoA%DiaToBase3+AD0A-305+AAoA" 
EndChar

StartChar: afii57682
Encoding: 1506 1506 53
Width: 597
VWidth: 1000
Flags: MW
AnchorPoint: "DiaToBaseU" 295 0 basechar 0
AnchorPoint: "DiaToBase3" 290 0 basechar 0
AnchorPoint: "DiaToBase2" 290 0 basechar 0
AnchorPoint: "DiaToBase1" 290 0 basechar 0
LayerCount: 2
Back
SplineSet
228.994 70 m 16
 293 70 351.411 77.5361 390.438 116.563 c 0
 424.5 150.626 437 190 437 278.006 c 2
 437 520 l 2
 437 528 435 530 427 530 c 2
 365.4 530 l 2
 354.4 530 349.4 532 345.4 536 c 0
 341.4 540 339.4 545 339.4 556 c 2
 339.4 574 l 2
 339.4 585 341.4 590 345.4 594 c 0
 349.4 598 354.4 600 365.4 600 c 2
 451.5 600 l 2
 471.3 600 484.8 597 494.4 587.4 c 0
 504 577.8 507 565.2 507 544.5 c 2
 507.004 296 l 2
 507.005 245.901 506.316 204.744 497 167.5 c 0
 487.627 130.03 469.545 96.5459 443 70 c 0
 415.076 42.0771 382.435 23.2217 342.5 12.5 c 0
 306.737 2.89844 264.729 0 221.5 0 c 2
 70 0 l 2
 59 0 54 2 50 6 c 0
 46 10 44 15 44 26 c 2
 44 44 l 2
 44 55 46 60 50 64 c 0
 54 68 59 70 70 70 c 2
 139 70 l 2
 147 70 149 72 149 80 c 2
 149 520 l 2
 149 528 147 530 139 530 c 2
 66 530 l 2
 55 530 50 532 46 536 c 0
 42 540 40 545 40 556 c 2
 40 574 l 2
 40 585 42 590 46 594 c 0
 50 598 55 600 66 600 c 2
 163.5 600 l 2
 183.3 600 196.8 597 206.4 587.4 c 0
 216 577.8 219 565.2 219 544.5 c 2
 219 80 l 2
 219 72 223.48 70 228.994 70 c 16
EndSplineSet
Fore
SplineSet
248.994 70 m 2
 313 70 371.411 77.5361 410.438 116.563 c 0
 444.5 150.626 457 190 457 278.006 c 2
 457 520 l 2
 457 528 455 530 447 530 c 2
 385.4 530 l 2
 374.4 530 369.4 532 365.4 536 c 0
 361.4 540 359.4 545 359.4 556 c 2
 359.4 574 l 2
 359.4 585 361.4 590 365.4 594 c 0
 369.4 598 374.4 600 385.4 600 c 2
 471.5 600 l 2
 491.3 600 504.8 597 514.4 587.4 c 0
 524 577.8 527 565.2 527 544.5 c 2
 527.004 296 l 2
 527.005 245.901 526.316 204.744 517 167.5 c 0
 507.627 130.03 489.545 96.5459 463 70 c 0
 435.076 42.0771 402.435 23.2217 362.5 12.5 c 0
 326.737 2.89844 284.729 0 241.5 0 c 2
 80 0 l 2
 69 0 64 2 60 6 c 0
 56 10 54 15 54 26 c 2
 54 44 l 2
 54 55 56 60 60 64 c 0
 64 68 69 70 80 70 c 2
 149 70 l 2
 157 70 159 72 159 80 c 2
 159 520 l 2
 159 528 157 530 149 530 c 2
 76 530 l 2
 65 530 60 532 56 536 c 0
 52 540 50 545 50 556 c 2
 50 574 l 2
 50 585 52 590 56 594 c 0
 60 598 65 600 76 600 c 2
 173.5 600 l 2
 193.3 600 206.8 597 216.4 587.4 c 0
 226 577.8 229 565.2 229 544.5 c 2
 229 80 l 2
 229 72 233.375 70 238.994 70 c 2
 248.994 70 l 2
EndSplineSet
Substitution2: "MiscSAlt" uniFB20
Substitution2: "Single Substitution lookup 11 subtable" uniFB20
Comment: "%DiaToBase1+AD0A-290+AAoA%DiaToBase2+AD0A-290+AAoA%DiaToBase3+AD0A-290+AAoA%DiaToBaseU+AD0A-295+AAoA" 
EndChar

StartChar: afii57683
Encoding: 1507 1507 54
Width: 535
VWidth: 1000
Flags: MW
AnchorPoint: "DiaToBaseD" 296 76 basechar 0
LayerCount: 2
Fore
SplineSet
140 294 m 2
 233 294 l 2
 244 294 249 292 253 288 c 0
 257 284 259 279 259 268 c 2
 259 250 l 2
 259 239 257 234 253 230 c 0
 249 226 244 224 233 224 c 2
 134 224 l 2
 107.6 224 89.5996 228 76.7998 240.8 c 0
 64 253.6 60 270.4 60 298 c 2
 60 526 l 2
 60 553.6 64 570.4 76.7998 583.2 c 0
 89.5996 596 107.6 600 134 600 c 2
 385 600 l 2
 411.4 600 429.4 596 442.2 583.2 c 0
 455 570.4 459 553.6 459 526 c 2
 459 -60 l 2
 459 -68 461 -70 469 -70 c 2
 519 -70 l 2
 530 -70 535 -72 539 -76 c 0
 543 -80 545 -85 545 -96 c 2
 545 -114 l 2
 545 -125 543 -130 539 -134 c 0
 535 -138 530 -140 519 -140 c 2
 444.5 -140 l 2
 424.7 -140 411.2 -137 401.6 -127.4 c 0
 392 -117.8 389 -105.2 389 -84.5 c 2
 389 520 l 2
 389 528 387 530 379 530 c 2
 140 530 l 2
 132 530 130 528 130 520 c 2
 130 304 l 2
 130 296 132 294 140 294 c 2
EndSplineSet
EndChar

StartChar: afii57684
Encoding: 1508 1508 55
Width: 551
VWidth: 1000
Flags: MW
AnchorPoint: "DiaToBaseD" 290 98 basechar 0
AnchorPoint: "DiaToBaseU" 270 0 basechar 0
AnchorPoint: "DiaToBase3" 280 0 basechar 0
AnchorPoint: "DiaToBase2" 265 0 basechar 0
AnchorPoint: "DiaToBase1" 265 0 basechar 0
LayerCount: 2
Fore
SplineSet
411 122.5 m 2
 411 520 l 2
 411 528 409 530 401 530 c 2
 150 530 l 2
 142 530 140 528 140 520 c 2
 140 316 l 2
 140 308 142 306 150 306 c 2
 260 306 l 2
 271 306 276 304 280 300 c 0
 284 296 286 291 286 280 c 2
 286 262 l 2
 286 251 284 246 280 242 c 0
 276 238 271 236 260 236 c 2
 144 236 l 2
 117.6 236 99.5996 240 86.7998 252.8 c 0
 74 265.6 70 282.4 70 310 c 2
 70 526 l 2
 70 553.6 74 570.4 86.7998 583.2 c 0
 99.5996 596 117.6 600 144 600 c 2
 407 600 l 2
 433.4 600 451.4 596 464.2 583.2 c 0
 477 570.4 481 553.6 481 526 c 2
 481 120.25 l 2
 481 75.6504 474.5 48.0996 453.7 27.2998 c 0
 432.9 6.5 404.4 0 360.75 0 c 2
 96 0 l 2
 85 0 80 2 76 6 c 0
 72 10 70 15 70 26 c 2
 70 44 l 2
 70 55 72 60 76 64 c 0
 80 68 85 70 96 70 c 2
 358.5 70 l 2
 379.5 70 391.5 73.5 399.5 81.5 c 0
 407.5 89.5 411 99.5 411 122.5 c 2
EndSplineSet
Comment: "%DiaToBase1+AD0A-265+AAoA%DiaToBase2+AD0A-265+AAoA%DiaToBaseU+AD0A-270+AAoA%DiaToBase3+AD0A-280+AAoA" 
EndChar

StartChar: afii57685
Encoding: 1509 1509 56
Width: 586
VWidth: 1000
Flags: MW
LayerCount: 2
Back
SplineSet
456 520 m 0xe8
 456 528 454 530 446 530 c 2
 368.5 530 l 2
 357.5 530 352.5 532 348.5 536 c 0
 344.5 540 342.5 545 342.5 556 c 2
 342.5 574 l 2
 342.5 585 344.5 590 348.5 594 c 0
 352.5 598 357.5 600 368.5 600 c 2
 470.5 600 l 2
 490.3 600 503.8 597 513.4 587.4 c 0
 523 577.8 526 565 526 544.5 c 0
 526 490.92 521.024 443.851 504 402 c 0
 480 343 436.679 299.173 369.5 272 c 0
 325 254 275.5 245.5 236 241 c 0
 228.051 240.094 226 239 226 231 c 2
 226 -60 l 2xe8
 226 -68 228 -70 236 -70 c 2
 308 -70 l 2
 319 -70 324 -72 328 -76 c 0
 332 -80 334 -85 334 -96 c 2
 334 -114 l 2
 334 -125 332 -130 328 -134 c 0
 324 -138 319 -140 308 -140 c 2
 211.5 -140 l 2
 191.7 -140 178.2 -137 168.6 -127.4 c 0
 159 -117.8 156 -105.2 156 -84.5 c 2xd8
 156 520 l 2
 156 528 154 530 146 530 c 2
 76 530 l 2
 65 530 60 532 56 536 c 0
 52 540 50 545 50 556 c 2
 50 574 l 2
 50 585 52 590 56 594 c 0
 60 598 65 600 76 600 c 2
 170.5 600 l 2
 190.3 600 203.8 597 213.4 587.4 c 0
 223 577.8 226 565.2 226 544.5 c 2
 226 325 l 2
 226 317 228.338 314.738 236 315 c 0
 294.5 317 366.5 337.5 411 385 c 8
 448.943 425.501 456 477.5 456 520 c 0xe8
EndSplineSet
Fore
SplineSet
226 544.5 m 6
 226 325 l 2
 226 317 228.338 314.738 236 315 c 0
 269.635 316.15 308.732 322.415 343.5 337.412 c 0
 384.956 355.293 421.638 387.218 439.723 429 c 0
 452.894 459.427 456 491.804 456 520 c 0
 456 528 454 530 446 530 c 2
 368.5 530 l 2
 357.5 530 352.5 532 348.5 536 c 0
 344.5 540 342.5 545 342.5 556 c 2
 342.5 574 l 2
 342.5 585 344.5 590 348.5 594 c 0
 352.5 598 357.5 600 368.5 600 c 2
 470.5 600 l 2
 490.3 600 503.8 597 513.4 587.4 c 0
 523 577.8 526 565 526 544.5 c 0
 526 490.92 521.024 443.851 504 402 c 0
 480 343 436.679 298.173 369.5 271 c 0
 325 253 275.5 245.5 236 241 c 0
 228.051 240.094 226 239 226 231 c 2
 226 -60 l 2
 226 -68 228 -70 236 -70 c 2
 308 -70 l 2
 319 -70 324 -72 328 -76 c 0
 332 -80 334 -85 334 -96 c 2
 334 -114 l 2
 334 -125 332 -130 328 -134 c 0
 324 -138 319 -140 308 -140 c 2
 211.5 -140 l 2
 191.7 -140 178.2 -137 168.6 -127.4 c 0
 159 -117.8 156 -105.2 156 -84.5 c 2
 156 520 l 2
 156 528 154 530 146 530 c 2
 76 530 l 2
 65 530 60 532 56 536 c 0
 52 540 50 545 50 556 c 2
 50 574 l 2
 50 585 52 590 56 594 c 0
 60 598 65 600 76 600 c 2
 170.5 600 l 2
 190.3 600 203.8 597 213.4 587.4 c 0
 223 577.8 226 565.2 226 544.5 c 6
EndSplineSet
EndChar

StartChar: afii57686
Encoding: 1510 1510 57
Width: 586
VWidth: 1000
Flags: HMW
AnchorPoint: "DiaToBaseD" 246 -130 basechar 0
AnchorPoint: "DiaToBaseU" 280 0 basechar 0
AnchorPoint: "DiaToBase3" 280 0 basechar 0
AnchorPoint: "DiaToBase2" 280 0 basechar 0
AnchorPoint: "DiaToBase1" 280 0 basechar 0
LayerCount: 2
Back
SplineSet
216 507 m 2
 216 443 225.839 414.817 270 376 c 2
 305.5 344 l 2
 309.917 340.118 314.639 338.158 319.5 341.178 c 0
 349 359.5 379.5 385.5 400 408 c 8
 431.803 442.905 446 478 446 520 c 0
 446 528 444 530 436 530 c 2
 372 530 l 2
 361 530 356 532 352 536 c 0
 348 540 346 545 346 556 c 2
 346 574 l 2
 346 585 348 590 352 594 c 0
 356 598 361 600 372 600 c 2
 460 600 l 2
 480 600 494 597 503 587 c 0
 513 578 516 565 516 544 c 8
 516 461.438 490.5 397.5 436 348 c 0
 417.876 331.538 398 316.5 372 296.536 c 0
 368.619 293.94 368.583 289.882 373 286 c 2xe8
 427 238 l 2
 481.267 190.302 498 158 498 91 c 2
 498 56 l 2
 499 35 495 22 485 13 c 0
 476 3 462 0 442 0 c 2
 75 0 l 2
 64 0 59 2 55 6 c 0
 51 10 49 15 49 26 c 2
 49 44 l 2
 49 55 51 60 55 64 c 0
 59 68 64 70 75 70 c 2
 418 70 l 2
 426 70 428 72 428 80 c 2
 428 96.5 l 2xf0
 428 132.5 410.873 158.124 377 188 c 2
 216 330 l 2
 158 382 146 419 146 486 c 2
 146 520 l 2
 146 528 144 530 136 530 c 2
 66 530 l 2
 55 530 50 532 46 536 c 0
 42 540 40 545 40 556 c 2
 40 574 l 2
 40 585 42 590 46 594 c 0
 50 598 55 600 66 600 c 2
 160 600 l 2
 180 600 194 597 203 587 c 0
 213 578 216 565 216 544 c 2
 216 507 l 2
EndSplineSet
Fore
SplineSet
372.999 273.665 m 2
 427 230.338 l 2
 483.401 185.085 498 158 498 91 c 2
 498 56 l 2
 499 35 495 22 485 13 c 0
 476 3 462 0 442 0 c 2
 85 0 l 2
 74 0 69 2 65 6 c 0
 61 10 59 15 59 26 c 2
 59 44 l 2
 59 55 61 60 65 64 c 0
 69 68 74 70 85 70 c 2
 418 70 l 2
 426 70 428 72 428 80 c 2
 428 96.5 l 2
 428 132.5 412.827 156.778 377 184.668 c 2
 216 310 l 2
 160.281 353.375 146 399 146 466 c 2
 146 520 l 2
 146 528 144 530 136 530 c 2
 76 530 l 2
 65 530 60 532 56 536 c 0
 52 540 50 545 50 556 c 2
 50 574 l 2
 50 585 52 590 56 594 c 0
 60 598 65 600 76 600 c 2
 160 600 l 2
 180 600 194 597 203 587 c 0
 213 578 216 565 216 544 c 2
 216 487 l 2
 216 423 225.772 391.102 270.003 355.996 c 2
 305.498 327.823 l 2
 310.105 324.167 314.638 321.98 319.499 325 c 0
 348.999 343.322 379.499 369.322 399.999 391.822 c 8
 435.769 431.082 446 478 446 520 c 0
 446 528 444 530 436 530 c 2
 382 530 l 2
 371 530 366 532 362 536 c 0
 358 540 356 545 356 556 c 2
 356 574 l 2
 356 585 358 590 362 594 c 0
 366 598 371 600 382 600 c 2
 460 600 l 2
 480 600 494 597 503 587 c 0
 513 578 516 565 516 544 c 8
 516 456.965 490.5 385.165 436 335.665 c 0
 417.876 319.203 398 304.165 372 284.201 c 0
 368.619 281.605 368.413 277.345 372.999 273.665 c 2
EndSplineSet
Comment: "%DiaToBase1+AD0A-280+AAoA%DiaToBase2+AD0A-280+AAoA%DiaToBaseU+AD0A-280+AAoA%DiaToBase3+AD0A-280+AAoA" 
EndChar

StartChar: afii57687
Encoding: 1511 1511 58
Width: 553
VWidth: 1000
Flags: MW
AnchorPoint: "DiaToBaseD" 284 80 basechar 0
AnchorPoint: "DiaToBaseU" 350 0 basechar 0
AnchorPoint: "DiaToBase3" 365 0 basechar 0
AnchorPoint: "DiaToBase2" 330 0 basechar 0
AnchorPoint: "DiaToBase1" 260 0 basechar 0
LayerCount: 2
Back
SplineSet
473 374 m 2
 473 329 460 299 436 270 c 2
 318 128 l 2
 311 120 308 112 308 100 c 2
 308 80 l 2
 308 72 310 70 318 70 c 2
 366 70 l 2
 377 70 382 68 386 64 c 0
 390 60 392 55 392 44 c 2
 392 26 l 2
 392 15 390 10 386 6 c 0
 382 2 377 0 366 0 c 2
 294 0 l 2
 274 0 260 3 251 13 c 0
 241 22 238 35 238 56 c 2
 238 100 l 2
 238 132 247 153 263 172 c 2
 380 312 l 2
 395 330 403 353 403 384 c 2
 403 478 l 2
 403 500 400 510 392 518 c 0
 384 526 372 530 351 530 c 2
 76 530 l 2
 65 530 60 532 56 536 c 0
 52 540 50 545 50 556 c 2
 50 574 l 2
 50 585 52 590 56 594 c 0
 60 598 65 600 76 600 c 2
 353 600 l 2
 397 600 425 594 446 573 c 0
 467 552 473 525 473 480 c 2
 473 374 l 2
154 -114 m 2
 154 -125 152 -130 148 -134 c 0
 144 -138 139 -140 128 -140 c 2
 110 -140 l 2
 99 -140 94 -138 90 -134 c 0
 86 -130 84 -125 84 -114 c 2
 84 398 l 2
 84 409 86 414 90 418 c 0
 94 422 99 424 110 424 c 2
 128 424 l 2
 139 424 144 422 148 418 c 0
 152 414 154 409 154 398 c 2
 154 -114 l 2
EndSplineSet
Fore
SplineSet
493 374 m 2
 493 329 480 299 456 270 c 2
 328 128 l 2
 320.883 120.104 318 112 318 100 c 2
 318 80 l 2
 318 72 320 70 328 70 c 2
 376 70 l 2
 387 70 392 68 396 64 c 0
 400 60 402 55 402 44 c 2
 402 26 l 2
 402 15 400 10 396 6 c 0
 392 2 387 0 376 0 c 2
 304 0 l 2
 284 0 270 3 261 13 c 0
 251 22 248 35 248 56 c 2
 248 100 l 2
 248 132 256.311 153.603 273 172 c 2
 400 312 l 2
 415 330 423 353 423 384 c 2
 423 478 l 2
 423 500 420 510 412 518 c 0
 404 526 392 530 371 530 c 2
 86 530 l 2
 75 530 70 532 66 536 c 0
 62 540 60 545 60 556 c 2
 60 574 l 2
 60 585 62 590 66 594 c 0
 70 598 75 600 86 600 c 2
 373 600 l 2
 417 600 445 594 466 573 c 0
 487 552 493 525 493 480 c 2
 493 374 l 2
164 -114 m 2
 164 -125 162 -130 158 -134 c 0
 154 -138 149 -140 138 -140 c 2
 120 -140 l 2
 109 -140 104 -138 100 -134 c 0
 96 -130 94 -125 94 -114 c 2
 94 398 l 2
 94 409 96 414 100 418 c 0
 104 422 109 424 120 424 c 2
 138 424 l 2
 149 424 154 422 158 418 c 0
 162 414 164 409 164 398 c 2
 164 -114 l 2
EndSplineSet
Comment: "%DiaToBase1+AD0A-260+AAoA%DiaToBase2+AD0A-330+AAoA%DiaToBaseU+AD0A-350+AAoA%DiaToBase3+AD0A-365+AAoA" 
EndChar

StartChar: afii57688
Encoding: 1512 1512 59
Width: 517
VWidth: 1000
Flags: MW
AnchorPoint: "DiaToBaseD" 258 0 basechar 0
AnchorPoint: "DiaToBaseU" 350 0 basechar 0
AnchorPoint: "DiaToBase3" 350 0 basechar 0
AnchorPoint: "DiaToBase2" 350 0 basechar 0
AnchorPoint: "DiaToBase1" 403 0 basechar 0
LayerCount: 2
Fore
SplineSet
326.75 600 m 2
 370.4 600 398.9 593.5 419.7 572.7 c 0
 440.5 551.9 447 524.6 447 479.75 c 2
 447 26 l 2
 447 15 445 10 441 6 c 0
 437 2 432 0 421 0 c 2
 403 0 l 2
 392 0 387 2 383 6 c 0
 379 10 377 15 377 26 c 2
 377 477.5 l 2
 377 500 373.5 510.5 365.5 518.5 c 0
 357.5 526.5 345.5 530 324.5 530 c 2
 76 530 l 2
 65 530 60 532 56 536 c 0
 52 540 50 545 50 556 c 2
 50 574 l 2
 50 585 52 590 56 594 c 0
 60 598 65 600 76 600 c 2
 326.75 600 l 2
EndSplineSet
Substitution2: "WideLetters" uniFB27
Comment: "%DiaToBase1+AD0A-403+AAoA%DiaToBase2+AD0A-350+AAoA%DiaToBaseU+AD0A-350+AAoA%DiaToBase3+AD0A-350+AAoA" 
EndChar

StartChar: afii57689
Encoding: 1513 1513 60
Width: 696
VWidth: 1000
Flags: MW
AnchorPoint: "DiaToBaseD" 470 0 basechar 0
AnchorPoint: "DiaToBaseU" 350 0 basechar 0
AnchorPoint: "DiaToBase3" 350 0 basechar 0
AnchorPoint: "DiaToBase2" 348 0 basechar 0
AnchorPoint: "DiaToBase1" 348 0 basechar 0
LayerCount: 2
Fore
SplineSet
303 70 m 2
 311 70 313 72 313 80 c 2
 313 574 l 2
 313 585 315 590 319 594 c 0
 323 598 328 600 339 600 c 2
 357 600 l 2
 368 600 373 598 377 594 c 0
 381 590 383 585 383 574 c 6
 383 80 l 2
 383 72 385 70 393 70 c 2
 451 70 l 2
 492 70 517 77 533 93 c 0
 549 109 556 130 556 175 c 2
 556 520 l 2
 556 528 554 530 546 530 c 2
 514 530 l 2
 503 530 498 532 494 536 c 0
 490 540 488 545 488 556 c 2
 488 574 l 2
 488 585 490 590 494 594 c 0
 498 598 503 600 514 600 c 2
 570.5 600 l 2
 590.3 600 603.8 597 613.4 587.4 c 0
 623 577.8 626 565.2 626 544.5 c 2
 626 185 l 2
 626 116 616 74 584 42 c 0
 552 10 507 0 441 0 c 2
 255 0 l 2
 189 0 144 10 112 42 c 0
 80 74 70 116 70 185 c 2
 70 544.5 l 2
 70 565.2 73 577.8 82.5996 587.4 c 0
 92.2002 597 105.7 600 125.5 600 c 2
 182 600 l 2
 193 600 198 598 202 594 c 0
 206 590 208 585 208 574 c 2
 208 556 l 2
 208 545 206 540 202 536 c 0
 198 532 193 530 182 530 c 2
 150 530 l 2
 142 530 140 528 140 520 c 2
 140 175 l 2
 140 130 147 109 163 93 c 0
 179 77 204 70 245 70 c 2
 303 70 l 2
EndSplineSet
Comment: "%DiaToBase1+AD0A-348+AAoA%DiaToBase2+AD0A-348+AAoA%DiaToBaseU+AD0A-350+AAoA%DiaToBase3+AD0A-350+AAoA" 
EndChar

StartChar: afii57690
Encoding: 1514 1514 61
Width: 624
VWidth: 1000
Flags: MW
AnchorPoint: "DiaToBaseD" 353 0 basechar 0
AnchorPoint: "DiaToBaseU" 340 0 basechar 0
AnchorPoint: "DiaToBase3" 320 0 basechar 0
AnchorPoint: "DiaToBase2" 340 0 basechar 0
AnchorPoint: "DiaToBase1" 340 0 basechar 0
LayerCount: 2
Back
SplineSet
131 530 m 2
 69 530 l 2
 58 530 53 532 49 536 c 0
 45 540 43 545 43 556 c 2
 43 574 l 2
 43 585 45 590 49 594 c 0
 53 598 58 600 69 600 c 2
 433.75 600 l 6
 477.4 600 505.9 593.5 526.7 572.7 c 4
 547.5 551.9 554 524.6 554 479.75 c 6
 554 26 l 6
 554 15 552 10 548 6 c 4
 544 2 539 0 528 0 c 6
 510 0 l 6
 499 0 494 2 490 6 c 4
 486 10 484 15 484 26 c 6
 484 477.5 l 6
 484 500 480.5 510.5 472.5 518.5 c 4
 464.5 526.5 452.5 530 431.5 530 c 6
 221 530 l 2
 213 530 211 528 211 520 c 2
 211 74 l 2
 211 46.4004 207 29.5996 194.2 16.7998 c 0
 181.4 4 163.4 0 137 0 c 2
 66 0 l 2
 55 0 50 2 46 6 c 0
 42 10 40 15 40 26 c 2
 40 44 l 2
 40 55 42 60 46 64 c 0
 50 68 55 70 66 70 c 2
 131 70 l 2
 139 70 141 72 141 80 c 2
 141 520 l 2
 141 528 139 530 131 530 c 2
EndSplineSet
Fore
SplineSet
141 530 m 2
 79 530 l 2
 68 530 63 532 59 536 c 0
 55 540 53 545 53 556 c 2
 53 574 l 2
 53 585 55 590 59 594 c 0
 63 598 68 600 79 600 c 2
 433.75 600 l 6
 477.4 600 505.9 593.5 526.7 572.7 c 4
 547.5 551.9 554 524.6 554 479.75 c 6
 554 26 l 6
 554 15 552 10 548 6 c 4
 544 2 539 0 528 0 c 6
 510 0 l 6
 499 0 494 2 490 6 c 4
 486 10 484 15 484 26 c 6
 484 477.5 l 6
 484 500 480.5 510.5 472.5 518.5 c 4
 464.5 526.5 452.5 530 431.5 530 c 6
 231 530 l 2
 223 530 221 528 221 520 c 2
 221 74 l 2
 221 46.4004 217 29.5996 204.2 16.7998 c 0
 191.4 4 173.4 0 147 0 c 2
 76 0 l 2
 65 0 60 2 56 6 c 0
 52 10 50 15 50 26 c 2
 50 44 l 2
 50 55 52 60 56 64 c 0
 60 68 65 70 76 70 c 2
 141 70 l 2
 149 70 151 72 151 80 c 2
 151 520 l 2
 151 528 149 530 141 530 c 2
EndSplineSet
Substitution2: "WideLetters" uniFB28
Comment: "%DiaToBase1+AD0A-340+AAoA%DiaToBase2+AD0A-340+AAoA%DiaToBaseU+AD0A-340+AAoA%DiaToBase3+AD0A-320+AAoA" 
EndChar

StartChar: afii57636
Encoding: 8362 8362 64
Width: 823
VWidth: 1000
Flags: HMW
LayerCount: 2
Fore
SplineSet
411.5 530 m 2
 150 530 l 2
 142 530 140 528 140 520 c 2
 140 26 l 2
 140 15 138 10 134 6 c 0
 130 2 125 0 114 0 c 2
 96 0 l 2
 85 0 80 2 76 6 c 0
 72 10 70 15 70 26 c 2
 70 526 l 2
 70 553.6 74 570.4 86.7998 583.2 c 0
 99.5996 596 117.6 600 144 600 c 2
 413.75 600 l 2
 457.4 600 485.9 593.5 506.7 572.7 c 0
 527.5 551.9 534 524.6 534 479.75 c 2
 534 229 l 2
 534 218 532 213 528 209 c 0
 524 205 519 203 508 203 c 2
 490 203 l 2
 479 203 474 205 470 209 c 0
 466 213 464 218 464 229 c 2
 464 477.5 l 2
 464 500 460.5 510.5 452.5 518.5 c 0
 444.5 526.5 432.5 530 411.5 530 c 2
337 366 m 2
 337 80 l 2
 337 72 339 70 347 70 c 2
 578 70 l 2
 619 70 644 77 660 93 c 0
 676 109 683 130 683 175 c 2
 683 520 l 2
 683 528 681 530 673 530 c 2
 641 530 l 2
 630 530 625 532 621 536 c 0
 617 540 615 545 615 556 c 2
 615 574 l 2
 615 585 617 590 621 594 c 0
 625 598 630 600 641 600 c 2
 697.5 600 l 2
 717.3 600 730.8 597 740.4 587.4 c 0
 750 577.8 753 565.2 753 544.5 c 2
 753 185 l 2
 753 116 743 74 711 42 c 0
 679 10 634 0 568 0 c 2
 341 0 l 2
 314.6 0 296.6 4 283.8 16.7998 c 0
 271 29.5996 267 46.4004 267 74 c 2
 267 366 l 2
 267 377 269 382 273 386 c 0
 277 390 282 392 293 392 c 2
 311 392 l 2
 322 392 327 390 331 386 c 0
 335 382 337 377 337 366 c 2
EndSplineSet
EndChar

StartChar: SF110000
Encoding: 9474 9474 65
Width: 270
VWidth: 940
Flags: MW
LayerCount: 2
Fore
SplineSet
170 -274 m 2
 170 -285 168 -290 164 -294 c 0
 160 -298 155 -300 144 -300 c 2
 126 -300 l 2
 115 -300 110 -298 106 -294 c 0
 102 -290 100 -285 100 -274 c 2
 100 874 l 2
 100 885 102 890 106 894 c 0
 110 898 115 900 126 900 c 2
 144 900 l 2
 155 900 160 898 164 894 c 0
 168 890 170 885 170 874 c 2
 170 -274 l 2
EndSplineSet
EndChar

StartChar: afii57799
Encoding: 1456 1456 66
Width: 0
VWidth: 1000
Flags: HMW
AnchorPoint: "DiaToBase1" 0 0 mark 0
LayerCount: 2
Fore
SplineSet
35 -214 m 0
 35 -227 34 -234 30 -240 c 0
 24 -251 12 -254 0 -254 c 0
 -13 -254 -24 -251 -30 -240 c 0
 -34 -234 -35 -227 -35 -214 c 0
 -35 -201 -34 -194 -30 -187 c 0
 -24 -177 -13 -174 0 -174 c 0
 12 -174 24 -177 30 -187 c 0
 34 -194 35 -201 35 -214 c 0
35 -91 m 0
 35 -104 34 -111 30 -118 c 0
 24 -128 12 -131 0 -131 c 0
 -13 -131 -24 -128 -30 -118 c 0
 -34 -111 -35 -104 -35 -91 c 0
 -35 -78 -34 -71 -30 -65 c 0
 -24 -54 -13 -51 0 -51 c 0
 12 -51 24 -54 30 -65 c 0
 34 -71 35 -78 35 -91 c 0
EndSplineSet
EndChar

StartChar: afii57795
Encoding: 1462 1462 67
Width: 0
VWidth: 1000
Flags: HMW
AnchorPoint: "DiaToBase2" 0 0 mark 0
LayerCount: 2
Back
SplineSet
-29 -86 m 0
 -29 -99 -30 -106 -34 -113 c 0
 -41 -123 -52 -126 -65 -126 c 0
 -78 -126 -88 -123 -95 -113 c 0
 -99 -106 -100 -99 -100 -86 c 0
 -100 -73 -99 -66 -95 -60 c 0
 -88 -49 -78 -46 -65 -46 c 0
 -52 -46 -41 -49 -34 -60 c 0
 -30 -66 -29 -73 -29 -86 c 0
35 -209 m 0
 35 -222 34 -229 30 -235 c 0
 24 -246 12 -249 0 -249 c 0
 -13 -249 -24 -246 -30 -235 c 0
 -34 -229 -35 -222 -35 -209 c 0
 -35 -196 -34 -189 -30 -182 c 0
 -24 -172 -13 -169 0 -169 c 0
 12 -169 24 -172 30 -182 c 0
 34 -189 35 -196 35 -209 c 0
101 -86 m 0
 101 -99 100 -106 96 -113 c 0
 89 -123 78 -126 65 -126 c 0
 52 -126 42 -123 35 -113 c 0
 31 -106 30 -99 30 -86 c 0
 30 -73 31 -66 35 -60 c 0
 42 -49 52 -46 65 -46 c 0
 78 -46 89 -49 96 -60 c 0
 100 -66 101 -73 101 -86 c 0
EndSplineSet
Fore
SplineSet
-29 -91 m 0
 -29 -104 -30 -111 -34 -118 c 0
 -41 -128 -52 -131 -65 -131 c 0
 -78 -131 -88 -128 -95 -118 c 0
 -99 -111 -100 -104 -100 -91 c 0
 -100 -78 -99 -71 -95 -65 c 0
 -88 -54 -78 -51 -65 -51 c 0
 -52 -51 -41 -54 -34 -65 c 0
 -30 -71 -29 -78 -29 -91 c 0
35 -214 m 0
 35 -227 34 -234 30 -240 c 0
 24 -251 12 -254 0 -254 c 0
 -13 -254 -24 -251 -30 -240 c 0
 -34 -234 -35 -227 -35 -214 c 0
 -35 -201 -34 -194 -30 -187 c 0
 -24 -177 -13 -174 0 -174 c 0
 12 -174 24 -177 30 -187 c 0
 34 -194 35 -201 35 -214 c 0
101 -91 m 0
 101 -104 100 -111 96 -118 c 0
 89 -128 78 -131 65 -131 c 0
 52 -131 42 -128 35 -118 c 0
 31 -111 30 -104 30 -91 c 0
 30 -78 31 -71 35 -65 c 0
 42 -54 52 -51 65 -51 c 0
 78 -51 89 -54 96 -65 c 0
 100 -71 101 -78 101 -91 c 0
EndSplineSet
EndChar

StartChar: afii57798
Encoding: 1463 1463 68
Width: 0
VWidth: 1000
Flags: MW
AnchorPoint: "DiaToBase2" 0 0 mark 0
LayerCount: 2
Back
SplineSet
87.5 -112 m 2
 -87.5 -112 l 2
 -98.5 -112 -103.5 -110 -107.5 -106 c 0
 -111.5 -102 -113.5 -97 -113.5 -86 c 2
 -113.5 -82 l 6
 -113.5 -71 -111.5 -66 -107.5 -62 c 4
 -103.5 -58 -98.5 -56 -87.5 -56 c 6
 87.5 -56 l 6
 98.5 -56 103.5 -58 107.5 -62 c 4
 111.5 -66 113.5 -71 113.5 -82 c 6
 113.5 -86 l 2
 113.5 -97 111.5 -102 107.5 -106 c 0
 103.5 -110 98.5 -112 87.5 -112 c 2
EndSplineSet
Fore
SplineSet
113.5 -86 m 0
 113.5 -97 111.5 -102 107.5 -106 c 0
 103.5 -110 98.5 -112 87.5 -112 c 2
 -87.5 -112 l 2
 -98.5 -112 -103.5 -110 -107.5 -106 c 0
 -111.5 -102 -113.5 -97 -113.5 -86 c 0
 -113.5 -75 -111.5 -70 -107.5 -66 c 0
 -103.5 -62 -98.5 -60 -87.5 -60 c 2
 87.5 -60 l 2
 98.5 -60 103.5 -62 107.5 -66 c 0
 111.5 -70 113.5 -75 113.5 -86 c 0
EndSplineSet
EndChar

StartChar: afii57794
Encoding: 1461 1461 69
Width: 0
VWidth: 1000
Flags: HMW
AnchorPoint: "DiaToBase2" 0 0 mark 0
LayerCount: 2
Back
SplineSet
-29 -86 m 0
 -29 -99 -30 -106 -34 -113 c 0
 -41 -123 -52 -126 -65 -126 c 0
 -78 -126 -88 -123 -95 -113 c 0
 -99 -106 -100 -99 -100 -86 c 0
 -100 -73 -99 -66 -95 -60 c 0
 -88 -49 -78 -46 -65 -46 c 0
 -52 -46 -41 -49 -34 -60 c 0
 -30 -66 -29 -73 -29 -86 c 0
101 -86 m 0
 101 -99 100 -106 96 -113 c 0
 89 -123 78 -126 65 -126 c 0
 52 -126 42 -123 35 -113 c 0
 31 -106 30 -99 30 -86 c 0
 30 -73 31 -66 35 -60 c 0
 42 -49 52 -46 65 -46 c 0
 78 -46 89 -49 96 -60 c 0
 100 -66 101 -73 101 -86 c 0
EndSplineSet
Fore
SplineSet
-29 -91 m 0
 -29 -104 -30 -111 -34 -118 c 0
 -41 -128 -52 -131 -65 -131 c 0
 -78 -131 -88 -128 -95 -118 c 0
 -99 -111 -100 -104 -100 -91 c 0
 -100 -78 -99 -71 -95 -65 c 0
 -88 -54 -78 -51 -65 -51 c 0
 -52 -51 -41 -54 -34 -65 c 0
 -30 -71 -29 -78 -29 -91 c 0
101 -91 m 0
 101 -104 100 -111 96 -118 c 0
 89 -128 78 -131 65 -131 c 0
 52 -131 42 -128 35 -118 c 0
 31 -111 30 -104 30 -91 c 0
 30 -78 31 -71 35 -65 c 0
 42 -54 52 -51 65 -51 c 0
 78 -51 89 -54 96 -65 c 0
 100 -71 101 -78 101 -91 c 0
EndSplineSet
EndChar

StartChar: afii57793
Encoding: 1460 1460 70
Width: 0
VWidth: 1000
Flags: HMW
AnchorPoint: "DiaToBase1" 0 0 mark 0
LayerCount: 2
Back
SplineSet
35.5 -86 m 0
 35.5 -99 34.5 -106 30.5 -113 c 0
 23.5 -123 12.5 -126 -0.5 -126 c 0
 -13.5 -126 -23.5 -123 -30.5 -113 c 0
 -34.5 -106 -35.5 -99 -35.5 -86 c 0
 -35.5 -73 -34.5 -66 -30.5 -60 c 0
 -23.5 -49 -13.5 -46 -0.5 -46 c 0
 12.5 -46 23.5 -49 30.5 -60 c 0
 34.5 -66 35.5 -73 35.5 -86 c 0
EndSplineSet
Fore
SplineSet
35.5 -91 m 0
 35.5 -104 34.5 -111 30.5 -118 c 0
 23.5 -128 12.5 -131 -0.5 -131 c 0
 -13.5 -131 -23.5 -128 -30.5 -118 c 0
 -34.5 -111 -35.5 -104 -35.5 -91 c 0
 -35.5 -78 -34.5 -71 -30.5 -65 c 0
 -23.5 -54 -13.5 -51 -0.5 -51 c 0
 12.5 -51 23.5 -54 30.5 -65 c 0
 34.5 -71 35.5 -78 35.5 -91 c 0
EndSplineSet
EndChar

StartChar: afii57801
Encoding: 1457 1457 71
Width: 0
VWidth: 1000
Flags: HMW
AnchorPoint: "DiaToBase3" 0 0 mark 0
LayerCount: 2
Fore
SplineSet
166.25 -214 m 0
 166.25 -227 165.25 -234 161.25 -240 c 0
 155.25 -251 143.25 -254 131.25 -254 c 0
 118.25 -254 107.25 -251 101.25 -240 c 0
 97.25 -234 96.25 -227 96.25 -214 c 0
 96.25 -201 97.25 -194 101.25 -187 c 0
 107.25 -177 118.25 -174 131.25 -174 c 0
 143.25 -174 155.25 -177 161.25 -187 c 0
 165.25 -194 166.25 -201 166.25 -214 c 0
166.25 -91 m 0
 166.25 -104 165.25 -111 161.25 -118 c 0
 155.25 -128 143.25 -131 131.25 -131 c 0
 118.25 -131 107.25 -128 101.25 -118 c 0
 97.25 -111 96.25 -104 96.25 -91 c 0
 96.25 -78 97.25 -71 101.25 -65 c 0
 107.25 -54 118.25 -51 131.25 -51 c 0
 143.25 -51 155.25 -54 161.25 -65 c 0
 165.25 -71 166.25 -78 166.25 -91 c 0
-95.25 -91 m 0
 -95.25 -104 -96.25 -111 -100.25 -118 c 0
 -107.25 -128 -118.25 -131 -131.25 -131 c 0
 -144.25 -131 -154.25 -128 -161.25 -118 c 0
 -165.25 -111 -166.25 -104 -166.25 -91 c 0
 -166.25 -78 -165.25 -71 -161.25 -65 c 0
 -154.25 -54 -144.25 -51 -131.25 -51 c 0
 -118.25 -51 -107.25 -54 -100.25 -65 c 0
 -96.25 -71 -95.25 -78 -95.25 -91 c 0
-31.25 -214 m 0
 -31.25 -227 -32.25 -234 -36.25 -240 c 0
 -42.25 -251 -54.25 -254 -66.25 -254 c 0
 -79.25 -254 -90.25 -251 -96.25 -240 c 0
 -100.25 -234 -101.25 -227 -101.25 -214 c 0
 -101.25 -201 -100.25 -194 -96.25 -187 c 0
 -90.25 -177 -79.25 -174 -66.25 -174 c 0
 -54.25 -174 -42.25 -177 -36.25 -187 c 0
 -32.25 -194 -31.25 -201 -31.25 -214 c 0
34.75 -91 m 0
 34.75 -104 33.75 -111 29.75 -118 c 0
 22.75 -128 11.75 -131 -1.25 -131 c 0
 -14.25 -131 -24.25 -128 -31.25 -118 c 0
 -35.25 -111 -36.25 -104 -36.25 -91 c 0
 -36.25 -78 -35.25 -71 -31.25 -65 c 0
 -24.25 -54 -14.25 -51 -1.25 -51 c 0
 11.75 -51 22.75 -54 29.75 -65 c 0
 33.75 -71 34.75 -78 34.75 -91 c 0
EndSplineSet
EndChar

StartChar: afii57800
Encoding: 1458 1458 72
Width: 0
VWidth: 1000
Flags: HMW
AnchorPoint: "DiaToBase3" 0 0 mark 0
LayerCount: 2
Fore
SplineSet
165.5 -213.999 m 4
 165.5 -226.999 164.5 -233.999 160.5 -239.999 c 4
 154.5 -250.999 142.5 -253.999 130.5 -253.999 c 4
 117.5 -253.999 106.5 -250.999 100.5 -239.999 c 4
 96.5 -233.999 95.5 -226.999 95.5 -213.999 c 4
 95.5 -200.999 96.5 -193.999 100.5 -186.999 c 4
 106.5 -176.999 117.5 -173.999 130.5 -173.999 c 4
 142.5 -173.999 154.5 -176.999 160.5 -186.999 c 4
 164.5 -193.999 165.5 -200.999 165.5 -213.999 c 4
165.5 -90.999 m 4
 165.5 -103.999 164.5 -110.999 160.5 -117.999 c 4
 154.5 -127.999 142.5 -130.999 130.5 -130.999 c 4
 117.5 -130.999 106.5 -127.999 100.5 -117.999 c 4
 96.5 -110.999 95.5 -103.999 95.5 -90.999 c 4
 95.5 -77.999 96.5 -70.999 100.5 -64.999 c 4
 106.5 -53.999 117.5 -50.999 130.5 -50.999 c 4
 142.5 -50.999 154.5 -53.999 160.5 -64.999 c 4
 164.5 -70.999 165.5 -77.999 165.5 -90.999 c 4
40.9971 -86 m 0
 40.9971 -97 38.9971 -102 34.9971 -106 c 0
 30.9971 -110 25.9971 -112 14.9971 -112 c 2
 -139.5 -112 l 2
 -150.5 -112 -155.5 -110 -159.5 -106 c 0
 -163.5 -102 -165.5 -97 -165.5 -86 c 0
 -165.5 -75 -163.5 -70 -159.5 -66 c 0
 -155.5 -62 -150.5 -60 -139.5 -60 c 2
 14.9971 -60 l 2
 25.9971 -60 30.9971 -62 34.9971 -66 c 0
 38.9971 -70 40.9971 -75 40.9971 -86 c 0
EndSplineSet
EndChar

StartChar: afii57797
Encoding: 1464 1464 73
Width: 0
VWidth: 1000
Flags: MW
AnchorPoint: "DiaToBase2" 0 0 mark 0
LayerCount: 2
Fore
SplineSet
26.5 -180 m 2
 26.5 -191.511 24 -196.5 20 -200.5 c 0
 16 -204.5 11 -206.5 0 -206.5 c 0
 -11 -206.5 -16 -204.5 -20 -200.5 c 0
 -24 -196.5 -26 -191.502 -26 -180.5 c 2
 -26 -122 l 2
 -26 -114.001 -28 -112 -36 -112 c 2
 -87.5 -112 l 2
 -98.499 -112 -103.5 -110 -107.5 -106 c 0
 -111.5 -102 -113.5 -97 -113.5 -86 c 0
 -113.5 -75 -111.5 -70 -107.5 -66 c 0
 -103.5 -62 -98.5 -60 -87.5 -60 c 2
 87.5 -60 l 2
 98.5 -60 103.5 -62 107.5 -66 c 0
 111.5 -70 113.5 -75 113.5 -86 c 0
 113.5 -97 111.5 -102 107.5 -106 c 0
 103.5 -110 98.502 -112 87.5 -112 c 2
 36.5 -112 l 2
 28.5 -112 26.5 -114.001 26.5 -122 c 2
 26.5 -180 l 2
EndSplineSet
EndChar

StartChar: afii57802
Encoding: 1459 1459 74
Width: 0
VWidth: 1000
Flags: HMW
AnchorPoint: "DiaToBase3" 0 0 mark 0
LayerCount: 2
Back
SplineSet
165.664 -208.999 m 0
 165.664 -221.999 164.664 -228.999 160.664 -234.999 c 0
 154.664 -245.999 142.664 -248.999 130.664 -248.999 c 0
 117.664 -248.999 106.664 -245.999 100.664 -234.999 c 0
 96.6641 -228.999 95.6641 -221.999 95.6641 -208.999 c 0
 95.6641 -195.999 96.6641 -188.999 100.664 -181.999 c 0
 106.664 -171.999 117.664 -168.999 130.664 -168.999 c 0
 142.664 -168.999 154.664 -171.999 160.664 -181.999 c 0
 164.664 -188.999 165.664 -195.999 165.664 -208.999 c 0
165.664 -85.999 m 0
 165.664 -98.999 164.664 -105.999 160.664 -112.999 c 0
 154.664 -122.999 142.664 -125.999 130.664 -125.999 c 0
 117.664 -125.999 106.664 -122.999 100.664 -112.999 c 0
 96.6641 -105.999 95.6641 -98.999 95.6641 -85.999 c 0
 95.6641 -72.999 96.6641 -65.999 100.664 -59.999 c 0
 106.664 -48.999 117.664 -45.999 130.664 -45.999 c 0
 142.664 -45.999 154.664 -48.999 160.664 -59.999 c 0
 164.664 -65.999 165.664 -72.999 165.664 -85.999 c 0
-35.6641 -180 m 2
 -35.6641 -191.511 -38.1641 -196.5 -42.1641 -200.5 c 0
 -46.1641 -204.5 -51.1641 -206.5 -62.1641 -206.5 c 0
 -73.1641 -206.5 -78.1641 -204.5 -82.1641 -200.5 c 0
 -86.1641 -196.5 -88.1641 -191.502 -88.1641 -180.5 c 2
 -88.1641 -122 l 2
 -88.1641 -114.001 -90.1641 -112 -98.1641 -112 c 2
 -139.664 -112 l 2
 -150.662 -112 -155.664 -110 -159.664 -106 c 0
 -163.664 -102 -165.664 -97 -165.664 -86 c 0
 -165.664 -75 -163.664 -70 -159.664 -66 c 0
 -155.664 -62 -150.664 -60 -139.664 -60 c 2
 15.3359 -60 l 2
 26.3359 -60 31.3359 -62 35.3359 -66 c 0
 39.3359 -70 41.3359 -75 41.3359 -86 c 0
 41.3359 -97 39.3359 -102 35.3359 -106 c 0
 31.3359 -110 26.3379 -112 15.3359 -112 c 2
 -25.6641 -112 l 2
 -33.6641 -112 -35.6641 -114.001 -35.6641 -122 c 2
 -35.6641 -180 l 2
EndSplineSet
Fore
SplineSet
-35.5 -218.5 m 2
 -35.5 -230.011 -38 -235 -42 -239 c 0
 -46 -243 -51 -245 -62 -245 c 0
 -73 -245 -78 -243 -82 -239 c 0
 -86 -235 -88 -230.002 -88 -219 c 2
 -88 -122 l 2
 -88 -114.001 -90 -112 -98 -112 c 2
 -139.5 -112 l 2
 -150.499 -112 -155.5 -110 -159.5 -106 c 0
 -163.5 -102 -165.5 -97 -165.5 -86 c 0
 -165.5 -75 -163.5 -70 -159.5 -66 c 0
 -155.5 -62 -150.5 -60 -139.5 -60 c 2
 15.5 -60 l 2
 26.5 -60 31.5 -62 35.5 -66 c 0
 39.5 -70 41.5 -75 41.5 -86 c 0
 41.5 -97 39.5 -102 35.5 -106 c 0
 31.5 -110 26.502 -112 15.5 -112 c 2
 -25.5 -112 l 2
 -33.5 -112 -35.5 -114.001 -35.5 -122 c 2
 -35.5 -218.5 l 2
165.664 -213.999 m 0
 165.664 -226.999 164.664 -233.999 160.664 -239.999 c 0
 154.664 -250.999 142.664 -253.999 130.664 -253.999 c 0
 117.664 -253.999 106.664 -250.999 100.664 -239.999 c 0
 96.6641 -233.999 95.6641 -226.999 95.6641 -213.999 c 0
 95.6641 -200.999 96.6641 -193.999 100.664 -186.999 c 0
 106.664 -176.999 117.664 -173.999 130.664 -173.999 c 0
 142.664 -173.999 154.664 -176.999 160.664 -186.999 c 0
 164.664 -193.999 165.664 -200.999 165.664 -213.999 c 0
165.664 -90.999 m 0
 165.664 -103.999 164.664 -110.999 160.664 -117.999 c 0
 154.664 -127.999 142.664 -130.999 130.664 -130.999 c 0
 117.664 -130.999 106.664 -127.999 100.664 -117.999 c 0
 96.6641 -110.999 95.6641 -103.999 95.6641 -90.999 c 0
 95.6641 -77.999 96.6641 -70.999 100.664 -64.999 c 0
 106.664 -53.999 117.664 -50.999 130.664 -50.999 c 0
 142.664 -50.999 154.664 -53.999 160.664 -64.999 c 0
 164.664 -70.999 165.664 -77.999 165.664 -90.999 c 0
EndSplineSet
EndChar

StartChar: afii57796
Encoding: 1467 1467 75
Width: 0
VWidth: 1000
Flags: HMW
AnchorPoint: "DiaToBaseU" 0 0 mark 0
LayerCount: 2
Back
SplineSet
35.25 -147.5 m 0
 35.25 -160.5 34.25 -167.5 30.25 -173.5 c 0
 24.25 -184.5 12.25 -187.5 0.25 -187.5 c 0
 -12.75 -187.5 -23.75 -184.5 -29.75 -173.5 c 0
 -33.75 -167.5 -34.75 -160.5 -34.75 -147.5 c 0
 -34.75 -134.5 -33.75 -127.5 -29.75 -120.5 c 0
 -23.75 -110.5 -12.75 -107.5 0.25 -107.5 c 0
 12.25 -107.5 24.25 -110.5 30.25 -120.5 c 0
 34.25 -127.5 35.25 -134.5 35.25 -147.5 c 0
145.25 -209 m 0
 145.25 -222 144.25 -229 140.25 -235 c 0
 134.25 -246 122.25 -249 110.25 -249 c 0
 97.25 -249 86.25 -246 80.25 -235 c 0
 76.25 -229 75.25 -222 75.25 -209 c 0
 75.25 -196 76.25 -189 80.25 -182 c 0
 86.25 -172 97.25 -169 110.25 -169 c 0
 122.25 -169 134.25 -172 140.25 -182 c 0
 144.25 -189 145.25 -196 145.25 -209 c 0
-75.25 -86 m 0
 -75.25 -99 -76.25 -106 -80.25 -113 c 0
 -86.25 -123 -98.25 -126 -110.25 -126 c 0
 -123.25 -126 -134.25 -123 -140.25 -113 c 0
 -144.25 -106 -145.25 -99 -145.25 -86 c 0
 -145.25 -73 -144.25 -66 -140.25 -60 c 0
 -134.25 -49 -123.25 -46 -110.25 -46 c 0
 -98.25 -46 -86.25 -49 -80.25 -60 c 0
 -76.25 -66 -75.25 -73 -75.25 -86 c 0
EndSplineSet
Fore
SplineSet
35.25 -152.5 m 0
 35.25 -165.5 34.25 -172.5 30.25 -178.5 c 0
 24.25 -189.5 12.25 -192.5 0.25 -192.5 c 0
 -12.75 -192.5 -23.75 -189.5 -29.75 -178.5 c 0
 -33.75 -172.5 -34.75 -165.5 -34.75 -152.5 c 0
 -34.75 -139.5 -33.75 -132.5 -29.75 -125.5 c 0
 -23.75 -115.5 -12.75 -112.5 0.25 -112.5 c 0
 12.25 -112.5 24.25 -115.5 30.25 -125.5 c 0
 34.25 -132.5 35.25 -139.5 35.25 -152.5 c 0
145.25 -214 m 0
 145.25 -227 144.25 -234 140.25 -240 c 0
 134.25 -251 122.25 -254 110.25 -254 c 0
 97.25 -254 86.25 -251 80.25 -240 c 0
 76.25 -234 75.25 -227 75.25 -214 c 0
 75.25 -201 76.25 -194 80.25 -187 c 0
 86.25 -177 97.25 -174 110.25 -174 c 0
 122.25 -174 134.25 -177 140.25 -187 c 0
 144.25 -194 145.25 -201 145.25 -214 c 0
-75.25 -91 m 0
 -75.25 -104 -76.25 -111 -80.25 -118 c 0
 -86.25 -128 -98.25 -131 -110.25 -131 c 0
 -123.25 -131 -134.25 -128 -140.25 -118 c 0
 -144.25 -111 -145.25 -104 -145.25 -91 c 0
 -145.25 -78 -144.25 -71 -140.25 -65 c 0
 -134.25 -54 -123.25 -51 -110.25 -51 c 0
 -98.25 -51 -86.25 -54 -80.25 -65 c 0
 -76.25 -71 -75.25 -78 -75.25 -91 c 0
EndSplineSet
EndChar

StartChar: afii57806
Encoding: 1465 1465 76
Width: 0
VWidth: 1000
Flags: MW
AnchorPoint: "DiaToBaseO" 0 0 mark 0
LayerCount: 2
Fore
SplineSet
35.5 686 m 0
 35.5 673 34.5 666 30.5 659 c 0
 23.5 649 12.5 646 -0.5 646 c 0
 -13.5 646 -23.5 649 -30.5 659 c 0
 -34.5 666 -35.5 673 -35.5 686 c 0
 -35.5 699 -34.5 706 -30.5 712 c 0
 -23.5 723 -13.5 726 -0.5 726 c 0
 12.5 726 23.5 723 30.5 712 c 0
 34.5 706 35.5 699 35.5 686 c 0
EndSplineSet
EndChar

StartChar: afii57807
Encoding: 1468 1468 77
Width: 0
VWidth: 1000
Flags: MW
AnchorPoint: "DiaToBaseD" 0 0 mark 0
LayerCount: 2
Back
SplineSet
40.5059 300 m 0
 40.5059 281.7 39.3955 270.732 34.9189 261.752 c 0
 27.4688 246.805 14.3496 242.398 0 242.398 c 0
 -15.1357 242.399 -27.5938 247.054 -34.9189 261.752 c 0
 -39.3955 270.732 -40.5059 281.7 -40.5059 300 c 0
 -40.5059 318.682 -39.3955 329.268 -34.9189 338.248 c 0
 -27.5938 352.946 -15.1357 357.601 0 357.602 c 0
 14.3496 357.602 27.4688 353.195 34.9189 338.248 c 0
 39.3955 329.268 40.5059 318.993 40.5059 300 c 0
EndSplineSet
Fore
SplineSet
-5.29785 244.185 m 2
 -17.9092 244.185 -27.6084 247.094 -34.3984 256.794 c 0
 -38.2783 263.584 -39.2471 270.374 -39.248 282.984 c 2
 -39.249 317.011 l 2
 -39.249 329.621 -38.2793 336.411 -34.3994 342.23 c 0
 -27.6094 352.901 -17.9102 355.811 -5.29883 355.811 c 2
 4.32812 355.811 l 2
 16.9385 355.811 27.6084 352.901 34.3984 342.23 c 0
 38.2783 336.411 39.248 329.621 39.248 317.011 c 2
 39.249 282.984 l 2
 39.25 270.374 38.2793 263.584 34.3994 256.794 c 0
 27.6094 247.094 16.9395 244.185 4.3291 244.185 c 2
 -5.29785 244.185 l 2
EndSplineSet
EndChar

StartChar: afii57804
Encoding: 1473 1473 78
Width: 0
VWidth: 1000
Flags: MW
LayerCount: 2
Back
SplineSet
293 70 m 6
 301 70 303 72 303 80 c 6
 303 574 l 6
 303 585 305 590 309 594 c 4
 313 598 318 600 329 600 c 6
 347 600 l 6
 358 600 363 598 367 594 c 4
 371 590 373 585 373 574 c 6
 373 80 l 6
 373 72 375 70 383 70 c 6
 441 70 l 6
 482 70 507 77 523 93 c 4
 539 109 546 130 546 175 c 6
 546 520 l 6
 546 528 544 530 536 530 c 6
 504 530 l 6
 493 530 488 532 484 536 c 4
 480 540 478 545 478 556 c 6
 478 574 l 6
 478 585 480 590 484 594 c 4
 488 598 493 600 504 600 c 6
 560.5 600 l 6
 580.3 600 593.8 597 603.4 587.4 c 4
 613 577.8 616 565.2 616 544.5 c 6
 616 185 l 6
 616 116 606 74 574 42 c 4
 542 10 497 0 431 0 c 6
 245 0 l 6
 179 0 134 10 102 42 c 4
 70 74 60 116 60 185 c 6
 60 544.5 l 6
 60 565.2 63 577.8 72.5996 587.4 c 4
 82.2002 597 95.7002 600 115.5 600 c 6
 172 600 l 6
 183 600 188 598 192 594 c 4
 196 590 198 585 198 574 c 6
 198 556 l 6
 198 545 196 540 192 536 c 4
 188 532 183 530 172 530 c 6
 140 530 l 6
 132 530 130 528 130 520 c 6
 130 175 l 6
 130 130 137 109 153 93 c 4
 169 77 194 70 235 70 c 6
 293 70 l 6
EndSplineSet
Fore
SplineSet
616 686 m 0
 616 673 615 666 611 659 c 0
 604 649 593 646 580 646 c 0
 567 646 557 649 550 659 c 0
 546 666 545 673 545 686 c 0
 545 699 546 706 550 712 c 0
 557 723 567 726 580 726 c 0
 593 726 604 723 611 712 c 0
 615 706 616 699 616 686 c 0
EndSplineSet
EndChar

StartChar: afii57803
Encoding: 1474 1474 79
Width: 0
VWidth: 1000
Flags: MW
LayerCount: 2
Back
SplineSet
293 70 m 6
 301 70 303 72 303 80 c 6
 303 574 l 6
 303 585 305 590 309 594 c 4
 313 598 318 600 329 600 c 6
 347 600 l 6
 358 600 363 598 367 594 c 4
 371 590 373 585 373 574 c 6
 373 80 l 6
 373 72 375 70 383 70 c 6
 441 70 l 6
 482 70 507 77 523 93 c 4
 539 109 546 130 546 175 c 6
 546 520 l 6
 546 528 544 530 536 530 c 6
 504 530 l 6
 493 530 488 532 484 536 c 4
 480 540 478 545 478 556 c 6
 478 574 l 6
 478 585 480 590 484 594 c 4
 488 598 493 600 504 600 c 6
 560.5 600 l 6
 580.3 600 593.8 597 603.4 587.4 c 4
 613 577.8 616 565.2 616 544.5 c 6
 616 185 l 6
 616 116 606 74 574 42 c 4
 542 10 497 0 431 0 c 6
 245 0 l 6
 179 0 134 10 102 42 c 4
 70 74 60 116 60 185 c 6
 60 544.5 l 6
 60 565.2 63 577.8 72.5996 587.4 c 4
 82.2002 597 95.7002 600 115.5 600 c 6
 172 600 l 6
 183 600 188 598 192 594 c 4
 196 590 198 585 198 574 c 6
 198 556 l 6
 198 545 196 540 192 536 c 4
 188 532 183 530 172 530 c 6
 140 530 l 6
 132 530 130 528 130 520 c 6
 130 175 l 6
 130 130 137 109 153 93 c 4
 169 77 194 70 235 70 c 6
 293 70 l 6
EndSplineSet
Fore
SplineSet
131 686 m 0
 131 673 130 666 126 659 c 0
 119 649 108 646 95 646 c 0
 82 646 72 649 65 659 c 0
 61 666 60 673 60 686 c 0
 60 699 61 706 65 712 c 0
 72 723 82 726 95 726 c 0
 108 726 119 723 126 712 c 0
 130 706 131 699 131 686 c 0
EndSplineSet
EndChar

StartChar: uni05C7
Encoding: 1479 1479 80
Width: 0
VWidth: 1000
Flags: HMW
AnchorPoint: "DiaToBase2" 0 0 mark 0
LayerCount: 2
Back
SplineSet
26.5 -213.5 m 2
 26.5 -225.011 24 -230 20 -234 c 0
 16 -238 11 -240 0 -240 c 0
 -11 -240 -16 -238 -20 -234 c 0
 -24 -230 -26 -225.002 -26 -214 c 2
 -26 -122 l 2
 -26 -114.001 -28 -112 -36 -112 c 2
 -87.5 -112 l 6
 -98.499 -112 -103.5 -110 -107.5 -106 c 4
 -111.5 -102 -113.5 -97 -113.5 -86 c 4
 -113.5 -75 -111.5 -70 -107.5 -66 c 4
 -103.5 -62 -98.5 -60 -87.5 -60 c 6
 87.5 -60 l 2
 98.5 -60 103.5 -62 107.5 -66 c 0
 111.5 -70 113.5 -75 113.5 -86 c 0
 113.5 -97 111.5 -102 107.5 -106 c 0
 103.5 -110 98.502 -112 87.5 -112 c 2
 36.5 -112 l 2
 28.5 -112 26.5 -114.001 26.5 -122 c 2
 26.5 -213.5 l 2
EndSplineSet
Fore
SplineSet
26.5 -218.5 m 2
 26.5 -230.011 24 -235 20 -239 c 0
 16 -243 11 -245 0 -245 c 0
 -11 -245 -16 -243 -20 -239 c 0
 -24 -235 -26 -230.002 -26 -219 c 2
 -26 -122 l 2
 -26 -114.001 -28 -112 -36 -112 c 2
 -62.5 -112 l 2
 -73.499 -112 -78.5 -110 -82.5 -106 c 0
 -86.5 -102 -88.5 -97 -88.5 -86 c 0
 -88.5 -75 -86.5 -70 -82.5 -66 c 0
 -78.5 -62 -73.5 -60 -62.5 -60 c 2
 62.5 -60 l 2
 73.5 -60 78.5 -62 82.5 -66 c 0
 86.5 -70 88.5 -75 88.5 -86 c 0
 88.5 -97 86.5 -102 82.5 -106 c 0
 78.5 -110 73.502 -112 62.5 -112 c 2
 36.5 -112 l 2
 28.5 -112 26.5 -114.001 26.5 -122 c 2
 26.5 -218.5 l 2
EndSplineSet
EndChar

StartChar: uniFB29
Encoding: 64297 64297 108
Width: 477
VWidth: 1000
Flags: HMW
LayerCount: 2
Back
SplineSet
391 267 m 6
 86 267 l 6
 75.001 267 70 269 66 273 c 4
 62 277 60 282 60 293 c 6
 60 311 l 6
 60 322 62 327 66 331 c 4
 70 335 75 337 86 337 c 6
 194 337 l 6
 202 337 204 339 204 347 c 6
 204 455 l 2
 204 466 206 471 210 475 c 0
 214 479 219 481 230 481 c 2
 248 481 l 2
 259 481 264 479 268 475 c 0
 272 471 274 466 274 455 c 2
 274 347 l 6
 274 339 276 337 284 337 c 6
 391 337 l 6
 402 337 407 335 411 331 c 4
 415 327 417 322 417 311 c 6
 417 293 l 6
 417 282 415 277 411 273 c 4
 407 269 402 267 391 267 c 6
EndSplineSet
Fore
SplineSet
391 237 m 6
 86 237 l 6
 75.001 237 70 239 66 243 c 4
 62 247 60 252 60 263 c 6
 60 281 l 6
 60 292 62 297 66 301 c 4
 70 305 75 307 86 307 c 6
 194 307 l 6
 202 307 204 309 204 317 c 6
 204 455 l 2
 204 466 206 471 210 475 c 0
 214 479 219 481 230 481 c 2
 248 481 l 2
 259 481 264 479 268 475 c 0
 272 471 274 466 274 455 c 2
 274 317 l 6
 274 309 276 307 284 307 c 6
 391 307 l 6
 402 307 407 305 411 301 c 4
 415 297 417 292 417 281 c 6
 417 263 l 6
 417 252 415 247 411 243 c 4
 407 239 402 237 391 237 c 6
EndSplineSet
EndChar

StartChar: afii57841
Encoding: 1471 1471 120
Width: 0
VWidth: 1000
Flags: MW
LayerCount: 2
Fore
SplineSet
113.5 686 m 0
 113.5 675 111.5 670 107.5 666 c 0
 103.5 662 98.5 660 87.5 660 c 2
 -87.5 660 l 2
 -98.5 660 -103.5 662 -107.5 666 c 0
 -111.5 670 -113.5 675 -113.5 686 c 0
 -113.5 697 -111.5 702 -107.5 706 c 0
 -103.5 710 -98.5 712 -87.5 712 c 2
 87.5 712 l 2
 98.5 712 103.5 710 107.5 706 c 0
 111.5 702 113.5 697 113.5 686 c 0
EndSplineSet
EndChar

StartChar: uni0000
Encoding: 0 0 121
Width: 700
VWidth: 1000
Flags: MW
LayerCount: 2
Fore
SplineSet
580 -25 m 2
 588 -25 590 -23 590 -15 c 2
 590 615 l 2
 590 623 588 625 580 625 c 2
 120 625 l 2
 112 625 110 623 110 615 c 2
 110 -15 l 2
 110 -23 112 -25 120 -25 c 2
 580 -25 l 2
584.5 675 m 2
 604.301 675 617.801 672 627.4 662.4 c 0
 637 652.8 640 640.2 640 619.5 c 2
 640 -19.5 l 2
 640 -40.2002 637 -52.7998 627.4 -62.4004 c 0
 617.801 -72 604.301 -75 584.5 -75 c 2
 115.5 -75 l 2
 95.7012 -75 82.2002 -72 72.5996 -62.4004 c 0
 63 -52.7998 60 -40.2002 60 -19.5 c 2
 60 619.5 l 2
 60 640.2 63 652.8 72.5996 662.4 c 0
 82.2002 672 95.7012 675 115.5 675 c 2
 584.5 675 l 2
EndSplineSet
EndChar

StartChar: dollar
Encoding: 36 36 122
Width: 524
VWidth: 1000
Flags: HMW
LayerCount: 2
Back
SplineSet
292 -24 m 2
 292 -35 290 -40 286 -44 c 0
 282 -48 277 -50 266 -50 c 2
 248 -50 l 2
 237 -50 232 -48 228 -44 c 0
 224 -40 222 -35 222 -24 c 2
 222 624 l 2
 222 635 224 640 228 644 c 0
 232 648 237 650 248 650 c 2
 266 650 l 2
 277 650 282 648 286 644 c 0
 290 640 292 635 292 624 c 2
 292 -24 l 2
187.035 280.807 m 0
 113 301.333 40 347.824 40 432.26 c 0
 40 486.421 62.2461 525.606 98.5 555.063 c 0
 143.9 591.952 200.9 607 271.9 607 c 0
 347.364 607 408.944 583.265 454 538 c 0
 461.779 530.222 463.9 525.272 463.9 519.615 c 0
 463.899 513.959 461.778 509.01 454.001 501.229 c 2
 441.272 488.503 l 2
 433.494 480.725 428.545 478.604 422.888 478.604 c 0
 417.23 478.604 412.723 481.194 404.502 488.502 c 0
 368.5 520.5 326.5 539 266.333 539 c 0
 184.166 539 110 510.308 110 434.561 c 0
 110 378.7 161.667 351.333 232.5 338.41 c 0
 266.429 332.22 299.377 328.581 326.865 321.193 c 0
 402 301 473.9 254.176 473.9 169.74 c 0
 473.9 115.579 451.654 76.3926 415.4 46.9365 c 0
 370 10.0479 313 -5 242 -5 c 0
 166.536 -5 104.956 18.7354 59.9004 64 c 0
 52.1211 71.7783 50 76.7275 50 82.3848 c 0
 50.001 88.041 52.1221 92.9902 59.8994 100.77 c 2
 72.6279 113.497 l 2
 80.4062 121.275 85.3555 123.396 91.0127 123.396 c 0
 96.6699 123.396 101.177 120.806 109.398 113.498 c 0
 145.4 81.5 187.4 63 247.567 63 c 0
 329.734 63 403.9 91.6924 403.9 167.439 c 0
 403.9 223.3 351.333 251 281.4 263.591 c 0
 254.03 268.519 219.408 271.831 187.035 280.807 c 0
EndSplineSet
Fore
SplineSet
226.999 352.802 m 2
 227 523.998 l 2
 227 530.119 220.82 535.003 215.076 533.909 c 0
 158.144 522.733 115 492.333 115 434.561 c 0
 115 384.93 155.785 357.792 214.562 343.292 c 0
 221.197 341.623 226.999 347.096 226.999 352.802 c 2
297.001 248.797 m 2
 296.959 78.0195 l 2
 296.958 71.8955 303.142 67.0107 308.884 68.1045 c 0
 365.786 79.2891 408.9 109.687 408.9 167.439 c 0
 408.9 217.018 367.492 244.413 309.285 258.75 c 0
 303.613 260.071 297.002 255.791 297.001 248.797 c 2
227 264.796 m 2
 227.001 269.628 223.574 273.604 219.024 274.541 c 0
 209.989 276.303 200.928 278.341 192.035 280.807 c 0
 118 301.333 45 347.824 45 432.26 c 0
 45 486.421 67.2461 525.606 103.5 555.062 c 0
 135.73 581.251 173.805 596.431 218.584 603.036 c 0
 223.358 603.789 227 608.014 227 612.997 c 2
 227 624 l 2
 227 635 229 640 233 644 c 0
 237 648 242 650 253 650 c 2
 271 650 l 2
 282 650 287 648 291 644 c 0
 295 640 297.002 635 297 624 c 2
 296.998 613.668 l 2
 296.997 608.449 301 604.211 306.104 603.76 c 0
 368.362 598.346 419.902 575.278 459 536 c 0
 466.779 528.222 468.9 523.271 468.9 517.615 c 0
 468.899 511.959 466.778 507.01 459.001 499.229 c 2
 446.272 486.503 l 2
 438.494 478.725 433.545 476.604 427.888 476.604 c 0
 422.23 476.604 417.723 479.194 409.502 486.502 c 0
 381.406 511.473 349.658 528.224 308.473 534.377 c 0
 302.014 535.333 297 530.41 297 524.501 c 2
 297.001 337.001 l 2
 297.001 332.078 300.554 327.931 305.238 327.101 c 0
 314.539 325.362 323.458 323.453 331.865 321.193 c 0
 407 301 478.9 254.176 478.9 169.74 c 0
 478.9 115.579 456.654 76.3926 420.4 46.9365 c 0
 388.185 20.7607 350.13 5.58301 305.377 -1.02539 c 0
 300.604 -1.77832 296.959 -5.99512 296.959 -10.9785 c 2
 296.959 -24.002 l 2
 296.959 -35.002 294.959 -40.002 290.959 -44.002 c 0
 286.959 -48.002 281.959 -50.002 270.959 -50.002 c 2
 252.953 -50.002 l 2
 241.953 -50.002 236.953 -48.002 232.953 -44.002 c 0
 228.953 -40.002 226.951 -35.002 226.953 -24.002 c 2
 226.955 -11.6494 l 2
 226.956 -6.43066 222.953 -2.19238 217.85 -1.74121 c 0
 155.591 3.67285 104.051 26.7402 64.9531 66.0186 c 0
 57.1738 73.7969 55.0527 78.7461 55.0527 84.4033 c 0
 55.0537 90.0596 57.1748 95.0088 64.9521 102.789 c 2
 77.6807 115.516 l 2
 85.459 123.294 90.4082 125.415 96.0654 125.415 c 0
 101.723 125.415 106.23 122.824 114.451 115.517 c 0
 142.547 90.5459 174.295 73.7949 215.48 67.6416 c 0
 221.933 66.6865 226.952 71.2881 226.953 77.5176 c 2
 227 264.796 l 2
EndSplineSet
EndChar

StartChar: sterling
Encoding: 163 163 123
Width: 515
VWidth: 1000
Flags: HMW
LayerCount: 2
Back
SplineSet
436.131 531.597 m 0
 445.517 520.761 447.897 507.536 432.925 494.972 c 2
 419.137 483.401 l 2
 402.99 469.854 391.729 475.624 382.507 486.606 c 16
 359 514.601 323.8 537 275 537 c 0
 206.485 537 171 485.895 171 423.4 c 2
 171 331 l 2
 171 323.003 173 321 181 321 c 2
 308 321 l 2
 319 321 324 319 328 315 c 0
 332 311 334 306 334 295 c 2
 334 277 l 2
 334 266 332 261 328 257 c 0
 324 253 319 251 308 251 c 2
 181 251 l 2
 173 251 171 249 171 241 c 2
 171 80 l 2
 171 72 173 70 181 70 c 2
 444 70 l 2
 454.998 70 460 68 464 64 c 0
 468 60 470 55 470 44 c 2
 470 26 l 2
 470 15 468 10 464 6 c 0
 460 2 455 0 444 0 c 2
 71 0 l 2
 60 0 55 2 51 6 c 0
 47 10 45 15 45 26 c 2
 45 44 l 2
 45 55 47 60 51 64 c 0
 55 68 60.0029 70 71 70 c 2
 91 70 l 2
 99 70 101 72 101 80 c 2
 101 241 l 2
 101 249 99 251 91 251 c 2
 71 251 l 2
 60 251 55 253 51 257 c 0
 47 261 45 266 45 277 c 2
 45 295 l 2
 45 306 47 311 51 315 c 0
 55 319 60 321 71 321 c 2
 91 321 l 2
 99 321 101 323 101 331 c 2
 101 434.033 l 2
 101 529.511 168.626 607 279.603 607 c 0
 352.431 607 400.143 573.143 436.131 531.597 c 0
EndSplineSet
Fore
SplineSet
181 70 m 2
 444 70 l 2
 454.998 70 460 68 464 64 c 0
 468 60 470 55 470 44 c 2
 470 26 l 2
 470 15 468 10 464 6 c 0
 460 2 455 0 444 0 c 2
 71 0 l 2
 60 0 55 2 51 6 c 0
 47 10 45 15 45 26 c 2
 45 44 l 2
 45 55 47 60 51 64 c 0
 55 68 60.0029 70 71 70 c 2
 91 70 l 2
 99 70 101 72 101 80 c 2
 101 241 l 2
 101 249 99 251 91 251 c 2
 71 251 l 2
 60 251 55 253 51 257 c 0
 47 261 45 266 45 277 c 2
 45 295 l 2
 45 306 47 311 51 315 c 0
 55 319 60 321 71 321 c 2
 91 321 l 2
 99 321 101 323.001 101 331 c 2
 101 394 l 2
 101 486.5 124.562 525.902 156.5 557 c 0
 192.492 592.046 239.737 607 287.603 607 c 0
 343.5 607 389.5 593.881 428.486 569 c 0
 440.57 561.288 447.771 550.414 438 533.486 c 2
 429.001 517.897 l 2
 420.426 503.043 405.814 501.058 393.483 508.381 c 0
 365.5 525 338.5 537 293 537 c 0
 258 537 226.354 524.401 209.5 508 c 0
 181.609 480.859 171 450.5 171 381.5 c 2
 171 331 l 2
 171 323.003 173 321 181 321 c 2
 308 321 l 2
 319 321 324 319 328 315 c 0
 332 311 334 306 334 295 c 2
 334 277 l 2
 334 266 332 261 328 257 c 0
 324 253 319 251 308 251 c 2
 181 251 l 2
 173 251 171 249 171 241 c 2
 171 80 l 2
 171 72 173 70 181 70 c 2
EndSplineSet
EndChar

StartChar: uni05BA
Encoding: 1466 1466 124
Width: 0
VWidth: 1000
Flags: MW
LayerCount: 2
Fore
SplineSet
35.5 686 m 0
 35.5 673 34.5 666 30.5 659 c 0
 23.5 649 12.5 646 -0.5 646 c 0
 -13.5 646 -23.5 649 -30.5 659 c 0
 -34.5 666 -35.5 673 -35.5 686 c 0
 -35.5 699 -34.5 706 -30.5 712 c 0
 -23.5 723 -13.5 726 -0.5 726 c 0
 12.5 726 23.5 723 30.5 712 c 0
 34.5 706 35.5 699 35.5 686 c 0
EndSplineSet
EndChar

StartChar: afii57839
Encoding: 1469 1469 125
Width: 0
VWidth: 1000
Flags: MW
LayerCount: 2
Fore
SplineSet
0 -46 m 0
 11 -46 16 -48 20 -52 c 0
 24 -56 26 -61 26 -72 c 2
 26 -180.5 l 2
 26 -191.5 24 -196.5 20 -200.5 c 0
 16 -204.5 11 -206.5 0 -206.5 c 0
 -11 -206.5 -16 -204.5 -20 -200.5 c 0
 -24 -196.5 -26 -191.5 -26 -180.5 c 2
 -26 -72 l 2
 -26 -61 -24 -56 -20 -52 c 0
 -16 -48 -11 -46 0 -46 c 0
EndSplineSet
EndChar

StartChar: afii57842
Encoding: 1472 1472 126
Width: 180
VWidth: 1000
Flags: MW
LayerCount: 2
Fore
SplineSet
120 674 m 2
 120 -74 l 6
 120 -85 118 -90 114 -94 c 4
 110 -98 105 -100 94 -100 c 6
 86 -100 l 6
 75 -100 70 -98 66 -94 c 4
 62 -90 60 -85 60 -74 c 6
 60 674 l 2
 60 685 62 690 66 694 c 0
 70 698 75 700 86 700 c 2
 94 700 l 2
 105 700 110 698 114 694 c 0
 118 690 120 685 120 674 c 2
EndSplineSet
EndChar

StartChar: uni05C4
Encoding: 1476 1476 127
Width: 0
VWidth: 1000
Flags: MW
LayerCount: 2
Fore
SplineSet
42.5996 728 m 0
 42.5996 712.4 41.4004 704 36.5996 695.6 c 0
 28.2002 683.6 15 680 -0.599609 680 c 0
 -16.2002 680 -28.2002 683.6 -36.5996 695.6 c 0
 -41.4004 704 -42.5996 712.4 -42.5996 728 c 0
 -42.5996 743.6 -41.4004 752 -36.5996 759.2 c 0
 -28.2002 772.4 -16.2002 776 -0.599609 776 c 0
 15 776 28.2002 772.4 36.5996 759.2 c 0
 41.4004 752 42.5996 743.6 42.5996 728 c 0
EndSplineSet
EndChar

StartChar: uni05C5
Encoding: 1477 1477 128
Width: 0
VWidth: 1000
Flags: MW
LayerCount: 2
Fore
SplineSet
42.5996 728 m 4
 42.5996 712.4 41.4004 704 36.5996 695.6 c 4
 28.2002 683.6 15 680 -0.599609 680 c 4
 -16.2002 680 -28.2002 683.6 -36.5996 695.6 c 4
 -41.4004 704 -42.5996 712.4 -42.5996 728 c 4
 -42.5996 743.6 -41.4004 752 -36.5996 759.2 c 4
 -28.2002 772.4 -16.2002 776 -0.599609 776 c 4
 15 776 28.2002 772.4 36.5996 759.2 c 4
 41.4004 752 42.5996 743.6 42.5996 728 c 4
EndSplineSet
EndChar

StartChar: endash
Encoding: 8211 8211 133
Width: 467
VWidth: 1000
Flags: MW
LayerCount: 2
Fore
SplineSet
391 282 m 2
 76 282 l 2
 65 282 60 284 56 288 c 0
 52 292 50 297 50 308 c 2
 50 326 l 2
 50 337 52 342 56 346 c 0
 60 350 65 352 76 352 c 2
 391 352 l 2
 402 352 407 350 411 346 c 0
 415 342 417 337 417 326 c 2
 417 308 l 2
 417 297 415 292 411 288 c 0
 407 284 402 282 391 282 c 2
EndSplineSet
EndChar

StartChar: emdash
Encoding: 8212 8212 134
Width: 667
VWidth: 1000
Flags: MW
LayerCount: 2
Fore
SplineSet
591 282 m 6
 76 282 l 2
 65 282 60 284 56 288 c 0
 52 292 50 297 50 308 c 2
 50 326 l 2
 50 337 52 342 56 346 c 0
 60 350 65 352 76 352 c 2
 591 352 l 6
 602 352 607 350 611 346 c 4
 615 342 617 337 617 326 c 6
 617 308 l 6
 617 297 615 292 611 288 c 4
 607 284 602 282 591 282 c 6
EndSplineSet
EndChar

StartChar: afii00208
Encoding: 8213 8213 135
Width: 917
VWidth: 1000
Flags: MW
LayerCount: 2
Fore
SplineSet
841 282 m 2
 76 282 l 2
 65 282 60 284 56 288 c 0
 52 292 50 297 50 308 c 2
 50 326 l 2
 50 337 52 342 56 346 c 0
 60 350 65 352 76 352 c 2
 841 352 l 2
 852 352 857 350 861 346 c 0
 865 342 867 337 867 326 c 2
 867 308 l 2
 867 297 865 292 861 288 c 0
 857 284 852 282 841 282 c 2
EndSplineSet
EndChar

StartChar: Euro
Encoding: 8364 8364 141
Width: 505
VWidth: 1000
Flags: HMW
LayerCount: 2
Back
SplineSet
351 322 m 6
 66 322 l 6
 55 322 50 324 46 328 c 4
 42 332 40 337 40 348 c 6
 40 366 l 6
 40 377 42 382 46 386 c 4
 50 390 55 392 66 392 c 6
 351 392 l 6
 362 392 367 390 371 386 c 4
 375 382 377 377 377 366 c 6
 377 348 l 6
 377 337 375 332 371 328 c 4
 367 324 362 322 351 322 c 6
351 202 m 6
 66 202 l 6
 55 202 50 204 46 208 c 4
 42 212 40 217 40 228 c 6
 40 246 l 6
 40 257 42 262 46 266 c 4
 50 270 55 272 66 272 c 6
 351 272 l 6
 362 272 367 270 371 266 c 4
 375 262 377 257 377 246 c 6
 377 228 l 6
 377 217 375 212 371 208 c 4
 367 204 362 202 351 202 c 6
451.159 23.5078 m 4
 409.546 1.4541 370.728 -8 325.999 -8 c 4
 247.634 -8 174.243 25 128.219 87 c 4
 88.4141 141 71 219 71 300 c 4
 71 381 88.4141 459 128.219 513 c 4
 174.243 575 247.634 608 325.999 608 c 4
 370.696 608 408.272 599.091 451.08 576.535 c 4
 458.351 572.704 463.839 566.452 465.304 560.988 c 4
 466.768 555.523 466 550.193 460.5 540.667 c 6
 451.5 525.079 l 6
 446 515.553 441.768 512.223 436.304 510.759 c 4
 430.839 509.294 425.398 509.731 415.858 515.209 c 4
 391.363 529.272 360.813 537 325.999 537 c 4
 262.961 537 216.367 513 183.478 466 c 4
 153.329 423 140.995 362 140.995 300 c 4
 140.995 238 153.329 177 183.478 134 c 4
 216.367 87 262.961 63 325.999 63 c 4
 360.772 63 391.182 70.7275 415.768 84.7412 c 4
 425.324 90.1885 430.839 90.6943 436.304 89.2295 c 4
 441.768 87.7656 446 84.4355 451.5 74.9092 c 6
 460.5 59.3213 l 6
 466 49.7949 466.768 44.4648 465.304 39 c 4
 463.839 33.5361 458.388 27.3389 451.159 23.5078 c 4
EndSplineSet
Fore
SplineSet
140.995 300 m 0
 140.995 294.201 141.103 283.41 141.323 277.642 c 0
 141.512 271.734 146.377 266.999 152.332 266.998 c 0
 340.411 267 l 2
 351.411 267 356.411 265 360.411 261 c 0
 364.411 257 365.977 249.755 363.812 241 c 2
 360.599 228 l 2
 358.391 219.068 354.435 212 350.435 208 c 0
 346.435 204 341.435 202 330.435 202 c 2
 167.73 202.001 l 2
 160.561 202.001 154.779 195.021 157.301 187.504 c 0
 163.825 167.832 172.47 149.7 183.478 134 c 0
 216.367 87 262.961 63 325.999 63 c 0
 359.333 63 385.333 70 410.942 81.9014 c 0
 420.918 86.5373 426.014 87.8545 431.479 86.3896 c 0
 436.942 84.9258 441.175 81.5957 446.675 72.0693 c 2
 455.675 56.4814 l 2
 461.175 46.9551 461.942 41.625 460.479 36.1602 c 0
 459.014 30.6963 453.638 24.3526 446.334 20.668 c 0
 408.667 1.66667 370.728 -8 325.999 -8 c 0
 247.634 -8 174.243 25 128.219 87 c 0
 106.461 116.517 91.3938 153.204 82.2031 193.632 c 0
 81.0254 198.438 76.6691 202.002 72 202 c 2
 66 202 l 2
 55 202 50 204 46 208 c 0
 42 212 40 217 40 228 c 2
 40 241 l 2
 40 252 42 257 46 261 c 0
 49.3428 264.343 53.3848 266.289 61.0459 266.838 c 0
 66.8516 267.292 71.5459 272.127 71.252 278.333 c 0
 71.082 283.87 71 294.428 71 300 c 0
 71 303.562 71.0342 312.118 71.1016 315.667 c 0
 71.3955 321.872 66.8516 326.709 61.0459 327.163 c 0
 53.3848 327.712 49.3428 329.658 46 333.001 c 0
 42 337.001 40 342.001 40 353.001 c 2
 40 366.001 l 2
 40 377.001 42 382.001 46 386.001 c 0
 50 390.001 54.999 392.001 66 392.001 c 2
 70.3633 392.001 l 2
 75.0322 391.999 79.7021 395.532 80.8799 400.339 c 0
 89.919 443.148 105.385 482.023 128.219 513 c 0
 174.243 575 247.634 608 325.999 608 c 0
 370.696 608 408.272 599.091 451.08 576.535 c 0
 458.351 572.704 463.839 566.452 465.304 560.988 c 0
 466.768 555.523 466 550.193 460.5 540.667 c 2
 451.5 525.079 l 2
 446 515.553 441.768 512.223 436.304 510.759 c 0
 430.839 509.294 425.398 509.731 415.858 515.209 c 0
 391.363 529.272 360.813 537 325.999 537 c 0
 262.961 537 216.367 513 183.478 466 c 0
 171.356 448.711 162.114 428.513 155.396 406.509 c 0
 152.874 398.991 158.925 392 166.096 392 c 2
 366.662 392.001 l 2
 378.165 392.001 383.165 389.999 387.165 385.999 c 0
 391.165 381.999 392.69 374.995 390.566 365.999 c 2
 387.497 352.999 l 2
 385.445 344.307 381.333 336.999 377.333 332.999 c 0
 373.333 328.999 368.333 326.999 357.333 326.999 c 2
 152.332 327.003 l 2
 146.377 327.003 141.324 322.269 141.136 316.361 c 0
 141.041 312.581 140.995 303.792 140.995 300 c 0
EndSplineSet
EndChar

StartChar: minus
Encoding: 8722 8722 142
Width: 477
VWidth: 1000
Flags: HMW
LayerCount: 2
Fore
SplineSet
391 282 m 6
 86 282 l 2
 75 282 70 284 66 288 c 0
 62 292 60 297 60 308 c 2
 60 326 l 2
 60 337 62 342 66 346 c 0
 70 350 75 352 86 352 c 2
 391 352 l 6
 402 352 407 350 411 346 c 4
 415 342 417 337 417 326 c 6
 417 308 l 6
 417 297 415 292 411 288 c 4
 407 284 402 282 391 282 c 6
EndSplineSet
EndChar

StartChar: uni25CC
Encoding: 9676 9676 143
Width: 615
VWidth: 1000
Flags: HMW
LayerCount: 2
Fore
SplineSet
76.8984 232.913 m 0
 92.3281 232.913 104.853 220.39 104.853 204.96 c 0
 104.853 189.529 92.3281 177.007 76.8984 177.007 c 0
 61.4678 177.007 48.9453 189.529 48.9453 204.96 c 0
 48.9453 220.39 61.4678 232.913 76.8984 232.913 c 0
211.383 98.4277 m 0
 226.814 98.4277 239.336 85.9043 239.336 70.4746 c 0
 239.336 55.0439 226.814 42.5215 211.383 42.5215 c 0
 195.954 42.5215 183.43 55.0439 183.43 70.4746 c 0
 183.43 85.9043 195.954 98.4277 211.383 98.4277 c 0
401.463 98.4277 m 0
 416.893 98.4277 429.416 85.9043 429.416 70.4746 c 0
 429.416 55.0439 416.893 42.5215 401.463 42.5215 c 0
 386.032 42.5215 373.511 55.0439 373.511 70.4746 c 0
 373.511 85.9043 386.032 98.4277 401.463 98.4277 c 0
535.948 232.913 m 0
 551.378 232.913 563.901 220.39 563.901 204.96 c 0
 563.901 189.529 551.378 177.007 535.948 177.007 c 0
 520.519 177.007 507.994 189.529 507.994 204.96 c 0
 507.994 220.39 520.519 232.913 535.948 232.913 c 0
535.948 422.993 m 0
 551.378 422.993 563.901 410.47 563.901 395.039 c 0
 563.901 379.609 551.378 367.086 535.948 367.086 c 0
 520.519 367.086 507.994 379.609 507.994 395.039 c 0
 507.994 410.47 520.519 422.993 535.948 422.993 c 0
401.463 557.477 m 0
 416.893 557.477 429.416 544.955 429.416 529.525 c 0
 429.416 514.095 416.893 501.571 401.463 501.571 c 0
 386.032 501.571 373.511 514.095 373.511 529.525 c 0
 373.511 544.955 386.032 557.477 401.463 557.477 c 0
211.383 557.477 m 0
 226.814 557.477 239.336 544.955 239.336 529.525 c 0
 239.336 514.095 226.814 501.571 211.383 501.571 c 0
 195.954 501.571 183.43 514.095 183.43 529.525 c 0
 183.43 544.955 195.954 557.477 211.383 557.477 c 0
76.8984 422.993 m 0
 92.3281 422.993 104.853 410.47 104.853 395.039 c 0
 104.853 379.609 92.3281 367.086 76.8984 367.086 c 0
 61.4678 367.086 48.9453 379.609 48.9453 395.039 c 0
 48.9453 410.47 61.4678 422.993 76.8984 422.993 c 0
57.9521 327.953 m 0
 73.3828 327.953 85.9053 315.429 85.9053 300 c 0
 85.9053 284.57 73.3828 272.046 57.9521 272.046 c 0
 42.5225 272.046 30 284.57 30 300 c 0
 30 315.429 42.5225 327.953 57.9521 327.953 c 0
130.733 503.642 m 0
 146.164 503.642 158.687 491.119 158.687 475.688 c 0
 158.687 460.259 146.164 447.735 130.733 447.735 c 0
 115.304 447.735 102.781 460.259 102.781 475.688 c 0
 102.781 491.119 115.304 503.642 130.733 503.642 c 0
130.733 152.264 m 0
 146.164 152.264 158.687 139.74 158.687 124.311 c 0
 158.687 108.88 146.164 96.3574 130.733 96.3574 c 0
 115.304 96.3574 102.781 108.88 102.781 124.311 c 0
 102.781 139.74 115.304 152.264 130.733 152.264 c 0
482.113 152.264 m 0
 497.543 152.264 510.065 139.74 510.065 124.311 c 0
 510.065 108.88 497.543 96.3574 482.113 96.3574 c 0
 466.682 96.3574 454.16 108.88 454.16 124.311 c 0
 454.16 139.74 466.682 152.264 482.113 152.264 c 0
482.113 503.642 m 0
 497.543 503.642 510.065 491.119 510.065 475.688 c 0
 510.065 460.259 497.543 447.735 482.113 447.735 c 0
 466.682 447.735 454.16 460.259 454.16 475.688 c 0
 454.16 491.119 466.682 503.642 482.113 503.642 c 0
306.423 576.424 m 0
 321.853 576.424 334.376 563.9 334.376 548.471 c 0
 334.376 533.04 321.853 520.518 306.423 520.518 c 0
 290.992 520.518 278.471 533.04 278.471 548.471 c 0
 278.471 563.9 290.992 576.424 306.423 576.424 c 0
306.423 79.4805 m 0
 321.853 79.4805 334.376 66.959 334.376 51.5283 c 0
 334.376 36.0986 321.853 23.5762 306.423 23.5762 c 0
 290.992 23.5762 278.471 36.0986 278.471 51.5283 c 0
 278.471 66.959 290.992 79.4805 306.423 79.4805 c 0
554.895 327.953 m 0
 570.325 327.953 582.847 315.429 582.847 300 c 0
 582.847 284.57 570.325 272.046 554.895 272.046 c 0
 539.465 272.046 526.94 284.57 526.94 300 c 0
 526.94 315.429 539.465 327.953 554.895 327.953 c 0
EndSplineSet
EndChar

StartChar: uniFB1E
Encoding: 64286 64286 148
Width: 0
VWidth: 1000
Flags: MW
LayerCount: 2
Back
SplineSet
113.5 686 m 0
 113.5 675 111.5 670 107.5 666 c 0
 103.5 662 98.5 660 87.5 660 c 2
 -87.5 660 l 2
 -98.5 660 -103.5 662 -107.5 666 c 0
 -111.5 670 -113.5 675 -113.5 686 c 0
 -113.5 697 -111.5 702 -107.5 706 c 0
 -103.5 710 -98.5 712 -87.5 712 c 2
 87.5 712 l 2
 98.5 712 103.5 710 107.5 706 c 0
 111.5 702 113.5 697 113.5 686 c 0
EndSplineSet
Fore
SplineSet
112.716 707.324 m 0
 116.479 696.987 116.309 691.605 113.918 686.479 c 0
 111.527 681.352 107.7 677.201 97.1768 674 c 0
 30.3333 653.667 -31.1494 653.971 -97.1768 674 c 0
 -107.513 677.762 -111.527 681.352 -113.918 686.479 c 0
 -116.309 691.605 -116.479 696.987 -112.716 707.324 c 0
 -108.954 717.661 -105.364 721.675 -100.237 724.065 c 0
 -95.1104 726.457 -89.8967 726.127 -79.3916 722.863 c 0
 -28.3333 707 23.6667 704.667 79.3916 722.863 c 0
 89.8486 726.278 95.1104 726.457 100.237 724.065 c 0
 105.364 721.675 108.954 717.661 112.716 707.324 c 0
EndSplineSet
EndChar

StartChar: uniFB4F
Encoding: 64335 64335 149
Width: 551
VWidth: 1000
Flags: HMW
LayerCount: 2
Back
SplineSet
112.73 415.361 m 2
 110.628 417.581 110.002 420.455 110.002 424.336 c 2
 110 688 l 2
 110 699 108 704 104 708 c 0
 100 712 95 714 84 714 c 2
 66 714 l 2
 55 714 50 712 46 708 c 0
 42 704 40 699 40 688 c 2
 40 433 l 2
 40 413.25 43.4082 396.617 56.25 379.25 c 2
 402.052 13 l 2
 410.64 3.9043 415.733 0 426.733 0 c 10
 464.733 0 l 2
 474.733 0 480.419 6 481 14 c 0
 481.686 20 481.575 25.9502 473.951 34 c 2
 112.73 415.361 l 2
266.699 267.668 m 2
 270.482 265.075 272.97 262.364 277.961 262.668 c 0
 327.199 265.668 363.699 287.668 384.999 323.668 c 0
 398.011 345.661 402.999 382.668 402.999 423.668 c 2
 400.8 520 l 2
 400.617 527.997 398.8 530 390.8 530 c 2
 326.8 530 l 2
 316.8 530 310.8 532 306.8 536 c 0
 302.8 540 300.8 545 300.8 556 c 2
 300.8 574 l 2
 300.8 585 302.8 590 306.8 594 c 0
 310.8 598 316.8 600 326.8 600 c 2
 414.8 600 l 2
 434.8 600 447.8 597 457.8 587 c 0
 466.8 578 470.435 564.998 470.8 544 c 2
 472.999 417.668 l 2
 472.999 351.668 465.999 315.668 447.999 285.668 c 0
 423.999 242.668 382.042 213 327.956 200 c 0
 323.048 198.82 322.165 196 324.375 192 c 2
112.729 521.028 m 2
 264.5 316 l 2
 267.228 312.315 270.771 310.696 275.762 311 c 0
 325 314 361.5 336 382.8 372 c 0
 395.812 393.993 400.8 431 400.8 472 c 2
 400.8 520 l 2
 400.8 528 398.8 530 390.8 530 c 2
 326.8 530 l 2
 316.8 530 310.8 532 306.8 536 c 0
 302.8 540 300.8 545 300.8 556 c 2
 300.8 574 l 2
 300.8 585 302.8 590 306.8 594 c 0
 310.8 598 316.8 600 326.8 600 c 2
 414.8 600 l 2
 434.8 600 447.8 597 457.8 587 c 0
 466.8 578 470.8 565 470.8 544 c 2
 470.8 466 l 2
 470.8 400 463.8 364 445.8 334 c 0
 421.8 291 379.333 261 325.247 248 c 0
 320.339 246.82 319.456 244 321.666 240 c 2
 473.951 34 l 2
 480.542 25.085 481.686 20 481 14 c 0
 480.419 6 474.733 0 464.733 0 c 2
 426.733 0 l 18
 415.733 0 409.493 2.94434 402.052 13 c 2
 56.25 480.25 l 2
 43.4082 497.617 40 514.25 40 534 c 2
 40 688 l 2
 40.4287 698.992 42 704 46 708 c 0
 50 712 55 714 66 714 c 2
 84 714 l 2
 95 714 100 712 104 708 c 0
 108 704 110.417 698.992 110 688 c 2
 110.001 530 l 2
 110.001 526.119 110.913 523.485 112.729 521.028 c 2
EndSplineSet
Fore
SplineSet
344.375 192 m 2
 341.233 195.318 343.048 198.82 347.956 200 c 0
 402.042 213 443.999 242.668 467.999 285.668 c 0
 485.999 315.668 492.999 351.668 492.999 417.668 c 2
 490.8 544 l 2
 490.435 564.998 486.8 578 477.8 587 c 0
 467.8 597 454.8 600 434.8 600 c 2
 346.8 600 l 2
 336.8 600 330.8 598 326.8 594 c 0
 322.8 590 320.8 585 320.8 574 c 2
 320.8 556 l 2
 320.8 545 322.8 540 326.8 536 c 0
 330.8 532 336.8 530 346.8 530 c 2
 410.8 530 l 2
 418.8 530 420.617 527.997 420.8 520 c 2
 422.999 423.668 l 2
 422.999 382.668 418.391 345.432 404.999 323.668 c 0
 381 284.667 342.667 263.333 285.003 261.332 c 0
 280.006 261.158 276.894 263.001 273.741 266.332 c 2
 132.73 415.361 l 2
 130.628 417.583 130.002 420.455 130.002 424.336 c 2
 130 688 l 2
 130 699 128 704 124 708 c 0
 120 712 115 714 104 714 c 2
 86 714 l 2
 75 714 70 712 66 708 c 0
 62 704 60 698.998 60 688 c 2
 60 441.5 l 2
 60 425.385 60.1855 411.249 63.667 398.833 c 0
 67.5293 385.055 75.1445 373.395 84.5 363.5 c 2
 418.052 13 l 2
 426.675 3.93848 431.733 0 442.733 0 c 10
 484.733 0 l 2
 494.733 0 500.419 6 501 14 c 0
 501.686 20 501.573 25.9482 493.951 34 c 2
 344.375 192 l 2
EndSplineSet
Ligature2: "AlephLamed2" afii57664 afii57676
Ligature2: "AlephLamed" afii57664 afii57676
LCarets2: 1 0 
EndChar

